<svg width="858" height="290" viewBox="0 0 858 290" fill="none" xmlns="http://www.w3.org/2000/svg">
<path d="M170.328 187.369H119.189V238.508H170.328V187.369Z" fill="#7CE8FE"/>
<path d="M205.645 119.185H119.189V170.324H205.645H221.466V119.185H205.645Z" fill="#3EC7E3"/>
<path d="M272.604 51H119.189V102.138H272.604V51Z" fill="#00A2C7"/>
<path d="M102.138 119.186H51V170.324H102.138V119.186Z" fill="#3EC7E3"/>
<path d="M323.727 238.52H363.373V161.058H439.645V128.37H363.373V83.6878H447.885V51H323.727V238.52Z" fill="black"/>
<path d="M467.411 83.6878H524.821V238.52H564.009V83.6878H621.419V51H467.411V83.6878Z" fill="black"/>
<path d="M683.956 51H638.999L696.592 144.76L637.9 238.52H683.315L721.772 174.518H723.237L761.693 238.52H807.291L748.783 144.76L806.009 51H761.235L723.237 114.911H721.772L683.956 51Z" fill="black"/>
</svg>
