<?xml version="1.0" encoding="UTF-8"?>
<svg width="122px" height="28px" viewBox="0 0 122 28" version="1.1" xmlns="http://www.w3.org/2000/svg" xmlns:xlink="http://www.w3.org/1999/xlink">
    <!-- Generator: Sketch 56.3 (81716) - https://sketch.com -->
    <title>kucoin-logo</title>
    <desc>Created with Sketch.</desc>
    <g id="页面-1" stroke="none" stroke-width="1" fill="none" fill-rule="evenodd">
        <g id="导航栏下拉最小宽度备份-4" transform="translate(-46.000000, -26.000000)">
            <g id="编组-27备份-2">
                <g id="kucoin-logo" transform="translate(32.000000, 12.000000)">
                    <rect id="矩形" x="0" y="0" width="150" height="56"></rect>
                    <g id="KUCOIN-logo-3.0" stroke-width="1" fill-rule="evenodd" transform="translate(14.000000, 14.000000)" fill="#23AF91">
                        <path d="M95.3348624,13.987156 C95.3348624,13.2730275 95.3348624,12.6012844 95.3117431,11.9809174 C95.296002,11.3956695 95.2380534,10.81232 95.1383486,10.2354128 C95.0450928,9.70861925 94.8804577,9.19699747 94.6489908,8.7146789 C94.4046408,8.21738854 94.0780957,7.76491515 93.6831193,7.37633028 C93.1229408,6.80236407 92.4563429,6.34298733 91.7205505,6.02385321 C90.9245743,5.70142254 90.0721094,5.54158536 89.2133945,5.55376147 C88.3514363,5.54262305 87.4958146,5.70239731 86.6959633,6.02385321 C85.9559568,6.33862878 85.2851594,6.79601046 84.7218349,7.36990826 C84.3276093,7.75826129 84.0022989,8.2108293 83.7598165,8.70825688 C83.5302853,9.19068108 83.3682154,9.70238981 83.2781651,10.2289908 C83.1807191,10.8060684 83.1249176,11.3894092 83.1111927,11.9744954 C83.0957798,12.5948624 83.0880734,13.2666055 83.0919266,13.9807339 C83.0957798,14.6948624 83.0919266,15.3614679 83.1111927,15.9856881 C83.1249176,16.5707743 83.1807191,17.154115 83.2781651,17.7311927 C83.3682154,18.2577937 83.5302853,18.7695024 83.7598165,19.2519266 C84.0032543,19.7487829 84.3284552,20.2011987 84.7218349,20.5902752 C85.2842337,21.1646343 85.955309,21.6213323 86.6959633,21.9337615 C87.4952784,22.2573175 88.3511539,22.4180125 89.2133945,22.406422 C90.0723954,22.4190774 90.9251221,22.2583174 91.7205505,21.9337615 C92.45646,21.6188704 93.1232917,21.1623875 93.6831193,20.5902752 C94.0772266,20.2009451 94.4036597,19.7486269 94.6489908,19.2519266 C94.8804577,18.769608 95.0450928,18.2579863 95.1383486,17.7311927 C95.2369468,17.1559168 95.294036,16.5742936 95.3091743,15.9908257 C95.3284404,15.3666055 95.3374312,14.6987156 95.3322936,13.9858716 L95.3348624,13.987156 Z M92.0981651,13.987156 C92.0981651,14.7783486 92.0866055,15.4372477 92.059633,15.9612844 C92.0444742,16.3917348 92.0015717,16.8207597 91.9311927,17.2456881 C91.8830515,17.5287939 91.7966328,17.8040377 91.6743119,18.0638532 C91.5750252,18.2732626 91.4451662,18.4667526 91.2889908,18.6379817 C91.0478944,18.9139831 90.7487716,19.1332813 90.4130275,19.2801835 C90.0352194,19.4418508 89.6281852,19.5240446 89.2172477,19.5217022 C88.8042901,19.523472 88.395273,19.441319 88.0150459,19.2801835 C87.671112,19.136019 87.3638812,18.9165685 87.1159633,18.6379817 C86.958809,18.4675227 86.8288452,18.2738767 86.7306422,18.0638532 C86.6117395,17.8037715 86.5296063,17.5284093 86.4866055,17.2456881 C86.4180274,16.8205227 86.3751362,16.3916105 86.3581651,15.9612844 C86.3350459,15.4372477 86.3234862,14.7792049 86.3234862,13.987156 C86.3234862,13.1959633 86.3350459,12.5357798 86.3581651,12.0117431 C86.3752013,11.5814215 86.4180921,11.1525133 86.4866055,10.7273394 C86.5296063,10.4446183 86.6117395,10.169256 86.7306422,9.90917431 C86.8291456,9.69932063 86.95908,9.50571836 87.1159633,9.33504587 C87.3642308,9.05684842 87.6713669,8.83746544 88.0150459,8.69284404 C88.3947064,8.52988132 88.8041072,8.44765125 89.2172477,8.45137615 C89.628365,8.44710719 90.0357815,8.52937818 90.4130275,8.69284404 C90.7485178,8.84018647 91.0475508,9.05941886 91.2889908,9.33504587 C91.444884,9.50649617 91.5747136,9.69994227 91.6743119,9.90917431 C91.7966328,10.1689898 91.8830515,10.4442336 91.9311927,10.7273394 C92.0014906,11.1522786 92.0443926,11.5812982 92.059633,12.0117431 C92.0878899,12.5344954 92.0981651,13.1946789 92.0981651,13.987156 Z" id="形状" fill-rule="nonzero"></path>
                        <path d="M121.125688,5.98275229 C121.124293,5.82656581 120.998021,5.70029369 120.841835,5.69889908 L118.17156,5.69889908 C118.015084,5.69960235 117.88841,5.82627672 117.887706,5.98275229 L117.887706,15.8469725 L111.37578,5.77853211 C111.33211,5.71045872 111.293578,5.69889908 111.197248,5.69889908 L108.720917,5.69889908 C108.565017,5.70097342 108.439139,5.8268518 108.437064,5.98275229 L108.437064,21.9889908 C108.439153,22.1446755 108.565225,22.2701772 108.720917,22.2715596 L111.389908,22.2715596 C111.545674,22.2708564 111.671774,22.144757 111.672477,21.9889908 L111.672477,12.0990826 L118.185688,22.1906422 C118.230642,22.2587156 118.266606,22.2702752 118.36422,22.2702752 L120.839266,22.2702752 C120.995245,22.2695789 121.121716,22.1436802 121.123119,21.9877064 L121.125688,5.98275229 Z" id="路径" fill-rule="nonzero"></path>
                        <path d="M103.226239,5.98275229 C103.225535,5.82627672 103.098861,5.69960235 102.942385,5.69889908 L100.274679,5.69889908 C100.118203,5.69960235 99.991529,5.82627672 99.9908257,5.98275229 L99.9908257,21.9877064 C99.991529,22.144182 100.118203,22.2708564 100.274679,22.2715596 L102.942385,22.2715596 C103.098861,22.2708564 103.225535,22.144182 103.226239,21.9877064 L103.226239,5.98275229 Z" id="路径" fill-rule="nonzero"></path>
                        <path d="M71.2908257,13.987156 C71.2908257,13.1908257 71.2998165,12.5280734 71.3229358,12.0001835 C71.3386457,11.5697705 71.3815447,11.1407807 71.4513761,10.7157798 C71.6979817,9.29009174 72.7897248,8.44880734 74.1833028,8.44880734 C75.0926606,8.45651376 75.9172477,8.79302752 76.4438532,9.55853211 C76.6823388,9.91591558 76.8562319,10.312392 76.9576147,10.7299083 C76.9654337,10.7738884 77.0056035,10.8045737 77.0500917,10.8005505 L80.1904587,10.8005505 C80.2354128,10.8005505 80.2521101,10.7697248 80.2444037,10.726055 C79.9014679,8.78275229 78.8649541,7.03724771 77.0333945,6.17284404 C76.1332453,5.75606935 75.1507349,5.54753833 74.1588991,5.56275229 C72.3907034,5.56275229 70.9012232,6.16813456 69.6904587,7.37889908 C68.9991921,8.0526024 68.5273632,8.91926353 68.3366972,9.86550459 C68.1517431,10.7971254 68.0584098,12.170581 68.0566741,13.9858716 C68.0549847,15.8011621 68.148318,17.1741896 68.3366972,18.1049541 C68.5257787,19.052413 68.9962363,19.9208124 69.6866055,20.5966972 C70.8965138,21.8066055 72.3859939,22.4115596 74.1550459,22.4115596 C75.1467234,22.4265596 76.1290939,22.2184972 77.0295413,21.8027523 C78.8611009,20.9383486 79.8976147,19.192844 80.2405505,17.2495413 C80.2482569,17.2045872 80.2315596,17.1750459 80.1866055,17.1750459 L77.0449541,17.1750459 C77.0002813,17.1703748 76.9597196,17.2013595 76.9524771,17.2456881 C76.8508519,17.6627229 76.6769712,18.0587364 76.4387156,18.4157798 C75.9121101,19.186422 75.0875229,19.5190826 74.1781651,19.5255046 C72.7845872,19.5255046 71.692844,18.6855046 71.4462385,17.2598165 C71.3764714,16.8348071 71.3335729,16.4058215 71.3177982,15.9754128 C71.2998165,15.4449541 71.2908257,14.7809174 71.2908257,13.987156 Z" id="路径" fill-rule="nonzero"></path>
                        <path d="M38.1223853,5.98275229 C38.121682,5.82627672 37.9950077,5.69960235 37.8385321,5.69889908 L35.1708257,5.69889908 C35.0143501,5.69960235 34.8876757,5.82627672 34.8869725,5.98275229 L34.8869725,21.9889908 C34.8883761,22.1449646 35.0148472,22.2708633 35.1708257,22.2717073 L37.8385321,22.2717073 C37.9945106,22.2708633 38.1209816,22.1449646 38.1223853,21.9889908 L38.1223853,17.2906422 L40.2634862,14.7308257 L44.6612844,22.186789 C44.6951393,22.2417657 44.756039,22.2741801 44.8205505,22.2717073 L48.0623853,22.2717073 C48.2113761,22.2717073 48.2383486,22.1790826 48.1638532,22.0519266 L42.4058716,12.2904587 L47.6886239,5.95321101 C47.7952294,5.82477064 47.7502752,5.70275229 47.5833028,5.70275229 L44.039633,5.70275229 C43.9965173,5.70021663 43.9550139,5.71952053 43.9291743,5.75412844 L38.1223853,12.7181651 L38.1223853,5.98275229 Z" id="路径" fill-rule="nonzero"></path>
                        <path d="M57.5579817,19.5255046 C56.0565138,19.5255046 54.6950459,18.1357798 54.6950459,16.4763303 L54.6950459,5.98275229 C54.6943426,5.82627672 54.5676682,5.69960235 54.4111927,5.69889908 L51.7434862,5.69889908 C51.5870107,5.69960235 51.4603363,5.82627672 51.459633,5.98275229 L51.459633,16.4352294 C51.459633,20.0893578 54.192844,22.4115596 57.5579817,22.4115596 C60.9231193,22.4115596 63.6563303,20.0893578 63.6563303,16.4352294 L63.6563303,5.98275229 C63.6549357,5.82656581 63.5286636,5.70029369 63.3724771,5.69889908 L60.7034862,5.69889908 C60.5475125,5.70030275 60.4216137,5.82677378 60.4209174,5.98275229 L60.4209174,16.4763303 C60.4209174,18.1344954 59.0581651,19.5255046 57.5579817,19.5255046 Z" id="路径" fill-rule="nonzero"></path>
                        <path d="M8.07119266,13.987156 L16.3530275,22.2702752 L21.5805505,17.0427523 C22.5153013,16.2010873 23.9453692,16.2385301 24.8347957,17.1279566 C25.7242222,18.0173831 25.761665,19.447451 24.92,20.3822018 L18.0214679,27.2820183 C17.0948346,28.1933271 15.6086516,28.1933271 14.6820183,27.2820183 L4.72917431,17.3266055 L4.72917431,23.2438532 C4.72917431,24.5497786 3.67051258,25.6084404 2.36458716,25.6084404 C1.05866173,25.6084404 0,24.5497786 0,23.2438532 L0,4.72275229 C0,3.41682687 1.05866173,2.35816514 2.36458716,2.35816514 C3.67051258,2.35816514 4.72917431,3.41682687 4.72917431,4.72275229 L4.72917431,10.64 L14.6807339,0.687155963 C15.6070847,-0.224842783 17.0938328,-0.224842783 18.0201835,0.687155963 L24.9238532,7.58568807 C25.7655182,8.52043892 25.7280754,9.95050679 24.8386489,10.8399333 C23.9492224,11.7293598 22.5191545,11.7668026 21.5844037,10.9251376 L16.3568807,5.69761468 L8.07119266,13.987156 Z M16.3568807,11.62 L16.3568807,11.62 C15.3993388,11.6194804 14.5357937,12.19589 14.1689982,13.0803943 C13.8022027,13.9648986 14.0044094,14.9832652 14.6813101,15.6605334 C15.3582109,16.3378016 16.3764675,16.5405609 17.2611708,16.1742455 C18.145874,15.8079301 18.7227526,14.944698 18.7227526,13.987156 C18.723093,13.3593471 18.4740237,12.7571164 18.0303367,12.3129476 C17.5866497,11.8687789 16.9846896,11.6190561 16.3568807,11.6187156 L16.3568807,11.62 Z" id="形状"></path>
                    </g>
                </g>
            </g>
        </g>
    </g>
</svg>