<svg xmlns="http://www.w3.org/2000/svg" viewBox="0 0 507.51 93.33"><defs><style>.cls-1{fill:#96c93d;}</style></defs><g id="Layer_2" data-name="Layer 2"><g id="Layer_1-2" data-name="Layer 1"><path d="M287.86,7.41h8.42l46.07,66.91h.23V7.41h7.53v79.1h-8.42L295.61,19.6h-.22V86.51h-7.53Z"/><path d="M275.58,86.51h8.08l-31-79.1h-8.42l-31.91,79.1h8.09l6.79-17.38h41.64ZM229.71,62.7l18.4-47,18.24,47Z"/><path d="M174,5.55c-23.64,0-40.13,18.41-40.13,41.12S150.53,87.8,174,87.8c23.84,0,40.33-18.42,40.33-41.13S197.42,5.55,174,5.55Zm0,75.39c-19.53,0-33.43-15.35-33.43-34.27S154.29,12.41,174,12.41c19.53,0,33.6,15.34,33.6,34.26S193.85,80.94,174,80.94Z"/><path d="M360.43,7.41h25.22c23.82.55,39.68,18.9,39.68,40.85,0,20.36-16,38.25-39.68,38.25H360.43ZM368,79.66h17.26c21.46,0,33-16.27,33-31.84,0-16.58-10.53-33.58-33-33.58H368Z"/><path d="M498.5,86.51h9L441.12,7.42h-7.7V86.51h7.52V69.14h43ZM440.94,62.7V18.89h.73l36.9,43.81Z"/><path class="cls-1" d="M33.19,91.34A46.63,46.63,0,0,0,73,85.19L33.19,37.74Z"/><path class="cls-1" d="M0,46.66A46.48,46.48,0,0,0,13.35,79.32V14A46.48,46.48,0,0,0,0,46.66Z"/><path class="cls-1" d="M33.19,7.43,86.5,71a46.66,46.66,0,0,0-65-63.57H33.19Z"/><path d="M507.51,14a6.59,6.59,0,1,1-13.17,0,6.59,6.59,0,0,1,13.17,0Zm-12.15,0a5.57,5.57,0,1,0,11.13,0,5.57,5.57,0,1,0-11.13,0Zm4.11,3.8h-.94V10.19h2.92c1.73,0,2.49.75,2.49,2.11A2,2,0,0,1,502,14.42l2.27,3.38H503.2l-2.15-3.38h-1.58Zm1.24-4.18c1.15,0,2.29,0,2.29-1.32,0-1.06-.89-1.31-1.81-1.31h-1.72v2.63Z"/></g></g></svg>
