<?xml version="1.0" encoding="UTF-8"?>
<svg width="1034px" height="721px" viewBox="0 0 1034 721" version="1.1" xmlns="http://www.w3.org/2000/svg" xmlns:xlink="http://www.w3.org/1999/xlink">
    <!-- Generator: Sketch 64 (93537) - https://sketch.com -->
    <title>Website</title>
    <desc>Created with Sketch.</desc>
    <defs>
        <linearGradient x1="54.5348313%" y1="3.39845739%" x2="46.065896%" y2="75.3127722%" id="linearGradient-1">
            <stop stop-color="#FFFFFF" offset="0%"></stop>
            <stop stop-color="#FFFFFF" stop-opacity="0" offset="100%"></stop>
        </linearGradient>
        <linearGradient x1="56.7839893%" y1="0.482584291%" x2="48.3165372%" y2="72.3800604%" id="linearGradient-2">
            <stop stop-color="#FFFFFF" offset="0%"></stop>
            <stop stop-color="#FFFFFF" stop-opacity="0" offset="100%"></stop>
        </linearGradient>
        <linearGradient x1="56.7839859%" y1="0.482584291%" x2="48.3165372%" y2="72.3800604%" id="linearGradient-3">
            <stop stop-color="#FFFFFF" offset="0%"></stop>
            <stop stop-color="#FFFFFF" stop-opacity="0" offset="100%"></stop>
        </linearGradient>
        <linearGradient x1="55.1489092%" y1="19.7735039%" x2="45.6638449%" y2="75.4552559%" id="linearGradient-4">
            <stop stop-color="#FFFFFF" offset="0%"></stop>
            <stop stop-color="#FFFFFF" stop-opacity="0" offset="100%"></stop>
        </linearGradient>
        <linearGradient x1="34.3218841%" y1="4.07130229%" x2="64.7566413%" y2="93.2293638%" id="linearGradient-5">
            <stop stop-color="#FFFFFF" offset="0%"></stop>
            <stop stop-color="#FFFFFF" stop-opacity="0" offset="100%"></stop>
        </linearGradient>
        <linearGradient x1="55.1489092%" y1="19.7734843%" x2="45.6638566%" y2="75.4552165%" id="linearGradient-6">
            <stop stop-color="#FFFFFF" offset="0%"></stop>
            <stop stop-color="#FFFFFF" stop-opacity="0" offset="100%"></stop>
        </linearGradient>
        <linearGradient x1="34.3259801%" y1="4.08339338%" x2="64.7607373%" y2="93.241213%" id="linearGradient-7">
            <stop stop-color="#FFFFFF" offset="0%"></stop>
            <stop stop-color="#FFFFFF" stop-opacity="0" offset="100%"></stop>
        </linearGradient>
        <linearGradient x1="67.6839465%" y1="31.2820593%" x2="35.2657234%" y2="65.5958072%" id="linearGradient-8">
            <stop stop-color="#FFFFFF" offset="0%"></stop>
            <stop stop-color="#FFFFFF" stop-opacity="0" offset="100%"></stop>
        </linearGradient>
        <linearGradient x1="61.9967534%" y1="35.5256717%" x2="31.9711878%" y2="71.7099451%" id="linearGradient-9">
            <stop stop-color="#FFFFFF" offset="0%"></stop>
            <stop stop-color="#FFFFFF" stop-opacity="0" offset="100%"></stop>
        </linearGradient>
    </defs>
    <g id="Website" stroke="none" stroke-width="1" fill="none" fill-rule="evenodd">
        <rect fill="#090C14" x="0" y="0" width="1034" height="721"></rect>
        <g id="background.3cfd3ec" opacity="0.383486793" transform="translate(276.000000, 52.000000)" fill-rule="nonzero">
            <path d="M467.935786,310.240923 C459.780664,305.162387 453.873016,305.02513 450.212843,309.82915 C446.55267,314.564541 444.75469,322.594118 444.75469,333.917879 L444.75469,394.928936 C444.75469,406.527213 443.727273,416.135253 441.736652,423.753057 C439.746032,431.645376 436.342713,437.272942 431.655123,440.567127 C427.09596,443.929941 420.931457,444.822117 413.097403,443.243653 C405.455988,441.733818 395.888167,437.478829 384.458153,430.410056 L379,427.047242 L379,379.00704 L385.806638,383.193401 C393.96176,388.271936 399.419913,388.889596 402.181097,385.183638 C405.070707,381.614937 406.547619,374.134391 406.547619,362.810629 L406.547619,309.074232 C406.547619,295.073945 407.83189,284.024699 410.400433,275.857864 C412.968975,267.69103 418.041847,262.543865 425.683261,260.210484 C418.041847,248.474949 412.968975,237.01393 410.400433,225.758797 C407.83189,214.503664 406.611833,201.875954 406.611833,187.875666 L406.611833,134.139269 C406.611833,122.815507 405.134921,113.61924 402.24531,106.41321 C399.548341,99.3444374 394.090188,93.3050978 385.870851,88.2265621 L379.064214,84.0402017 L379.064214,36 L384.522367,39.3628141 C395.952381,46.4315867 405.520202,53.9121324 413.161616,61.8730801 C420.995671,69.9026566 427.160173,78.4812641 431.719336,87.4716447 C436.47114,96.599283 439.810245,106.344581 441.800866,116.707539 C443.791486,126.795981 444.818903,137.70797 444.818903,149.237618 L444.818903,210.248674 C444.818903,221.572436 446.616883,231.866765 450.277056,241.063032 C453.937229,250.327928 459.844877,257.46533 468,262.475237 L467.935786,310.240923 Z" id="Path" fill="url(#linearGradient-1)" opacity="0.07"></path>
            <path d="M261.064214,133.843874 C269.219336,138.92211 275.126984,139.05936 278.787157,134.255623 C282.44733,129.520511 284.24531,121.491407 284.24531,110.168313 L284.24531,49.160855 C284.24531,37.5632617 285.272727,27.9557879 287.263348,20.3384337 C289.253968,12.4465803 292.52886,6.75072085 297.088023,3.38810503 C301.839827,0.0941140287 308.004329,-0.798008535 315.645743,0.711737342 C323.479798,2.29010803 333.111833,6.61347122 344.541847,13.6818269 L350,17.0444427 L350,65.0818115 L343.193362,60.895698 C335.03824,55.8174618 329.451659,55.1312137 326.562049,58.699704 C323.865079,62.4054439 322.452381,69.8855484 322.452381,81.2086425 L322.452381,134.941871 C322.452381,148.941333 321.16811,159.989927 318.599567,168.15628 C316.031025,176.254008 310.958153,181.469494 303.316739,183.802737 C310.958153,195.53758 316.031025,206.997924 318.599567,218.252393 C321.16811,229.506862 322.388167,242.133828 322.388167,256.13329 L322.388167,309.866518 C322.388167,321.189612 323.736652,330.385337 326.497835,337.453693 C329.387446,344.659298 334.974026,350.766906 343.129149,355.776518 L349.935786,359.962631 L349.935786,408 L344.477633,404.637384 C333.047619,397.569028 323.415584,390.020299 315.58153,381.991196 C307.940115,374.030718 301.775613,365.521241 297.02381,356.394141 C292.464646,347.40429 289.189755,337.728192 287.199134,327.29722 C285.208514,317.209373 284.181097,306.298028 284.181097,294.769059 L284.181097,233.761601 C284.181097,222.438507 282.383117,212.144785 278.722944,202.94906 C275.062771,193.68471 269.155123,186.54773 261,181.538118 L261.064214,133.843874 Z" id="Path" fill="url(#linearGradient-2)" opacity="0.07"></path>
            <path d="M441.935786,331.240923 C433.780664,326.162387 427.873016,326.02513 424.212843,330.82915 C420.55267,335.564541 418.75469,343.594118 418.75469,354.917879 L418.75469,415.928936 C418.75469,427.527213 417.727273,437.135253 415.736652,444.753057 C413.746032,452.645376 410.342713,458.272942 405.655123,461.567127 C401.09596,464.929941 394.931457,465.822117 387.097403,464.243653 C379.455988,462.733818 369.888167,458.478829 358.458153,451.410056 L353,448.047242 L353,400.00704 L359.806638,404.193401 C367.96176,409.271936 373.419913,409.889596 376.181097,406.183638 C379.070707,402.614937 380.547619,395.134391 380.547619,383.810629 L380.547619,330.074232 C380.547619,316.073945 381.83189,305.024699 384.400433,296.857864 C386.968975,288.69103 392.041847,283.543865 399.683261,281.210484 C392.041847,269.474949 386.968975,258.01393 384.400433,246.758797 C381.83189,235.503664 380.611833,222.875954 380.611833,208.875666 L380.611833,155.139269 C380.611833,143.815507 379.134921,134.61924 376.24531,127.41321 C373.548341,120.344437 368.090188,114.305098 359.870851,109.226562 L353.064214,105.040202 L353.064214,57 L358.522367,60.3628141 C369.952381,67.4315867 379.520202,74.9121324 387.161616,82.8730801 C394.995671,90.9026566 401.160173,99.4812641 405.719336,108.471645 C410.47114,117.599283 413.810245,127.344581 415.800866,137.707539 C417.791486,147.795981 418.818903,158.70797 418.818903,170.237618 L418.818903,231.248674 C418.818903,242.572436 420.616883,252.866765 424.277056,262.063032 C427.937229,271.327928 433.844877,278.46533 442,283.475237 L441.935786,331.240923 Z" id="Path" fill="url(#linearGradient-1)" opacity="0.4"></path>
            <path d="M235.064214,153.843874 C243.219336,158.92211 249.126984,159.05936 252.787157,154.255623 C256.44733,149.520511 258.24531,141.491407 258.24531,130.168313 L258.24531,69.160855 C258.24531,57.5632617 259.272727,47.9557879 261.263348,40.3384337 C263.253968,32.4465803 266.52886,26.7507208 271.088023,23.388105 C275.839827,20.094114 282.004329,19.2019915 289.645743,20.7117373 C297.479798,22.290108 307.111833,26.6134712 318.541847,33.6818269 L324,37.0444427 L324,85.0818115 L317.193362,80.895698 C309.03824,75.8174618 303.451659,75.1312137 300.562049,78.699704 C297.865079,82.4054439 296.452381,89.8855484 296.452381,101.208642 L296.452381,154.941871 C296.452381,168.941333 295.16811,179.989927 292.599567,188.15628 C290.031025,196.254008 284.958153,201.469494 277.316739,203.802737 C284.958153,215.53758 290.031025,226.997924 292.599567,238.252393 C295.16811,249.506862 296.388167,262.133828 296.388167,276.13329 L296.388167,329.866518 C296.388167,341.189612 297.736652,350.385337 300.497835,357.453693 C303.387446,364.659298 308.974026,370.766906 317.129149,375.776518 L323.935786,379.962631 L323.935786,428 L318.477633,424.637384 C307.047619,417.569028 297.415584,410.020299 289.58153,401.991196 C281.940115,394.030718 275.775613,385.521241 271.02381,376.394141 C266.464646,367.40429 263.189755,357.728192 261.199134,347.29722 C259.208514,337.209373 258.181097,326.298028 258.181097,314.769059 L258.181097,253.761601 C258.181097,242.438507 256.383117,232.144785 252.722944,222.94906 C249.062771,213.68471 243.155123,206.54773 235,201.538118 L235.064214,153.843874 Z" id="Path" fill="url(#linearGradient-3)" opacity="0.4"></path>
            <polygon id="Path" fill="url(#linearGradient-4)" opacity="0.15" points="92.0643275 8 202 75.8076772 201.935673 357 92 289.192323"></polygon>
            <polygon id="Path" fill="#6EE7B7" points="72 51 159 105.04475 159 131 72 76.9552496"></polygon>
            <polygon id="Path" fill="#FFFFFF" opacity="0.15" points="106 164 190 215.767164 190 256 106 204.232836"></polygon>
            <polygon id="Path" fill="#FFFFFF" opacity="0.15" points="106 115 190 166.689113 190 176 106 124.379349"></polygon>
            <polygon id="Path" fill="#FFFFFF" opacity="0.15" points="106 133 179 177.692015 179 187 106 142.307985"></polygon>
            <polygon id="Path" fill="url(#linearGradient-5)" opacity="0.2" points="92 8 202 76.1132812 202 114 92 45.8867187"></polygon>
            <path d="M120,44.223725 C120,49.8328319 116.83871,52.4684363 112.967742,50.1707299 C109.096774,47.8054439 106,41.3853818 106,35.776275 C106,30.1671681 109.16129,27.5315637 113.032258,29.8292701 C116.83871,32.1945561 120,38.6146182 120,44.223725 Z" id="Path" fill="#FFFFFF" opacity="0.2"></path>
            <polygon id="Path" fill="url(#linearGradient-6)" opacity="0.15" points="227.064327 269 337 336.807677 336.935673 618 227 550.192323"></polygon>
            <polygon id="Path" fill="#6EE7B7" points="269.063971 350 356 404.068966 356 430 269 375.931034"></polygon>
            <polygon id="Path" fill="#FFFFFF" opacity="0.15" points="241 377 325 428.835821 325 469 241 417.164179"></polygon>
            <polygon id="Path" fill="#FFFFFF" opacity="0.15" points="241 435 325 486.689113 325 496 241 444.379349"></polygon>
            <polygon id="Path" fill="#FFFFFF" opacity="0.15" points="241 452 314 496.692015 314 506 241 461.307985"></polygon>
            <polygon id="Path" fill="url(#linearGradient-7)" opacity="0.2" points="227 269 337 337.113281 337 375 227 306.886719"></polygon>
            <path d="M255,305.223725 C255,310.832832 251.83871,313.468436 247.967742,311.17073 C244.096774,308.805444 241,302.385382 241,296.776275 C241,291.167168 244.16129,288.531564 248.032258,290.82927 C251.83871,293.126977 255,299.614618 255,305.223725 Z" id="Path" fill="#FFFFFF" opacity="0.2"></path>
            <polygon id="Path" fill="url(#linearGradient-8)" opacity="0.3" points="208.871683 308.025385 18 190 18.0641585 296.614661 192.126302 404.260411 209 431"></polygon>
            <polygon id="Path" fill="#FFFFFF" opacity="0.15" points="159 303.703125 117 278 117 287.296875 159 313"></polygon>
            <polygon id="Path" fill="#FFFFFF" opacity="0.15" points="159.935604 321.70412 56 258 56 267.29588 160 331"></polygon>
            <polygon id="Path" fill="#FFFFFF" opacity="0.15" points="159 340.616971 34 263 34 272.383029 159 350"></polygon>
            <path d="M169,319.711491 C169,328.623585 173.946746,338.858567 180,342.618356 C186.053254,346.378146 191,342.200602 191,333.288509 C191,324.376415 186.053254,314.141433 180,310.381644 C173.881657,306.621854 169,310.799398 169,319.711491 Z" id="Path" fill="#6EE7B7"></path>
            <path d="M36.4368132,114.785945 L11,99.131664 L11,90 L36.4368132,105.654281 C38.5027473,106.958805 41.5370879,109.499192 44.1195055,113.481422 C46.8956044,117.738288 48.896978,123.0937 48.896978,128.929725 C48.896978,135.383683 47.3475275,139.022617 44.4423077,140.121163 C41.6662088,141.082391 38.4381868,139.434572 36.4368132,138.198708 L25.978022,131.74475 L25.9134615,131.67609 C25.0096154,131.126817 23.5892857,130.577544 22.4917582,130.92084 C21.5879121,131.195477 20.4903846,132.225363 20.4903846,135.795638 C20.4903846,139.365913 21.5233516,141.563005 22.4271978,142.867528 C23.5247253,144.515347 24.9450549,145.682553 25.8489011,146.163166 L25.978022,146.231826 L58,165.868336 L58,175 L26.1717033,155.432149 C23.9766484,154.196284 20.8131868,151.655897 18.1016484,147.605008 C15.1318681,143.142165 13.0659341,137.512116 13.0659341,131.195477 C13.0659341,124.947496 15.1318681,121.720517 18.0370879,120.827948 C20.7486264,120.004039 23.9120879,121.239903 26.1071429,122.613086 L36.5013736,128.998384 C37.9862637,129.890953 39.1483516,130.302908 39.8585165,130.028271 C40.4395604,129.822294 41.4725275,128.929725 41.4725275,124.329564 C41.4725275,121.308562 40.5686813,119.386107 39.6648352,118.012924 C38.6318681,116.502423 37.2760989,115.266559 36.4368132,114.785945 Z" id="Path" fill="#FFFFFF" opacity="0.15"></path>
            <path d="M19,100.474578 C19,108.394367 14.7281879,112.076374 9.5,108.811198 C4.27181208,105.546022 0,96.4452113 0,88.5254223 C0,80.6056332 4.27181208,76.9236261 9.5,80.1888022 C14.7281879,83.5234503 19,92.6242605 19,100.474578 Z" id="Path" fill="#6EE7B7"></path>
            <path d="M69,175.474578 C69,183.394367 64.7281879,187.076374 59.5,183.811198 C54.2718121,180.546022 50,171.445211 50,163.525422 C50,155.605633 54.2718121,151.923626 59.5,155.188802 C64.7281879,158.52345 69,167.62426 69,175.474578 Z" id="Path" fill="#6EE7B7"></path>
            <path d="M138,415.029594 C141.875598,417.421146 144.976077,423.092541 144.976077,427.875646 L144.976077,448.716315 L158.023923,456.642603 C161.899522,459.034155 165,464.705551 165,469.488655 C165,474.20343 161.834928,476.116671 158.023923,473.793449 L144.976077,465.867162 L144.976077,486.707831 C144.976077,491.422606 141.811005,493.335848 138,491.012626 C134.124402,488.621073 131.023923,482.949678 131.023923,478.166573 L131.023923,457.325904 L117.976077,449.399616 C114.100478,447.008064 111,441.336668 111,436.553564 C111,431.838789 114.165072,429.925548 117.976077,432.24877 L131.023923,440.175057 L131.023923,419.334388 C131.023923,414.551283 134.124402,412.638041 138,415.029594 Z" id="Path" fill="url(#linearGradient-9)" opacity="0.2"></path>
        </g>
    </g>
</svg>