<?xml version="1.0" encoding="UTF-8" standalone="no"?>
<!DOCTYPE svg PUBLIC "-//W3C//DTD SVG 1.1//EN" "http://www.w3.org/Graphics/SVG/1.1/DTD/svg11.dtd">
<svg width="100%" height="100%" viewBox="0 0 1185 1144" version="1.1" xmlns="http://www.w3.org/2000/svg" xmlns:xlink="http://www.w3.org/1999/xlink" xml:space="preserve" xmlns:serif="http://www.serif.com/" style="fill-rule:evenodd;clip-rule:evenodd;stroke-miterlimit:10;">
    <g transform="matrix(1,0,0,1,-318.08,55.7973)">
        <g>
            <path d="M571.37,847.17C567.32,847.17 563.34,846.97 559.52,846.57C550.07,845.59 521.29,842.59 511.22,820.01C498.2,790.83 525.41,753.31 563.08,701.4C568.53,693.89 574.16,686.12 579.79,678.21C615.18,628.44 658.34,598.73 695.24,598.73C711.16,598.73 725.61,604.27 737.03,614.74C749.2,625.9 756.04,642.67 756.82,663.21C758.26,701.21 739.27,745.09 706.03,780.59C649.74,840.68 593.1,847.17 571.37,847.17Z" style="fill:white;fill-rule:nonzero;"/>
            <path d="M695.23,615.06C706.83,615.06 717.32,618.83 725.97,626.77C752.42,651.04 743.46,716.69 694.09,769.42C650.14,816.35 603.54,830.83 571.37,830.83C567.8,830.83 564.4,830.65 561.21,830.32C486.97,822.59 538.91,763.87 593.09,687.67C625.8,641.67 664.43,615.06 695.23,615.06M695.23,582.39C673.19,582.39 649.27,591.04 626.05,607.41C605.09,622.18 584.49,643.39 566.46,668.73C560.88,676.58 555.27,684.31 549.84,691.79C533.21,714.71 517.51,736.35 506.93,755.51C496.87,773.73 484.81,800.93 496.29,826.65C499.87,834.68 507.42,845.89 523.04,853.65C532.5,858.36 543.87,861.35 557.82,862.8C562.2,863.26 566.75,863.49 571.36,863.49C594.05,863.49 618.36,857.97 641.67,847.53C669.14,835.22 694.8,816.45 717.93,791.74C754.09,753.12 774.72,704.84 773.12,662.58C772.17,637.58 763.5,616.86 748.05,602.69C733.58,589.41 715.31,582.39 695.23,582.39Z" style="fill:rgb(60,60,120);fill-rule:nonzero;"/>
        </g>
        <g>
            <path d="M1248.91,847.17C1227.17,847.17 1170.54,840.68 1114.27,780.59C1081.03,745.09 1062.04,701.21 1063.48,663.21C1064.26,642.66 1071.1,625.9 1083.27,614.74C1094.69,604.27 1109.13,598.73 1125.06,598.73C1161.96,598.73 1205.12,628.44 1240.51,678.21C1246.14,686.12 1251.77,693.89 1257.22,701.4C1294.89,753.32 1322.1,790.83 1309.08,820.01C1299,842.59 1270.23,845.59 1260.78,846.57C1256.94,846.97 1252.96,847.17 1248.91,847.17Z" style="fill:white;fill-rule:nonzero;"/>
            <path d="M1125.05,615.06C1155.85,615.06 1194.48,641.67 1227.19,687.67C1281.38,763.87 1333.31,822.59 1259.07,830.32C1255.88,830.65 1252.48,830.83 1248.91,830.83C1216.74,830.83 1170.14,816.35 1126.19,769.42C1076.81,716.69 1067.86,651.04 1094.31,626.77C1102.95,618.84 1113.44,615.06 1125.05,615.06M1125.05,582.39C1104.97,582.39 1086.7,589.41 1072.22,602.7C1056.77,616.88 1048.1,637.59 1047.15,662.59C1045.55,704.85 1066.18,753.14 1102.34,791.75C1125.48,816.46 1151.13,835.23 1178.6,847.54C1201.9,857.98 1226.21,863.5 1248.91,863.5C1253.52,863.5 1258.08,863.27 1262.45,862.81C1276.4,861.36 1287.78,858.36 1297.23,853.66C1312.84,845.89 1320.39,834.69 1323.98,826.66C1335.46,800.94 1323.4,773.74 1313.34,755.52C1302.76,736.36 1287.05,714.71 1270.43,691.8C1265,684.32 1259.39,676.59 1253.81,668.74C1235.79,643.39 1215.18,622.19 1194.22,607.41C1171,591.04 1147.08,582.39 1125.05,582.39Z" style="fill:rgb(60,60,120);fill-rule:nonzero;"/>
        </g>
        <g>
            <g>
                <clipPath id="_clip1">
                    <path d="M1126.19,769.42C1175.02,821.56 1227.12,833.65 1259.07,830.32C1333.31,822.59 1281.37,763.87 1227.19,687.67C1182.16,624.34 1125.92,597.77 1094.31,626.77C1067.85,651.05 1076.81,716.69 1126.19,769.42Z"/>
                </clipPath>
                <g clip-path="url(#_clip1)">
                    <circle cx="1325.36" cy="910.77" r="168.67" style="fill:rgb(255,130,45);"/>
                    <path d="M1325.36,750.27C1414,750.27 1485.86,822.13 1485.86,910.77C1485.86,999.41 1414,1071.27 1325.36,1071.27C1236.72,1071.27 1164.86,999.41 1164.86,910.77C1164.86,822.13 1236.71,750.27 1325.36,750.27M1325.36,733.93C1301.49,733.93 1278.33,738.61 1256.52,747.83C1235.46,756.74 1216.55,769.49 1200.31,785.72C1184.07,801.96 1171.33,820.87 1162.42,841.93C1153.19,863.74 1148.52,886.9 1148.52,910.77C1148.52,934.64 1153.2,957.8 1162.42,979.61C1171.33,1000.67 1184.08,1019.58 1200.31,1035.82C1216.55,1052.06 1235.46,1064.8 1256.52,1073.71C1278.33,1082.94 1301.49,1087.61 1325.36,1087.61C1349.23,1087.61 1372.39,1082.93 1394.2,1073.71C1415.26,1064.8 1434.17,1052.05 1450.41,1035.82C1466.65,1019.58 1479.39,1000.67 1488.3,979.61C1497.53,957.8 1502.2,934.64 1502.2,910.77C1502.2,886.9 1497.52,863.74 1488.3,841.93C1479.39,820.87 1466.64,801.96 1450.41,785.72C1434.17,769.48 1415.26,756.74 1394.2,747.83C1372.39,738.61 1349.22,733.93 1325.36,733.93Z" style="fill:rgb(60,60,120);fill-rule:nonzero;"/>
                </g>
            </g>
            <path id="SVGID_1_" d="M1126.19,769.42C1175.02,821.56 1227.12,833.65 1259.07,830.32C1333.31,822.59 1281.37,763.87 1227.19,687.67C1182.16,624.34 1125.92,597.77 1094.31,626.77C1067.85,651.05 1076.81,716.69 1126.19,769.42Z" style="fill:none;fill-rule:nonzero;stroke:rgb(60,60,120);stroke-width:3.27px;"/>
        </g>
        <g>
            <path d="M909.91,958.62C842.81,958.62 779.72,932.49 732.27,885.04C684.82,837.59 658.69,774.51 658.69,707.4C658.69,640.3 684.82,577.21 732.27,529.76C779.72,482.31 842.8,456.18 909.91,456.18C977.01,456.18 1040.1,482.31 1087.55,529.76C1135,577.21 1161.13,640.29 1161.13,707.4C1161.13,774.51 1135,837.59 1087.55,885.04C1040.1,932.49 977.01,958.62 909.91,958.62Z" style="fill:rgb(255,130,45);fill-rule:nonzero;"/>
            <path d="M909.91,472.53C1039.63,472.53 1144.79,577.69 1144.79,707.41C1144.79,837.13 1039.63,942.29 909.91,942.29C780.19,942.29 675.03,837.13 675.03,707.41C675.03,577.69 780.19,472.53 909.91,472.53M909.91,439.86C873.81,439.86 838.76,446.94 805.76,460.9C773.9,474.38 745.29,493.66 720.73,518.22C696.17,542.78 676.88,571.39 663.4,603.25C649.44,636.26 642.36,671.3 642.36,707.4C642.36,743.5 649.44,778.55 663.4,811.55C676.88,843.41 696.16,872.02 720.73,896.58C745.29,921.14 773.9,940.43 805.76,953.91C838.77,967.87 873.81,974.95 909.91,974.95C946.01,974.95 981.06,967.87 1014.06,953.91C1045.92,940.43 1074.53,921.15 1099.09,896.58C1123.65,872.02 1142.94,843.41 1156.42,811.55C1170.38,778.54 1177.46,743.5 1177.46,707.4C1177.46,671.3 1170.38,636.25 1156.42,603.25C1142.94,571.39 1123.66,542.78 1099.09,518.22C1074.53,493.66 1045.92,474.37 1014.06,460.9C981.06,446.94 946.01,439.86 909.91,439.86Z" style="fill:rgb(60,60,120);fill-rule:nonzero;"/>
        </g>
        <g>
            <path d="M909.34,952.09C889.28,952.09 868.08,949.24 846.31,943.61L842.35,942.59L840.29,939.05C800.33,870.29 761.18,797.64 759.56,731.72L759.55,731.37L759.57,731.02C761.91,682.09 781.95,625.39 824.55,547.17L827.34,542.06L991.58,542.06L994.49,546.45C1033,604.65 1054.46,665.58 1060.12,732.71L1060.17,733.33L1060.14,733.96C1056.67,813.51 1012.23,880.47 973.02,939.54L971.08,942.46L967.73,943.49C949.2,949.2 929.55,952.09 909.34,952.09Z" style="fill:white;fill-rule:nonzero;"/>
            <path d="M986.31,551.85C1020.69,603.81 1044.39,662.82 1050.34,733.53C1047.01,809.83 1005.3,873.17 964.85,934.12C946.88,939.65 928.35,942.29 909.33,942.29C889.66,942.29 869.45,939.47 848.76,934.12C807.5,863.14 770.87,793.22 769.36,731.48C771.97,677.01 798.43,615.63 833.16,551.85L986.31,551.85M996.85,532.25L821.51,532.25L815.94,542.48C772.6,622.07 752.19,680.07 749.78,730.55L749.75,731.26L749.77,731.97C750.52,762.77 759.14,797.14 776.13,837.03C791.74,873.7 813.05,911.68 831.82,943.99L835.93,951.07L843.86,953.12C866.43,958.95 888.46,961.91 909.34,961.91C930.53,961.91 951.15,958.87 970.63,952.87L977.32,950.81L981.19,944.97C1000.55,915.8 1022.48,882.75 1039.18,848.1C1058.26,808.51 1068.32,771.32 1069.93,734.39L1069.98,733.14L1069.87,731.89C1064.08,663.07 1042.09,600.65 1002.65,541.04L996.85,532.25Z" style="fill:rgb(60,60,120);fill-rule:nonzero;"/>
        </g>
        <g>
            <path d="M917.27,669.29C902.36,669.29 887.09,668.99 871.88,668.4C800.89,665.65 727.61,656.15 654.08,640.15C626.95,634.25 598.89,628.15 572.41,615.11C541,599.66 518.83,581.04 512.71,540.43C501.02,462.83 502.27,375.77 516.13,301.57C521.19,274.48 537.94,247.98 564.55,224.92C586.51,205.9 612.32,189.51 641.25,176.2C658.73,168.16 677.51,161.18 697.07,155.47C754.68,138.64 814.07,133.92 859.37,131.69C881.28,130.61 901.48,130.09 921.11,130.09C999.55,130.09 1066.75,138.86 1126.55,156.91C1183.96,174.24 1260.06,209.83 1296.65,281.03C1309.91,306.84 1310.94,340.37 1311.76,367.32C1311.9,372.05 1312.04,376.53 1312.23,380.76C1314.59,432.48 1312.94,476.94 1307.18,516.71C1304.68,533.94 1301.58,552.19 1293.59,569.29C1290.36,576.2 1286.54,582.1 1281.91,587.32C1261.69,610.11 1233.46,618.61 1208.56,626.11C1206.29,626.79 1204.03,627.48 1201.79,628.16C1171.96,637.32 1141.27,645.05 1110.58,651.14C1049.85,663.19 984.82,669.29 917.27,669.29Z" style="fill:white;fill-rule:nonzero;"/>
            <path d="M921.1,149.71C988.72,149.71 1056.31,156.21 1120.88,175.69C1184.93,195.02 1248.63,230.49 1279.2,290C1292.5,315.89 1291.36,353.47 1292.64,381.66C1294.65,425.61 1294.09,470.3 1287.77,513.9C1285.45,529.9 1282.72,546.23 1275.82,560.99C1273.31,566.36 1270.48,570.65 1267.23,574.31C1249.05,594.79 1221.18,601.7 1196.01,609.43C1166.66,618.44 1136.85,625.95 1106.74,631.92C1044.44,644.27 980.78,649.69 917.26,649.69C902.37,649.69 887.49,649.39 872.63,648.82C800.52,646.03 728.73,636.34 658.23,621C632.02,615.3 605.26,609.44 581.05,597.53C552.42,583.44 536.78,568.7 532.08,537.52C520.87,463.12 521.59,379.04 535.38,305.18C540.21,279.31 557.35,257.09 577.37,239.76C598.96,221.06 623.51,205.95 649.43,194.03C666.61,186.13 684.41,179.61 702.55,174.3C753.68,159.36 807.11,153.9 860.32,151.29C880.53,150.29 900.82,149.71 921.1,149.71M921.12,110.5L921.12,149.71L921.12,110.5C901.15,110.5 880.64,111.03 858.41,112.13C812.03,114.41 751.15,119.27 691.57,136.67C671.09,142.65 651.4,149.97 633.05,158.41C602.44,172.5 575.07,189.9 551.71,210.12C538.28,221.75 527,234.27 518.18,247.34C507.28,263.5 500.1,280.53 496.85,297.98C489.64,336.6 485.7,377.87 485.16,420.65C484.63,462.6 487.37,503.88 493.32,543.36C501.16,595.41 533.32,617.74 563.75,632.71C592.38,646.8 622.94,653.45 649.91,659.31C724.56,675.55 798.99,685.2 871.12,687.99C886.58,688.59 902.11,688.89 917.27,688.89C986.1,688.89 1052.42,682.66 1114.38,670.38C1145.72,664.17 1177.07,656.27 1207.54,646.91C1209.74,646.23 1211.97,645.56 1214.21,644.89C1240.25,637.05 1272.66,627.28 1296.57,600.34C1302.47,593.69 1307.31,586.25 1311.35,577.6C1320.48,558.07 1323.88,538.2 1326.59,519.53C1332.53,478.52 1334.24,432.84 1331.82,379.88C1331.63,375.8 1331.5,371.39 1331.36,366.73C1330.47,337.82 1329.37,301.83 1314.09,272.09C1282.65,210.89 1219.76,164.58 1132.22,138.16C1070.55,119.55 1001.5,110.5 921.12,110.5Z" style="fill:rgb(60,60,120);fill-rule:nonzero;"/>
        </g>
        <g>
            <clipPath id="_clip2">
                <path d="M1302.33,403.26C1302.52,418.56 1302.06,433.89 1301.46,449.02C1300.14,482.37 1298.14,518.48 1281.68,548.37C1261.12,585.7 1222.68,601.29 1183.88,612.66C1013.96,662.47 831.28,658.63 658.25,620.99C626.38,614.06 593.5,604.99 567.19,584.84C535.51,560.58 523.62,524.79 520.25,486.12C515.1,426.99 514.99,361.59 535.4,305.17C544.35,280.42 557.37,257.08 577.39,239.75C598.98,221.05 623.53,205.94 649.45,194.02C666.63,186.12 684.43,179.6 702.57,174.3C753.7,159.36 807.13,153.91 860.34,151.29C947.9,146.98 1036.97,150.37 1120.89,175.69C1184.94,195.02 1248.64,230.49 1279.21,290C1297.03,324.7 1301.83,363.85 1302.33,403.26Z"/>
            </clipPath>
            <g clip-path="url(#_clip2)">
                <path d="M1062.2,516.53L781.22,512.76L675.03,108.38L1169.84,108.38L1062.2,516.53Z" style="fill:rgb(255,130,45);fill-rule:nonzero;stroke:rgb(60,60,120);stroke-width:32.67px;"/>
            </g>
        </g>
        <path d="M1214.66,513.75C1210.41,523.57 1202.68,528.78 1188.62,536.89C1176.76,543.73 1164.59,549.91 1152,555.29C1125.6,566.56 1097.87,574.57 1069.79,580.38C1014.07,591.91 956.83,594.92 900.05,594.34C842.19,593.75 783.9,587.85 727.67,573.87C703.42,567.84 679.44,560.27 656.59,550.1C631.64,539 609.18,534.21 604,504.47C596.86,463.47 595.32,420.89 597.06,379.42C597.58,366.9 597.25,347.83 603.44,336.57C608.48,327.4 618.24,324.9 627.75,320.83C646.64,312.75 666.54,307.06 686.51,302.34C737.51,290.29 790.09,284.72 842.34,281.88C947.34,276.18 1060.52,278.07 1161.82,309.43C1180.53,315.22 1215.87,322 1220,344.77C1228.72,392.77 1223.1,446.02 1218.81,494.37C1218.06,502.65 1216.8,508.79 1214.66,513.75Z" style="fill:rgb(60,60,120);fill-rule:nonzero;stroke:rgb(60,60,120);stroke-width:3.27px;"/>
        <path d="M802.18,436.41C802.18,474.9 767.71,497.4 729.21,497.4C690.71,497.4 656.24,474.91 656.24,436.41C656.24,397.91 690.71,373.24 729.21,373.24C767.71,373.24 802.18,397.92 802.18,436.41Z" style="fill:rgb(255,130,45);fill-rule:nonzero;"/>
        <g>
            <path d="M1030.91,475.72C1023.83,475.64 1016.83,472.8 1011.48,467.21C995.49,450.47 1006.24,426.86 1023.32,416.18C1035.99,408.27 1052.31,401.37 1067.1,399.13C1084.85,396.44 1102.82,399.92 1119.06,407.28C1131.65,412.99 1147.92,420.91 1154.2,434.11C1160.24,446.82 1156.68,463.59 1144.97,471.8C1135.85,478.2 1123.57,478.06 1113.88,473.01C1103.36,467.53 1097.92,455.52 1086.24,451.72C1069.93,446.42 1059.78,460.96 1048.44,469.74C1043.21,473.8 1037.03,475.79 1030.91,475.72Z" style="fill:rgb(255,130,45);fill-rule:nonzero;"/>
        </g>
        <g>
            <path d="M909.33,845.16L832.78,809.48L909.58,710.88L985.88,808.46L909.33,845.16Z" style="fill:rgb(101,127,240);fill-rule:nonzero;stroke:rgb(60,60,120);stroke-width:9.8px;stroke-linejoin:round;"/>
            <path d="M909.51,917.88L832.78,828.55L909.45,866.13L987.54,828.55L909.51,917.88Z" style="fill:rgb(101,127,240);fill-rule:nonzero;stroke:rgb(60,60,120);stroke-width:9.8px;stroke-linejoin:round;"/>
            <path d="M909.58,710.88L909.33,845.16" style="fill:none;fill-rule:nonzero;stroke:rgb(60,60,120);stroke-width:9.8px;stroke-linejoin:round;"/>
            <path d="M832.78,809.48L909.33,778.02L985.88,808.46" style="fill:none;fill-rule:nonzero;stroke:rgb(60,60,120);stroke-width:9.8px;stroke-linejoin:round;"/>
            <path d="M909.45,866.13L909.51,917.88" style="fill:none;fill-rule:nonzero;stroke:rgb(60,60,120);stroke-width:9.8px;stroke-linejoin:round;"/>
        </g>
        <g>
            <g>
                <clipPath id="_clip3">
                    <path d="M694.09,769.42C645.26,821.56 593.16,833.65 561.21,830.32C486.97,822.59 538.91,763.87 593.09,687.67C638.12,624.34 694.36,597.77 725.97,626.77C752.42,651.05 743.46,716.69 694.09,769.42Z"/>
                </clipPath>
                <g clip-path="url(#_clip3)">
                    <g transform="matrix(0.7071,-0.7071,0.7071,0.7071,-499.053,616.718)">
                        <circle cx="494.92" cy="910.77" r="168.67" style="fill:rgb(255,130,45);"/>
                    </g>
                    <g>
                        <path d="M494.92,750.27C583.56,750.27 655.42,822.13 655.42,910.77C655.42,999.41 583.56,1071.27 494.92,1071.27C406.28,1071.27 334.42,999.41 334.42,910.77C334.42,822.13 406.27,750.27 494.92,750.27M494.92,733.93C471.05,733.93 447.89,738.61 426.08,747.83C405.02,756.74 386.11,769.49 369.87,785.72C353.63,801.96 340.89,820.87 331.98,841.93C322.75,863.74 318.08,886.9 318.08,910.77C318.08,934.64 322.76,957.8 331.98,979.61C340.89,1000.67 353.64,1019.58 369.87,1035.82C386.11,1052.06 405.02,1064.8 426.08,1073.71C447.89,1082.94 471.05,1087.61 494.92,1087.61C518.79,1087.61 541.95,1082.93 563.76,1073.71C584.82,1064.8 603.73,1052.05 619.97,1035.82C636.21,1019.58 648.95,1000.67 657.86,979.61C667.09,957.8 671.76,934.64 671.76,910.77C671.76,886.9 667.08,863.74 657.86,841.93C648.95,820.87 636.2,801.96 619.97,785.72C603.73,769.48 584.82,756.74 563.76,747.83C541.94,738.61 518.78,733.93 494.92,733.93Z" style="fill:rgb(60,60,120);fill-rule:nonzero;"/>
                    </g>
                </g>
            </g>
        </g>
    </g>
</svg>
