<svg xmlns="http://www.w3.org/2000/svg" viewBox="0 0 465.97 425.54"><defs><style>.cls-1{isolation:isolate;}.cls-2{fill:#f5f5f5;}.cls-3{fill:#e6e6e6;}.cls-34,.cls-4{fill:#263238;}.cls-5{fill:#37474f;}.cls-27,.cls-6{fill:#455a64;}.cls-7{fill:#27debf;}.cls-8{fill:#9a4a4d;}.cls-9{fill:#b16668;}.cls-10,.cls-30{opacity:0.6;}.cls-11,.cls-27,.cls-31{opacity:0.1;}.cls-12{fill:#ffa8a7;}.cls-13,.cls-23,.cls-28{opacity:0.3;}.cls-14{opacity:0.35;}.cls-15{fill:#f28f8f;}.cls-16{fill:#ffc4c3;}.cls-17{fill:#ffbda7;}.cls-18{fill:#ebebeb;}.cls-19{fill:#f0997a;}.cls-20,.cls-25,.cls-33,.cls-34{opacity:0.5;}.cls-21,.cls-23{fill:#fff;}.cls-22,.cls-29{opacity:0.2;}.cls-24{opacity:0.65;}.cls-26{opacity:0.8;}.cls-32,.cls-39{opacity:0.25;}.cls-33{mix-blend-mode:multiply;}.cls-35{fill:#f0f0f0;}.cls-36{fill:#e0e0e0;}.cls-37,.cls-38{fill:none;stroke-linecap:round;stroke-miterlimit:10;stroke-width:0.57px;}.cls-37{stroke:#ebebeb;}.cls-38{stroke:#27debf;}.cls-40{opacity:0.15;}</style></defs><g class="cls-1"><g id="Layer_2" data-name="Layer 2"><g id="Floor"><ellipse id="Floor-2" data-name="Floor" class="cls-2" cx="232.98" cy="291.02" rx="232.98" ry="134.51"/></g><g id="Shadows"><ellipse id="Shadow" class="cls-3" cx="400.04" cy="308.57" rx="46.07" ry="26.6"/><ellipse id="Shadow-2" data-name="Shadow" class="cls-3" cx="60.29" cy="304.83" rx="48.1" ry="27.77"/><path id="Shadow-3" data-name="Shadow" class="cls-3" d="M317,294.8a4.13,4.13,0,0,1-2.07-.52l-42.62-24.61a2,2,0,0,1,.16-3.68l38.26-17.66a4.82,4.82,0,0,1,2-.41,5.17,5.17,0,0,1,2.55.62l34.19,19.75a2.24,2.24,0,0,1,.2,3.93l-30.22,21.83a4.29,4.29,0,0,1-2.49.75Z"/><path id="Shadow-4" data-name="Shadow" class="cls-3" d="M142.6,289a4.09,4.09,0,0,0,2.06-.52l42.63-24.61a1.95,1.95,0,0,0-.17-3.67l-38.25-17.67a4.9,4.9,0,0,0-2.05-.41,5.14,5.14,0,0,0-2.54.62l-34.19,19.76a2.22,2.22,0,0,0-.2,3.92l30.22,21.83a4.27,4.27,0,0,0,2.49.75Z"/><path id="Shadow-5" data-name="Shadow" class="cls-3" d="M84.45,317.23l137.24,79.2a4.6,4.6,0,0,0,4.15,0l140.85-81.36a1.27,1.27,0,0,0,0-2.4l-137.23-79.2a4.62,4.62,0,0,0-4.16,0L84.45,314.83A1.27,1.27,0,0,0,84.45,317.23Z"/></g><g id="Character_4" data-name="Character 4"><g id="Girl"><path class="cls-4" d="M340.68,217.38v53a1.5,1.5,0,0,0,.67,1.16l1.81,1a1.46,1.46,0,0,0,1.35,0l1.8-1a1.51,1.51,0,0,0,.68-1.16v-53a.78.78,0,0,0-.78-.78h-4.75A.78.78,0,0,0,340.68,217.38Z"/><path class="cls-5" d="M346.21,216.6h-1.6a.78.78,0,0,0-.78.78v54.83c0,.43.31.61.68.39l1.8-1a1.51,1.51,0,0,0,.68-1.16v-53A.78.78,0,0,0,346.21,216.6Z"/><path class="cls-4" d="M310.26,234.87v53a1.5,1.5,0,0,0,.67,1.17l1.81,1a1.5,1.5,0,0,0,1.34,0l1.81-1a1.5,1.5,0,0,0,.67-1.17v-53a.78.78,0,0,0-.77-.77H311A.78.78,0,0,0,310.26,234.87Z"/><path class="cls-5" d="M315.79,234.1h-1.6a.78.78,0,0,0-.78.77v54.84c0,.43.3.6.67.39l1.81-1a1.5,1.5,0,0,0,.67-1.17v-53A.78.78,0,0,0,315.79,234.1Z"/><path class="cls-6" d="M312.28,196a2.86,2.86,0,0,1-2.47,3.18l-.35,0a2.86,2.86,0,0,1-2.83-2.49c-1.63-13.09.7-42.37,6.3-58.87.57-1.69,2.21-2.06,3.76-1.16h0c1.18.68,2,1.71,1.59,3C312.91,155.13,310.7,183.35,312.28,196Z"/><path class="cls-5" d="M345.26,203.49a1.62,1.62,0,0,0,.56-.1,1.81,1.81,0,0,0,1.16-2.28c-4.2-12.75-24.82-24.09-38.13-24.09a1.81,1.81,0,0,0,0,3.62c12,0,31,10.47,34.69,21.6A1.82,1.82,0,0,0,345.26,203.49Z"/><path class="cls-5" d="M347.2,187a1.63,1.63,0,0,0,.57-.1,1.81,1.81,0,0,0,1.15-2.28c-4.36-13.25-25.59-24-38.85-22.6a1.81,1.81,0,0,0,.37,3.6c11.75-1.2,31.22,8.52,35,20.13A1.82,1.82,0,0,0,347.2,187Z"/><path class="cls-5" d="M351.23,173.85a1.66,1.66,0,0,0,.72-.15,1.8,1.8,0,0,0,.93-2.38c-6.24-14.2-28.42-25.87-40.42-24.2a1.81,1.81,0,1,0,.5,3.58c10.6-1.47,31,9.38,36.61,22.07A1.81,1.81,0,0,0,351.23,173.85Z"/><path class="cls-6" d="M355.83,158.65a2.85,2.85,0,0,1,1.17,3.6c-6.54,15.27-10,33.93-10,54.37v2.74l-.22.22a1.15,1.15,0,0,1-.86.36,3.58,3.58,0,0,1-1.19-.29,3.22,3.22,0,0,0-.58-.19,2.84,2.84,0,0,1-2.84-2.84c0-21.2,3.6-40.63,10.46-56.62a2.84,2.84,0,0,1,4-1.36Z"/><path class="cls-5" d="M347,218.69v.69a4.54,4.54,0,0,1-1.68,3.28l-30.22,21.85a3.47,3.47,0,0,1-3.47.18L269,220.08a4,4,0,0,1-1.79-3.1v-.72a3.51,3.51,0,0,1,1.88-2.93l38.25-17.67a4.48,4.48,0,0,1,3.67.17l34.19,19.76A4,4,0,0,1,347,218.69Z"/><path class="cls-7" d="M345.19,215.59,311,195.83a4.48,4.48,0,0,0-3.67-.17l-38.25,17.67c-1,.48-1.08,1.33-.09,1.9l42.63,24.61a3.47,3.47,0,0,0,3.47-.18l30.22-21.83A1.24,1.24,0,0,0,345.19,215.59Z"/><path class="cls-4" d="M293.37,257.93c.77.52,1.64,1.14,1.73,2a8.5,8.5,0,0,1-1.25,5.16c-1.34,2.24-1.73,6.05-1.55,8.55s1.26,8.74-1.31,11.82-9.78,5.86-10.73,1.34S284.61,263,284.61,263Z"/><path class="cls-8" d="M289.84,261.7a69.18,69.18,0,0,0-1,10.33c0,3.78-.54,6.56-2.18,7.92s-4.45,1.76-3.92-.91,1.86-16,1.86-16Z"/><path class="cls-6" d="M296.37,191.74s-15.89,9.82-22.23,15.14-8.5,7.52-9.27,10.9c-.82,3.58,1.45,9.39,5.26,19.35,1,2.7,7.84,18.58,7.84,18.58l9.24-29.93L306,208.34Z"/><path class="cls-4" d="M281.53,286.87c.69.27.92,1.79,1.09,2.89s1.26,2.39,0,4.41-3.89,2.73-5.58,5.49-2.55,6.53-8.46,8.09-10.55-.2-11.75-1.92-.29-3.46,3.43-5.82c3.94-2.51,5.05-3.25,5.05-3.25Z"/><path class="cls-9" d="M274.52,274.91S272,283,270.44,286.77s-2.6,6.16-5.52,9.55c-.63.73-2.08,2.1-2.6,2.7a1.15,1.15,0,0,0,.13,1.77c1.3,1.24,6.81,1.53,9.89-.79s4.53-5.55,6.37-7.41l2.42-2.49a2.48,2.48,0,0,0,.61-2.38l-.21-.85c-.43-1.78,1.91-9.09,1.91-9.09Z"/><path class="cls-6" d="M334.85,192c3.07,6.64,1.79,13.93-.21,20s-10,12.8-16.91,16.9-17.55,9.09-19.62,10-2.29,2.19-2,6.15-1.05,10.45-5.43,18.57c-4.63,8.58-7.25,14.16-7.25,14.16a9.17,9.17,0,0,1-9.3-2.24s7.39-39.23,9.14-44.41,21.19-22,21.19-22-6.55-11.46-8.1-17.43Z"/><path class="cls-10" d="M280.57,233.64c1.07-5.24,4.9-9.36,8.58-12.86,3-2.85,10.71-9.79,13.39-12.19a32.58,32.58,0,0,1-1.93-5.67s1.53,2.75,2.88,4.82h0l.85,1.24.13.19h0l-.05.05c-1.15,1-19.44,16.9-21.14,21.91-1,2.88-3.68,16.25-5.9,27.58C277.55,257,279.57,238.62,280.57,233.64Z"/></g><path class="cls-9" d="M311.2,137.74,271,133.33s-24.5-14-26.78-18.32c-2.53-4.75-3.32-12.13-4.76-16.59s-6.57,5-3.44,20.22c.45,2.16,3.32,3.26,5.43,5.69,5.77,6.61,15.51,14.17,21.29,18.43a21.94,21.94,0,0,0,10.15,4.08l36.34,4.74Z"/><path class="cls-7" d="M297.74,166.6c-.55,5.05-2.45,26.1-2.45,26.1,10.89,8.78,35.19,6.85,39.61-.21a88.19,88.19,0,0,1-4.81-15.22l3.58-14.6s-6.61-9-.95-21.69l-9.15-1.63-12.71-1.86-5.51-.36s-7.49,8.09-9.53,13.3C294.51,153.79,291.92,159.74,297.74,166.6Z"/><path class="cls-11" d="M331.59,183.14c-.11-.38-.22-.75-.32-1.11-.79-2.86-1.18-4.76-1.18-4.76l3.58-14.6h0l0,0v0c-.07-.06-.31-.59-.46-.76h0c-1-1.18-3.49-4.78-2.69-11.15h0s-2.66,8.84.23,13.07L328,176,324,181.78l4.79-1.88a84.64,84.64,0,0,1,1.89,9c.12,1.73-4,7.43-12.67,9.62,7.79-.34,14.71-2.57,16.88-6h0A82.5,82.5,0,0,1,331.59,183.14Z"/><path class="cls-9" d="M355.47,180.43c-1.91-7.45-9.5-24-11.8-30-2.63-6.83-6.35-9.41-11.24-9.48-1.8,2.32-5,15.48,1.19,21.95,2.36,5,10,19.87,10,19.87-.18,1.34-5.93,18.36-8,22.91a3.61,3.61,0,0,1-1.86,1.79c-2.18,1-3.18,2.11-4.92,3.46-1.36,1.06-2.41,1.21-2.31,1.63a2,2,0,0,0,2.35,1.25,13.59,13.59,0,0,0,3.06-1.11,18.13,18.13,0,0,1-3.64,4.55c-3.32,3-3.14,5.54,2.5,6.43,3.54.56,6.69-1.2,10.53-8.61,1.1-2.13,2.53-5.25,3.64-8.09,2.62-6.7,5.45-10.69,7.27-15.12C355.11,184.84,356.21,183.31,355.47,180.43Z"/><path class="cls-4" d="M312.3,130.58l6.72.19a16.94,16.94,0,0,0,17.39-16.48h0a20.3,20.3,0,0,0-19.74-20.84h0a20.3,20.3,0,0,0-20.84,19.74h0A16.94,16.94,0,0,0,312.3,130.58Z"/><path class="cls-4" d="M333.11,104.43l5-1.77a2.59,2.59,0,0,0-3.33-1.71A2.8,2.8,0,0,0,333.11,104.43Z"/><path class="cls-4" d="M333.16,103.13,334.72,98a2.6,2.6,0,0,0-3.36,1.68A2.8,2.8,0,0,0,333.16,103.13Z"/><path class="cls-9" d="M303.92,102.2c-2.18,1.21-5,6.53-5,17.83,0,9.59,3,12,4.54,12.76s4.56.39,7.5,0l-.08,4.71s-5.24,5-5.06,7.66,6.74,4,10.59,1.54,7.18-7.34,7.18-7.34l.28-13.28s1.68,1.72,4.67-.75c2.46-2,3.37-5.57,1.54-7.52a4.19,4.19,0,0,0-6.71,1.14s-4.06-.65-9.93-4.5A22,22,0,0,1,303.92,102.2Z"/><path class="cls-4" d="M322.4,122.1,324,117a2.59,2.59,0,0,0-3.36,1.67A2.83,2.83,0,0,0,322.4,122.1Z"/><path class="cls-4" d="M310.41,117a1.22,1.22,0,0,0,1.1,1.34,1.25,1.25,0,1,0-1.1-1.34Z"/><path class="cls-8" d="M309.12,126l-2.82.82a1.45,1.45,0,0,0,1.79,1.05A1.54,1.54,0,0,0,309.12,126Z"/><path class="cls-4" d="M300.17,114.13l2.48-1.62a1.42,1.42,0,0,0-2-.47A1.54,1.54,0,0,0,300.17,114.13Z"/><path class="cls-4" d="M300.58,116.75a1.2,1.2,0,1,0,1.3-1.16A1.23,1.23,0,0,0,300.58,116.75Z"/><polygon class="cls-8" points="307.18 116.24 307.04 124.09 303.25 122.8 307.18 116.24"/><path class="cls-8" d="M310.94,132.78c3.09-.32,9.47-2,10.53-4.45a6.46,6.46,0,0,1-2.31,3.14c-1.94,1.57-8.28,3.22-8.28,3.22Z"/><path class="cls-4" d="M346.5,137.82h0a12.59,12.59,0,0,1-12.59-12.59V104.06h0a12.59,12.59,0,0,1,12.59,12.59Z"/></g><g id="Character_3" data-name="Character 3"><g id="Boy"><path class="cls-4" d="M118.21,210.53v53.06a1.49,1.49,0,0,1-.67,1.16l-1.81,1a1.46,1.46,0,0,1-1.35,0l-1.8-1a1.47,1.47,0,0,1-.68-1.16V210.53a.78.78,0,0,1,.78-.78h4.75A.78.78,0,0,1,118.21,210.53Z"/><path class="cls-5" d="M112.68,209.75h1.6a.78.78,0,0,1,.78.78v54.88c0,.42-.3.6-.68.38l-1.8-1a1.47,1.47,0,0,1-.68-1.16V210.53A.78.78,0,0,1,112.68,209.75Z"/><path class="cls-4" d="M148.66,228V281.1a1.47,1.47,0,0,1-.68,1.16l-1.8,1a1.46,1.46,0,0,1-1.35,0l-1.81-1a1.49,1.49,0,0,1-.67-1.16V228a.78.78,0,0,1,.78-.78h4.75A.78.78,0,0,1,148.66,228Z"/><path class="cls-5" d="M143.13,227.26h1.6a.77.77,0,0,1,.77.78v54.88c0,.42-.3.6-.67.38l-1.81-1a1.49,1.49,0,0,1-.67-1.16V228A.78.78,0,0,1,143.13,227.26Z"/><path class="cls-6" d="M146.64,189.09a2.82,2.82,0,0,0,2.47,3.17l.35,0a2.86,2.86,0,0,0,2.83-2.5c1.63-13.1-.7-42.4-6.3-58.91-.58-1.69-2.22-2.06-3.77-1.17h0c-1.18.68-2,1.72-1.59,3C146,148.23,148.21,176.47,146.64,189.09Z"/><path class="cls-5" d="M113.63,196.62a1.6,1.6,0,0,1-.56-.09,1.81,1.81,0,0,1-1.16-2.28c4.2-12.76,24.83-24.11,38.15-24.11a1.81,1.81,0,0,1,0,3.62c-12.05,0-31,10.48-34.71,21.62A1.81,1.81,0,0,1,113.63,196.62Z"/><path class="cls-5" d="M111.69,180.08a1.88,1.88,0,0,1-.57-.09,1.8,1.8,0,0,1-1.15-2.28c4.36-13.26,25.61-24,38.87-22.63a1.81,1.81,0,1,1-.37,3.61c-11.75-1.2-31.24,8.53-35.06,20.15A1.81,1.81,0,0,1,111.69,180.08Z"/><path class="cls-5" d="M107.66,167a1.91,1.91,0,0,1-.73-.15,1.82,1.82,0,0,1-.93-2.39c6.25-14.21,28.45-25.88,40.46-24.22a1.81,1.81,0,0,1-.5,3.59c-10.61-1.47-31.06,9.39-36.64,22.09A1.81,1.81,0,0,1,107.66,167Z"/><path class="cls-6" d="M103.05,151.76a2.84,2.84,0,0,0-1.17,3.59c6.55,15.29,10,34,10,54.42v2.74l.22.23a1.18,1.18,0,0,0,.86.35,3.58,3.58,0,0,0,1.19-.29,4.28,4.28,0,0,1,.58-.19,2.84,2.84,0,0,0,2.84-2.84c0-21.21-3.6-40.66-10.46-56.67a2.84,2.84,0,0,0-4-1.35Z"/><path class="cls-5" d="M111.9,211.84v.7a4.54,4.54,0,0,0,1.68,3.28l30.25,21.86a3.47,3.47,0,0,0,3.47.18L190,213.23a4,4,0,0,0,1.8-3.1v-.72a3.53,3.53,0,0,0-1.88-2.94l-38.28-17.68a4.5,4.5,0,0,0-3.68.17L113.7,208.73A4,4,0,0,0,111.9,211.84Z"/><path class="cls-7" d="M113.7,208.73,147.91,189a4.5,4.5,0,0,1,3.68-.17l38.28,17.68c1,.48,1.07,1.34.08,1.91L147.3,233a3.47,3.47,0,0,1-3.47-.18L113.58,211A1.24,1.24,0,0,1,113.7,208.73Z"/><rect class="cls-12" x="159.08" y="275.16" width="8.38" height="14.59" transform="translate(326.54 564.9) rotate(180)"/><polygon class="cls-12" points="193.2 275.35 201.94 275.82 201.73 274.06 201.66 272.74 200.85 259.93 191.32 260.26 192.68 273.05 192.77 274.04 193.2 275.35"/><path class="cls-4" d="M167.44,287.43v-.72c1.08,0,4.92,8.12,8.59,11.47,2.93,2.67,8.06,6.31,7.94,8.84-.17,3.26-4.82,4.71-8.83,3.76-3.13-.73-7.61-2.63-9.75-4.95s-2.85-5.36-4-6.88-3.71-3.21-4.31-5c-.34-1,.06-3.07.53-4.86.43-1.64.89-3.44,1.45-3.28v1a7.34,7.34,0,0,0,4.63,1.56C165.07,288.46,167.45,288.47,167.44,287.43Z"/><path class="cls-4" d="M201.66,272.74c.44,0,.85.56,1.92,1.53,1.29,1.16,4,2.25,6,3,3.33,1.29,11.84,2.67,14.75,3.67,1.82.63,1.63,3.38-.71,5.13-1.74,1.31-7.52,2.95-12.86,2.25-2.91-.37-7.43-2-9.58-2.09-2.36-.16-6.68-.21-8.52-1.25s-1.38-3.65-1.09-5.89c.31-2.44.28-6.16,1.09-6.07l.09,1c1.16,1.45,6.82,1.36,9,0Z"/><path class="cls-7" d="M125.91,192.83c-1.87,13.17.65,15.7,13.16,28.31,6.73,6.79,21.32,18.41,21.32,18.41s-2.41,5.26-2.5,14.69c-.08,8.3.84,28.21.84,28.21s5.06,2.83,9,.36c0,0,10.12-47.67,9.4-50.72-.52-2.17-16.49-22.75-16.49-22.75l-4.48-2.85,29,17.86s-.88,8-.29,13.09c1.23,10.6,4.09,17.41,7,30.78,0,0,6.92,1.12,10-1.27,0,0,.19-45.78.19-49.82,0-6.14-26.67-24.47-31.72-28.74-2.88-2.44-6.1-5-6.1-5Z"/><path class="cls-13" d="M125.91,192.83c-1.87,13.17.65,15.7,13.16,28.31,6.73,6.79,21.32,18.41,21.32,18.41s-2.41,5.26-2.5,14.69c-.08,8.3.84,28.21.84,28.21s5.06,2.83,9,.36c0,0,10.12-47.67,9.4-50.72-.52-2.17-16.49-22.75-16.49-22.75l-4.48-2.85,29,17.86s-.88,8-.29,13.09c1.23,10.6,4.09,17.41,7,30.78,0,0,6.92,1.12,10-1.27,0,0,.19-45.78.19-49.82,0-6.14-26.67-24.47-31.72-28.74-2.88-2.44-6.1-5-6.1-5Z"/><path class="cls-14" d="M156.11,206.49s4.08-2,7.71-9.71a19.37,19.37,0,0,1-2.5,7.88c-1.62,2.55,23.76,19.69,23.76,19.69Z"/></g><g id="Character"><path class="cls-12" d="M154.74,127.93l41.89-.31s27.78-8.33,30.06-12.61c2.53-4.75,3.32-12.13,4.76-16.59,1.08-3.34,4.07-1.65,3.68,9.48-.1,3,.55,6.91-.24,10.74-.44,2.16-2.76,3.9-5.43,5.69a202.11,202.11,0,0,1-25,13.63c-3.31,1.43-5.34,2.08-11.32,2.47-8.52.55-28.95,1.75-28.95,1.75Z"/><path class="cls-7" d="M152,127.51l25.52-.45s6.1,6.88,1.1,15.12c-.69.35-18.9,1.61-18.9,1.61Z"/><path class="cls-11" d="M152,127.51l25.52-.45s6.1,6.88,1.1,15.12c-.69.35-18.9,1.61-18.9,1.61Z"/><path class="cls-2" d="M138.06,127.8c-1,.25-9.31,2.19-13,3.44v28l.17,35.89c6,6.57,36.41,3.58,40.13-10.39v-42c0-6.71-3.73-14.78-14-15.38Z"/><polygon class="cls-11" points="125.09 165.07 131.17 147.86 125.21 185.72 125.09 165.07"/><path class="cls-4" d="M135.16,93.46a4.59,4.59,0,0,0-3.8,1.33c-1.63,1.67-1.29,4.76,0,11.86l5,.58Z"/><path class="cls-4" d="M164.56,91.41a8,8,0,0,0,3.16-.64c1.54-.89,1.95.86,1.1,2.39a7.21,7.21,0,0,1-5.85,3.9c-.05-.22-1.45-3.94-1.45-3.94Z"/><path class="cls-12" d="M137.53,107.23c-.75.45-1.82-1-2.74-2s-3.94-2.28-5.44.89,1.32,7.49,3.7,8.23c4.08,1.29,4.7-1.34,4.7-1.34l.31,14.75s2.68,6.56,9.93,7.54,5.76-5,3.37-7.93v-4.48a25.88,25.88,0,0,0,5.52.28c3-.47,4.89-2.84,5.81-6.09,1.46-5.23,2.51-9.25,1.26-19.53-1.36-11.27-15-11.59-22-7.14S137.53,107.23,137.53,107.23Z"/><path class="cls-4" d="M137.53,108.49c-.38,0-1.81-2.37-2.74-3.22-1.29-1.17.37-11.81.37-11.81s-1.31-4,1.25-6.71,7.49-2.23,11.11-2.36a32.43,32.43,0,0,0,12.93-2.59c5.13-2.23,5.52-2.5,6.15-.24s.88,7.42-2.18,10.88l-2.55.94s-1.38,1.22-6.17,1.8a70.18,70.18,0,0,1-13.27-.25c-1.39-.19-1.69,1.16-2.44,4.83C139.34,103,138.79,108.47,137.53,108.49Z"/><path class="cls-4" d="M135.17,94.29l-4.53-2.43a2.5,2.5,0,0,1,3.43-1.14A2.71,2.71,0,0,1,135.17,94.29Z"/><path class="cls-15" d="M151.35,122.93s-6.71-1.36-9.06-2.6a7.8,7.8,0,0,1-3.24-3.21,10.57,10.57,0,0,0,1.84,3.78c1.72,2.2,10.46,3.81,10.46,3.81Z"/><path class="cls-4" d="M152.24,105.88a1.35,1.35,0,1,1-1.35-1.4A1.37,1.37,0,0,1,152.24,105.88Z"/><path class="cls-4" d="M151,100.32l-3.19.79a1.72,1.72,0,0,1,1.24-2A1.6,1.6,0,0,1,151,100.32Z"/><path class="cls-15" d="M152.55,114.78l3.07,1.15a1.6,1.6,0,0,1-2.08,1A1.72,1.72,0,0,1,152.55,114.78Z"/><path class="cls-4" d="M163.6,101.13,160.48,100a1.59,1.59,0,0,1,2.07-1A1.74,1.74,0,0,1,163.6,101.13Z"/><path class="cls-4" d="M162.53,105.62a1.36,1.36,0,0,1-1.34,1.39,1.4,1.4,0,1,1,1.34-1.39Z"/><polygon class="cls-15" points="155.31 104.88 155.75 112.97 159.97 111.53 155.31 104.88"/><path class="cls-12" d="M110.62,177.44c-.49-2.4,4.86-26.14,7-33.65L128,154.72l-6.21,23c.09,1.59,1.4,11.09,3.44,16.63a4.29,4.29,0,0,0,2,2.28c2.47,1.32,3.53,2.78,5.45,4.53,1.5,1.37,2.71,1.66,2.56,2.14a2.31,2.31,0,0,1-2.88,1.24,15.66,15.66,0,0,1-3.49-1.6,21.49,21.49,0,0,0,3.85,5.7c3.6,3.86,3.92,6.35-2.8,6.87-4.21.32-7.75-2.05-11.55-11.12-1.09-2.61-2.47-6.41-3.5-9.85A161.9,161.9,0,0,1,110.62,177.44Z"/><path class="cls-7" d="M131.17,147.86c2.09-7.42.47-14.81-2.57-17.67-7.73,1.32-9.69,5-11.81,12.16-3.27,11.08-4.93,18.27-4.93,18.27,1.93,2.57,10.72,5.79,14.33,4.69Z"/><path class="cls-11" d="M131.17,147.86c2.09-7.42.47-14.81-2.57-17.67-7.73,1.32-9.69,5-11.81,12.16-3.27,11.08-4.93,18.27-4.93,18.27,1.93,2.57,10.72,5.79,14.33,4.69Z"/><path class="cls-4" d="M149.33,102.56a3.5,3.5,0,0,0,0,7H150a3.5,3.5,0,0,0,0-7Zm-4.13,3.5a4.17,4.17,0,0,1,4.13-4.21H150a4.21,4.21,0,0,1,0,8.42h-.64A4.17,4.17,0,0,1,145.2,106.06Z"/><path class="cls-4" d="M161.94,102.56a3.5,3.5,0,0,0,0,7h.64a3.5,3.5,0,0,0,0-7Zm-4.13,3.5a4.17,4.17,0,0,1,4.13-4.21h.64a4.21,4.21,0,0,1,0,8.42h-.64A4.17,4.17,0,0,1,157.81,106.06Z"/><path class="cls-4" d="M154.06,105.23a2.71,2.71,0,0,1,2.18-1.14,2.22,2.22,0,0,1,1.91.74l.55-.43a2.81,2.81,0,0,0-2.49-1,3.37,3.37,0,0,0-2.75,1.47Z"/><path class="cls-4" d="M135.16,105.66h10.4V105H134.49A2.52,2.52,0,0,1,135.16,105.66Z"/></g></g><g id="Character_2" data-name="Character 2"><path class="cls-16" d="M396.8,96.86c-9.29-.88-14.75,5.39-17.7,11.72-3.55,7.64-10,24.12-10,24.12s-27.45,4.65-31.12,5.41l2.72,7.74s25.58-.56,29.58-.78c3.52-.19,6.42.37,8.52-3.2s9.85-24.45,9.85-24.45Z"/><path class="cls-5" d="M396.8,96.86s-6.9-1.4-10.73,1.29c-5.07,3.55-6.55,8.1-9.15,13.65s-4.37,10.3-4.37,10.3,7.19,7.77,13.52,6.84S396.8,96.86,396.8,96.86Z"/><path class="cls-16" d="M337.94,138.11c-9.56,1.6-12.6,6.3-14.48,8.8s-2.25,5.7-.08,8.3,3.35,2.14,7.71-2.65c2.32-2.56,4.79-4.34,5.37-4.35s-2,2.82-.6,4.76,2.47-1.57,3.38-2.68a11.73,11.73,0,0,0,2.87-7"/><rect class="cls-16" x="417.78" y="287.44" width="9.48" height="16.24" transform="translate(-8.28 12.21) rotate(-1.64)"/><path class="cls-4" d="M417.88,299.13l0-1.36c-.89.42-2.77,8.53-6.43,12.06-2.92,2.82-6.91,6.08-7.86,9.16s5.83,4.74,8.61,4.17c3.22-.67,8.79-3.12,10.14-5.28s1.92-5.3,3-6.89,3.69-3.39,4.26-5.21c.32-1-.15-3.15-.68-5-.49-1.66-1-3.49-1.59-3.32,0,.21,0,1,0,1a7.42,7.42,0,0,1-4.69,1.74C421.27,300.37,417.9,300.19,417.88,299.13Z"/><polygon class="cls-16" points="400.91 292.14 391.45 292.74 390.48 275.58 400.42 274.97 400.91 292.14"/><path class="cls-4" d="M391.26,289.82c-.49,0-.87.74-1.92,1.94a20.77,20.77,0,0,1-5.46,4.18c-3.5,1.88-10.33,4.81-13.41,6.3-1.93.94-1.77,3.29.29,4.58s6.95,2.11,12.76.63c3.17-.8,7.23-3.86,9.86-3.78s7.54-.09,9.44-1.48,1-4.23.42-6.66c-.67-2.66-1.54-6.81-2.42-6.6l0,.92c-1.09,1.76-7,2.63-9.49,1.43Z"/><path class="cls-7" d="M427.6,166c.26,9.05.17,61.76.17,61.76.29,2.6,2.93,7.16,3.4,16.54.67,13.6-3.5,51.11-3.5,51.11a12.49,12.49,0,0,1-10.55.51s-5.75-50.53-7.83-64C407.47,220.26,404,188.4,404,188.4l-3.37,38.5a53.92,53.92,0,0,1,1.61,15c-.27,6.25-.92,44.88-.92,44.88A13,13,0,0,1,390.44,288s-8.26-54.81-8.54-60.52c-.31-6.52.39-73.12.39-73.12Z"/><path class="cls-13" d="M427.6,166c.26,9.05.17,61.76.17,61.76.29,2.6,2.93,7.16,3.4,16.54.67,13.6-3.5,51.11-3.5,51.11a12.49,12.49,0,0,1-10.55.51s-5.75-50.53-7.83-64C407.47,220.26,404,188.4,404,188.4l-3.37,38.5a53.92,53.92,0,0,1,1.61,15c-.27,6.25-.92,44.88-.92,44.88A13,13,0,0,1,390.44,288s-8.26-54.81-8.54-60.52c-.31-6.52.39-73.12.39-73.12Z"/><path class="cls-14" d="M404,188.4a35.12,35.12,0,0,1-13.42-7.2s2.68,4.7,10.38,8.92L401,223.66Z"/><path class="cls-6" d="M421.9,100.8c2.08.93,3.26,3.93,4.1,6.06.74,1.89,3,5,3,8.58l-1.6,18.2.7,32.57a43.93,43.93,0,0,1-46.27-3.59s1.2-42,1.2-49.39q0-.51,0-1a16.63,16.63,0,0,1,13.11-15.28c2.57-.58,16.64,2.33,16.64,2.33l9.1,1.54Z"/><path class="cls-4" d="M410.11,66.05a13,13,0,1,1-13-13A13,13,0,0,1,410.11,66.05Z"/><path class="cls-4" d="M419.61,75.32s-2.12,9.92-3,11.55a4.48,4.48,0,0,1-2.6,2.1l.15-7Z"/><path class="cls-4" d="M417,61.1a4.86,4.86,0,0,1,4,1.43c1.74,1.78.77,7.34-1.39,12.79l-4,.46Z"/><path class="cls-16" d="M414.43,75.78c.8.48,1.94-1.06,2.92-2.09s4.2-2.43,5.8.94-1.41,8-3.94,8.79c-4.36,1.36-5-1.43-5-1.43l-.32,17.62h0c-5.42,7-20.46,6.42-14.19-.83V92.51a27.4,27.4,0,0,1-5.88.3c-3.2-.5-5.22-3-6.19-6.49-1.56-5.58-2.15-10.08-.83-21,1.45-12,15.42-12.14,23-7.39S414.43,75.78,414.43,75.78Z"/><path class="cls-4" d="M414.43,77.12c.41,0,1.93-2.52,2.92-3.43,1.38-1.25-.39-12.59-.39-12.59a5.36,5.36,0,0,0-1.33-5.73c-1.89-2.08-3.94-3.39-9.38-3.68a107.58,107.58,0,0,0-11.13.53c-5.37.36-7.35-1-10.43-1.83-2.36-.66-2.63,7.86,3.33,10.68,0,0,1.94,1.25,7.05,1.87a75.41,75.41,0,0,0,14.14-.27c1.48-.2,1.8,1.24,2.59,5.15C412.5,71.27,413.09,77.1,414.43,77.12Z"/><path class="cls-4" d="M417,62l4.82-2.59a2.65,2.65,0,0,0-3.65-1.21A2.87,2.87,0,0,0,417,62Z"/><path class="cls-12" d="M399.7,92.51s7.15-1.44,9.65-2.77a8.23,8.23,0,0,0,3.46-3.42,11.31,11.31,0,0,1-2,4c-1.83,2.34-11.15,4.06-11.15,4.06Z"/><path class="cls-4" d="M400.05,74a1.44,1.44,0,1,0,1.43-1.49A1.46,1.46,0,0,0,400.05,74Z"/><path class="cls-4" d="M401.57,68.58l3.07,1.69a1.84,1.84,0,0,0-.72-2.44A1.7,1.7,0,0,0,401.57,68.58Z"/><path class="cls-12" d="M400.35,83.89l-3.28,1.23a1.73,1.73,0,0,0,2.23,1.09A1.85,1.85,0,0,0,400.35,83.89Z"/><path class="cls-4" d="M387.68,69.77l2.8-2.15a1.69,1.69,0,0,0-2.43-.37A1.84,1.84,0,0,0,387.68,69.77Z"/><path class="cls-4" d="M388.54,73.58A1.44,1.44,0,1,0,390,72.09,1.46,1.46,0,0,0,388.54,73.58Z"/><polygon class="cls-12" points="395.85 72.22 395.37 80.85 390.87 79.31 395.85 72.22"/><path class="cls-5" d="M432,87.54c.8-.49,4.76,1.1,7.34,4.19s3.13,7.66,2.46,8.67-10.31-2.48-10.31-2.48Z"/><path class="cls-16" d="M447.52,88.82c-1.31,3.25-17.28,26.23-21.11,31.74-10.65-4.7-3.36-17.19-3.36-17.19s11.47-18.07,13.33-21.12a6.67,6.67,0,0,0,.83-2.52c.25-1.62,1.29-21.52.4-27.55A4.41,4.41,0,0,0,436,49.46c-2.22-1.86-3-3.55-4.55-5.73-1.23-1.69-2.4-2.24-2.14-2.69a2.37,2.37,0,0,1,3.17-.65,17,17,0,0,1,3.19,2.34,22.21,22.21,0,0,0-2.7-6.56c-2.83-4.65-2.63-7.24,4.27-6.35,4.32.56,8.5,4,10.43,13.92a88.06,88.06,0,0,1,.81,10.89c.38,8.42.52,21.74.29,27.56C448.69,85.15,448.83,85.57,447.52,88.82Z"/><path class="cls-5" d="M419.61,100.8,432,87.54s-.29,10.62,9.8,12.86l-13.15,19.81c-1.46,3-7,.2-8.55-6.09C417.91,105.35,419.61,100.8,419.61,100.8Z"/></g><g id="Character_1" data-name="Character 1"><path class="cls-17" d="M63.12,96.11c7.59-.64,10.93,1.57,14.95,7.27,4.85,6.89,14.58,24.13,14.58,24.13s27.84-.28,31.58-.18l-1.3,8.1s-25.28,4-29.25,4.46c-3.5.44-6.26,1.49-9-1.64s-14-22.33-14-22.33Z"/><path class="cls-17" d="M124.23,127.33c9.7-.12,13.52,4,15.81,6.11s3.23,5.21,1.55,8.14-2.92,2.71-8.06-1.24c-2.74-2.11-5.48-3.43-6-3.33s2.44,2.42,1.43,4.57-2.71-1.1-3.8-2a11.72,11.72,0,0,1-4.07-6.43"/><g id="Character-2" data-name="Character"><path class="cls-4" d="M30.92,290.69a49,49,0,0,0-.75,8c-.1,4.84-1,6.56-1.1,10.52-.14,4.54.65,6.23,2.49,8.78s6.67,4.86,8.71.55,1.77-7.12,1.12-11.57c-.67-4.6-.76-7.14-1.15-10.65-.34-3.09-.76-5.44-.76-5.44Z"/><path class="cls-17" d="M44.65,252.67l-15.93-.29c.24,10.63,1.93,28.33,2.2,38.31.06,1.88,0,14.59.67,18.45,1.06,5.81,8,5,8.32,1.55s-.45-18.31-.43-19.85c-.06-6.39,2.94-23.09,4.51-34.57C44.07,255.7,44.58,253.22,44.65,252.67Z"/><path class="cls-4" d="M68.06,282.42s-.83,0-1,.71-.19,2.06-.52,3.37a19.3,19.3,0,0,0-.57,6.31c.28,1.48,3.67,3.7,6,4.08s5.59,2.68,7.4,4.39a17.72,17.72,0,0,0,10.3,4.05c3.87,0,6.56-1.29,7.84-3.36s-1.16-2.32-5.58-5.19l-3.44-2.23c-7-4.57-9.57-7-11.55-11.6Z"/><path class="cls-17" d="M77,279.93c-.12-3.3,1.57-27.55,1.57-27.55l-13.7,1.55c3.24,19.33,3.5,25.91,3.13,28.73h0a2.62,2.62,0,0,0-.09.81c0,3.75,4.26,5.78,7.56,8.28,1.31,1,4.66,4,8.6,5.38,2.54.87,7.25,1.19,7.85-.35-4-3.07-9.5-7.09-12.7-10.6C77.73,284.51,77.15,283.22,77,279.93Z"/><path class="cls-6" d="M35.77,150c-7.21,16.43-3.08,65.87-3.08,65.87-.23,2.65-3.26,7.87-4.39,19.52-1.33,13.78,2.47,50.66,2.47,50.66s3.63,2.72,8.91.19c0,0,9.65-54.19,11.37-67.88,1.51-12,5.73-36.79,5.73-36.79l6.9,36.72a70.94,70.94,0,0,0-2.6,11.8c-.79,8.05,7.06,48.49,7.06,48.49s3.67,1.93,8.89-.18c0,0,3.47-52.23,4.2-61.94,1.22-16.3-3.11-67.15-6.1-76.8Z"/><path class="cls-10" d="M56.78,181.58l1.77-12.17s10.27-1.37,14.93-5.75a16.89,16.89,0,0,1-12.11,7.66l-1.82,11,3.15,31.89Z"/><path class="cls-5" d="M76.47,94H48.74a14.5,14.5,0,0,1-14.5-14.5V69.52A20,20,0,0,1,54.19,49.57h2.33a20,20,0,0,1,19.95,20Z"/><path class="cls-2" d="M47.69,96.42h0c-3.08.21-5.5.64-7.06,1.51a8.82,8.82,0,0,0-4.86,8.26c0,4.19,1,6.89,2.25,13.79l2.51,13.29s-2.31,9.21-5.82,19c12.31,6.87,26.9,5.92,35.57,2.21A17.11,17.11,0,0,0,77,149.7c.21-1.43-1.55-15.06-1.55-22.68,2.9-7.29,3.12-8.87,1.89-13.69-2.28-8.94-11.11-17.66-15-17.34Z"/><path class="cls-18" d="M68.76,155.05h0c-26.32,1.87-27.65-15.3-26.15-17.92s4.51,0,4.51,0-5.75-11-4.69-14.59c2-6.62,2.35-17.31,2.35-17.31l-6.7-5.32a8.9,8.9,0,0,0-2.31,6.28c0,4.19,1,6.89,2.25,13.79l2.51,13.29s-2.31,9.21-5.82,19A42.81,42.81,0,0,0,68.76,155.05Z"/><path class="cls-5" d="M41.51,48.72,42.87,54a2.63,2.63,0,0,1-3.33-1.84A2.84,2.84,0,0,1,41.51,48.72Z"/><path class="cls-5" d="M37.41,51.05l4.51,3a2.62,2.62,0,0,1-3.69.87A2.84,2.84,0,0,1,37.41,51.05Z"/><path class="cls-17" d="M69.1,58.55c2.23,1.32,5,6.92,4.72,18.68-.23,10-3.46,12.43-5.09,13.14s-4.75.28-7.79-.23v6s4.2,4.88,3.94,7.62-6.07,3.4-10,.72a25.59,25.59,0,0,1-6.46-6.76V82.2s-2,2.23-5.33,0A5.73,5.73,0,0,1,42,73.62a4,4,0,0,1,6.45,1.79s4.85.17,11.31-3.37A18.16,18.16,0,0,0,69.1,58.55Z"/><path class="cls-4" d="M61.57,74.73a1.26,1.26,0,0,1-1.18,1.36,1.29,1.29,0,0,1-1.32-1.24,1.25,1.25,0,1,1,2.5-.12Z"/><path class="cls-19" d="M63,83.18l2.91.92A1.49,1.49,0,0,1,64,85.15,1.61,1.61,0,0,1,63,83.18Z"/><path class="cls-4" d="M71.85,70.88l-2.54-1.76a1.49,1.49,0,0,1,2.11-.43A1.63,1.63,0,0,1,71.85,70.88Z"/><path class="cls-4" d="M71.26,73.82a1.26,1.26,0,0,1-1.18,1.36,1.3,1.3,0,1,1,1.18-1.36Z"/><polygon class="cls-19" points="65.14 73.11 65.34 80.65 69.31 79.42 65.14 73.11"/><path class="cls-19" d="M60.94,90.14c-3.2-.42-9.8-2.31-10.82-4.92a6.74,6.74,0,0,0,2.31,3.33c2,1.68,8.51,3.59,8.51,3.59Z"/></g><path class="cls-7" d="M51.84,181.48a.47.47,0,0,1-.2.45l-.53.31L21.55,164.8a1.56,1.56,0,0,1-.69-1.21v-31l31,17.9Z"/><path class="cls-10" d="M51.84,181.48a.47.47,0,0,1-.2.45l-.53.31L21.55,164.8a1.56,1.56,0,0,1-.69-1.21v-31l31,17.9Z"/><path class="cls-7" d="M51.32,181.79c0,.44-.31.62-.69.4L21,165.1a1.54,1.54,0,0,1-.69-1.21v-31l31,17.9Z"/><path class="cls-20" d="M51.32,181.79c0,.44-.31.62-.69.4L21,165.1a1.54,1.54,0,0,1-.69-1.21v-31l31,17.9Z"/><path class="cls-18" d="M19.92,140.26v23a1.52,1.52,0,0,0,.7,1.2l27.3,15.76,0,3,2.66-1.53v-.06c.2,0,.35-.18.35-.48V154.82l-31-17.91L17,138.58Z"/><path class="cls-21" d="M48,182.78c0,.45-.31.63-.69.4L17.72,166.1a1.58,1.58,0,0,1-.7-1.21V138.58l31,17.91Z"/><polygon class="cls-3" points="48.01 156.49 50.9 154.82 19.92 136.91 17.02 138.58 48.01 156.49"/><path class="cls-4" d="M46.69,156.82a1.18,1.18,0,0,1,.21.18.79.79,0,0,1,.19.36.35.35,0,0,1,0,.14c0,.23-.19.32-.43.18a1,1,0,0,1-.27-.27.77.77,0,0,1-.15-.41s0,0,0-.05C46.3,156.75,46.47,156.69,46.69,156.82Z"/><path class="cls-4" d="M45.28,155.8a2,2,0,0,0,.24,1,1.23,1.23,0,0,0,.9.62,1.41,1.41,0,0,0,.67,0,.79.79,0,0,0-.19-.36.88.88,0,0,1-.63-.05,1.15,1.15,0,0,1-.59-1.15,3.84,3.84,0,0,1,1.72-3c1-.54,1.72-.12,1.73,1l.39.23a1.48,1.48,0,0,0,0-.21,1.9,1.9,0,0,0-.24-1h0a1.24,1.24,0,0,0-.91-.63,1.89,1.89,0,0,0-1.18.27A4.23,4.23,0,0,0,45.28,155.8Z"/><path class="cls-7" d="M45,154.92,47,184.6l.37-.21a.77.77,0,0,0,.35-.61l-2.25-29.16Z"/><path class="cls-10" d="M45,154.92,47,184.6l.37-.21a.77.77,0,0,0,.35-.61l-2.25-29.16Z"/><path class="cls-7" d="M47.22,184.16c0,.44-.31.62-.7.4L16.93,167.47a1.52,1.52,0,0,1-.7-1.21L14,136.55l31,17.91Z"/><polygon class="cls-7" points="51.84 150.48 20.86 132.58 13.96 136.56 44.96 154.46 51.84 150.48"/><polygon class="cls-11" points="51.84 150.48 20.86 132.58 13.96 136.56 44.96 154.46 51.84 150.48"/><path class="cls-6" d="M44.36,147.74a1.23,1.23,0,0,1,.09,1.1,1.83,1.83,0,0,1-.82.89,4.22,4.22,0,0,1-3.85,0,2,2,0,0,1-.73-.7,1.43,1.43,0,0,1,.73-2,4.22,4.22,0,0,1,3.85,0,2,2,0,0,1,.73.7Z"/><path class="cls-2" d="M43.43,149.38a1.05,1.05,0,0,0,0-2,3.81,3.81,0,0,0-3.45,0,1.05,1.05,0,0,0,0,2A3.81,3.81,0,0,0,43.43,149.38Z"/><path class="cls-2" d="M36.84,146l.52-.3a1.16,1.16,0,0,0,0-2.19l-13.43-7.75a4.13,4.13,0,0,0-3.78,0l-.53.3a1.15,1.15,0,0,0,0,2.18L33.06,146A4.19,4.19,0,0,0,36.84,146Z"/><polygon class="cls-7" points="51.85 150.96 44.99 154.92 44.96 154.46 51.84 150.48 51.85 150.96"/><polygon class="cls-10" points="51.85 150.96 44.99 154.92 44.96 154.46 51.84 150.48 51.85 150.96"/><path class="cls-17" d="M43.85,97c-7.26.11-11.11.55-13.76,10-2,7-6.83,23.59-8.22,30.57-.64,3.2.07,16,1.05,30.53.17,2.55.18,5.47,1.6,6.88,3.16,3.12,9.79,5.05,10.46,3l-4.07-2.36,1.89-34.69,8.36-23C40.66,119.65,47.42,104.26,43.85,97Z"/><path class="cls-17" d="M31.76,159.88c.26,1.65,1.91,4.05,3.17,6.21,1.06,1.83,1.83,5.16,2.34,5.74s-.85,1.7-2.53.27-2.23-3.16-2.86-4l.37,8.22-4.23-1Z"/></g><g id="Speach_Bubbles" data-name="Speach Bubbles"><path class="cls-7" d="M150.2,70.47l-3.77-7.08,3-8.73V49.31l-9.26,5.35V60l4,6.9a.52.52,0,0,0,.27.24h0Z"/><path class="cls-22" d="M150.2,70.47l-3.77-7.08,3-8.73V49.31l-9.26,5.35V60l4,6.9a.52.52,0,0,0,.27.24h0Z"/><path class="cls-7" d="M172.32,6.78A6.13,6.13,0,0,0,169.54,2L167.28.66a6.16,6.16,0,0,0-5.55,0L127,20.73a6.14,6.14,0,0,0-2.78,4.81V63.7A6.14,6.14,0,0,0,127,68.51l2.26,1.31a6.12,6.12,0,0,0,5.56,0L146,63.37l4,6.89a.59.59,0,0,0,1.07-.1L155.26,58l14.28-8.27A6.13,6.13,0,0,0,172.32,45Z"/><path class="cls-22" d="M124.26,63.7A6.14,6.14,0,0,0,127,68.51l2.26,1.31a6.2,6.2,0,0,0,5.08.22c-1.3.5-2.3-.24-2.3-1.82V30.05a5.73,5.73,0,0,1,.81-2.74l-7.81-4.51a5.6,5.6,0,0,0-.82,2.74Z"/><path class="cls-23" d="M172.23,6c-.32-1.18-1.4-1.55-2.68-.81L134.86,25.24a5.4,5.4,0,0,0-2,2.08l-7.81-4.51a5.53,5.53,0,0,1,2-2.08L161.72.67a6.12,6.12,0,0,1,5.56,0L169.55,2A6.14,6.14,0,0,1,172.23,6Z"/><path class="cls-21" d="M166.11,33.85h0a.38.38,0,0,0-.19-.05l-2.66-.15a.44.44,0,0,1-.45-.43c0-.42.06-.84.06-1.24a11.48,11.48,0,0,0-.05-1.32,1.27,1.27,0,0,1,.29-.79l3-3.59a.79.79,0,0,0,.18-.73l-1.41-3.12a.39.39,0,0,0-.08-.1h0a.45.45,0,0,0-.45.15l-3.17,2.89a.55.55,0,0,1-.69.11,5.11,5.11,0,0,0-1.36-.78.52.52,0,0,1-.31-.56l1-4.43a.27.27,0,0,0-.13-.31.48.48,0,0,0-.3-.05l-3.09.3a.86.86,0,0,0-.68.48l-1.68,4.5a1.41,1.41,0,0,1-.67.65,13.54,13.54,0,0,0-1.92,1.11c-.26.18-.55.19-.67,0L149,24c-.11-.17-.37-.14-.57.07l-3.4,3.6a.86.86,0,0,0-.26.74l.94,3.21a1.09,1.09,0,0,1-.17.77A26.32,26.32,0,0,0,144,35.07a1.27,1.27,0,0,1-.74.55l-2.91.7a1,1,0,0,0-.66.55l-1.46,4.93a.34.34,0,0,0,.36.44l2.66.15a.43.43,0,0,1,.44.44,13.68,13.68,0,0,0,0,2.56,1.28,1.28,0,0,1-.29.78l-3,3.59a.83.83,0,0,0-.18.74l1.41,3.11a.18.18,0,0,0,.09.1h0l.11,0h0a.53.53,0,0,0,.35-.16l3.16-2.89a.57.57,0,0,1,.7-.12,4.83,4.83,0,0,0,1.35.79.49.49,0,0,1,.32.55l-1,4.44a.28.28,0,0,0,.13.3h0a.51.51,0,0,0,.29.05l3.1-.31a.85.85,0,0,0,.67-.47l1.68-4.5a1.5,1.5,0,0,1,.68-.66c.32-.15.66-.33,1-.52s.62-.37.94-.59.55-.19.66,0l1.59,2.42.07.07A.42.42,0,0,0,156,52l3.41-3.59a.92.92,0,0,0,.26-.75l-1-3.2a1.08,1.08,0,0,1,.18-.77A25.44,25.44,0,0,0,160.5,41a1.22,1.22,0,0,1,.74-.55l2.9-.7a.92.92,0,0,0,.66-.55l1.47-4.92A.32.32,0,0,0,166.11,33.85Zm-15.52,12-.17,0-.12,0L150,46l-.32,0h-.29a3.11,3.11,0,0,1-2.92-2,5.22,5.22,0,0,1-.42-1.62,6.6,6.6,0,0,1,0-.9,13.85,13.85,0,0,1,3.84-8.8,10.62,10.62,0,0,1,2.34-1.9,5.87,5.87,0,0,1,.79-.4,4.93,4.93,0,0,1,2.19-.47h.25l.12,0A3.1,3.1,0,0,1,158,32c1.32,2.91-.19,8-3.36,11.33A8.85,8.85,0,0,1,150.59,45.89Z"/><path class="cls-7" d="M313.63,70.47l3.76-7.08-3-8.73V49.31l9.27,5.35V60l-4,6.9a.56.56,0,0,1-.27.24h0Z"/><path class="cls-22" d="M313.63,70.47l3.76-7.08-3-8.73V49.31l9.27,5.35V60l-4,6.9a.56.56,0,0,1-.27.24h0Z"/><path class="cls-7" d="M291.5,6.78A6.16,6.16,0,0,1,294.28,2L296.54.66a6.18,6.18,0,0,1,5.56,0l34.68,20.07a6.12,6.12,0,0,1,2.78,4.81V63.7a6.12,6.12,0,0,1-2.78,4.81l-2.26,1.31a6.1,6.1,0,0,1-5.55,0l-11.16-6.45-4,6.89a.6.6,0,0,1-1.08-.1L308.56,58l-14.28-8.27A6.16,6.16,0,0,1,291.5,45Z"/><path class="cls-22" d="M339.56,63.7a6.12,6.12,0,0,1-2.78,4.81l-2.26,1.31a6.19,6.19,0,0,1-5.08.22c1.31.5,2.3-.24,2.3-1.82V30.05a5.74,5.74,0,0,0-.82-2.74l7.82-4.51a5.69,5.69,0,0,1,.81,2.74Z"/><path class="cls-23" d="M291.59,6c.33-1.18,1.4-1.55,2.69-.81L329,25.24a5.55,5.55,0,0,1,2,2.08l7.81-4.51a5.55,5.55,0,0,0-2-2.08L302.1.67a6.12,6.12,0,0,0-5.56,0L294.28,2A6.19,6.19,0,0,0,291.59,6Z"/><path class="cls-21" d="M315.27,56.64l-4.92-2.84a1.4,1.4,0,0,1-.58-1.11V50.62c0-.43.26-.62.58-.44L315.27,53a1.36,1.36,0,0,1,.58,1.1V56.2C315.85,56.63,315.59,56.83,315.27,56.64Z"/><path class="cls-21" d="M308.94,35.83a4.69,4.69,0,0,1,.88,1.8,2.4,2.4,0,0,1-1-1.05c-.06-.12-.25-.53-.09-.73S308.87,35.78,308.94,35.83Z"/><path class="cls-21" d="M312.81,34.94a.49.49,0,0,1,.25.37,2,2,0,0,1-.25,1.26,3.38,3.38,0,0,1-.24-1.54C312.6,34.91,312.65,34.85,312.81,34.94Z"/><path class="cls-21" d="M316.69,40.3l0,0a.52.52,0,0,1,.19.27.54.54,0,0,1-.09.63c-.21.17-.57.16-1-.14C316.14,40.44,316.47,40.24,316.69,40.3Z"/><path class="cls-21" d="M305.06,31.8c0,8.21,5.08,12.51,5.08,15.82h0V49l5.35,3.09V50.71c0-3.31,5.08-1.74,5.08-10,0-5.71-3.47-12.35-7.76-14.82S305.06,26.09,305.06,31.8Zm3.13,3.25c.22-.27.54-.26.87,0a6.16,6.16,0,0,1,1.42,2.77,2.07,2.07,0,0,0,.74-.05,2.48,2.48,0,0,0,1.2-.68,5.27,5.27,0,0,1-.47-2.67.52.52,0,0,1,.86-.35,2,2,0,0,1,.86,1.35,2.91,2.91,0,0,1-.46,2.12,12,12,0,0,0,1.19,2.06,7.77,7.77,0,0,0,.74.91c.43-.89.92-1.29,1.42-1.13a1.57,1.57,0,0,1,.87,1,1.52,1.52,0,0,1-.13,1.69c-.37.31-1,.26-1.79-.34a12.19,12.19,0,0,0-.48,1.72,34.94,34.94,0,0,0-.64,6.6c0,.23-.14.35-.31.25a.76.76,0,0,1-.33-.61,35.57,35.57,0,0,1,.66-6.8,14.52,14.52,0,0,1,.47-1.73,10.74,10.74,0,0,1-.82-1A14.3,14.3,0,0,1,312.81,38a2.71,2.71,0,0,1-1.25.68,2.29,2.29,0,0,1-.82.06c.18.69.34,1.45.47,2.27a44.46,44.46,0,0,1,.66,7.57c0,.23-.14.33-.32.23h0a.78.78,0,0,1-.32-.62,44.7,44.7,0,0,0-.64-7.33,22.6,22.6,0,0,0-.48-2.27,3.53,3.53,0,0,1-1.78-1.73A1.9,1.9,0,0,1,308.19,35.05Z"/><path class="cls-21" d="M312.81,23a1.76,1.76,0,0,1-.67-1.42V19.24c0-.56.3-.85.67-.64a1.76,1.76,0,0,1,.67,1.42V22.3C313.48,22.87,313.18,23.16,312.81,23Z"/><path class="cls-21" d="M307.86,22.13a1.53,1.53,0,0,1-.58-.85l-.74-2.41c-.19-.6-.08-1.16.24-1.26s.73.3.92.9l.74,2.41c.19.6.08,1.17-.25,1.27A.41.41,0,0,1,307.86,22.13Z"/><path class="cls-21" d="M304.24,25.62a1.05,1.05,0,0,1-.34-.33l-1.29-1.89a1.78,1.78,0,0,1-.24-1.55c.18-.38.59-.31.91.15l1.29,1.89a1.79,1.79,0,0,1,.25,1.55A.38.38,0,0,1,304.24,25.62Z"/><path class="cls-21" d="M302.91,32.48l-1.49-.86a1.76,1.76,0,0,1-.67-1.42c0-.57.3-.85.67-.64l1.49.86a1.76,1.76,0,0,1,.67,1.41C303.58,32.4,303.28,32.69,302.91,32.48Z"/><path class="cls-21" d="M303,41.27a1.48,1.48,0,0,1-.58-.85c-.19-.6-.07-1.17.24-1.27l1.29-.4c.32-.1.73.31.92.91s.07,1.16-.25,1.26l-1.29.4A.37.37,0,0,1,303,41.27Z"/><path class="cls-21" d="M322.68,52.66a1.17,1.17,0,0,1-.34-.33l-1.29-1.89a1.78,1.78,0,0,1-.24-1.55c.18-.38.59-.32.91.15L323,50.93a1.79,1.79,0,0,1,.25,1.55A.38.38,0,0,1,322.68,52.66Z"/><path class="cls-21" d="M324.2,44.77l-1.48-.86a1.74,1.74,0,0,1-.67-1.41c0-.57.3-.86.67-.65l1.48.86a1.76,1.76,0,0,1,.67,1.42C324.87,44.7,324.57,45,324.2,44.77Z"/><path class="cls-21" d="M321.39,35.52a1.45,1.45,0,0,1-.58-.85c-.19-.6-.07-1.16.24-1.26l1.29-.4c.32-.1.73.3.92.9s.07,1.17-.25,1.27l-1.29.4A.4.4,0,0,1,321.39,35.52Z"/><path class="cls-21" d="M317.76,27.85a1.15,1.15,0,0,1-.33-.33,1.79,1.79,0,0,1-.25-1.55l.75-1.55c.18-.39.59-.32.91.15a1.79,1.79,0,0,1,.25,1.55l-.75,1.55A.38.38,0,0,1,317.76,27.85Z"/></g><g id="Desk"><g id="Table"><path class="cls-5" d="M232.43,302v77.61a2.25,2.25,0,0,0,1,1.75l2.14,1.23a2.25,2.25,0,0,0,2,0l2.14-1.23a2.25,2.25,0,0,0,1-1.75V302c0-.65-.45-.91-1-.59l-2.15,1.24a2.22,2.22,0,0,1-2,0l-2.14-1.24C232.88,301.12,232.43,301.38,232.43,302Z"/><path class="cls-6" d="M237.59,382.62l2.14-1.23a2.25,2.25,0,0,0,1-1.75V302c0-.65-.45-.91-1-.59l-2.15,1.24a2.23,2.23,0,0,0-1,1.74V382C236.58,382.68,237,382.94,237.59,382.62Z"/><path class="cls-5" d="M119.13,236.63v77.62a2.21,2.21,0,0,0,1,1.74l2.14,1.24a2.22,2.22,0,0,0,2,0l2.14-1.24a2.21,2.21,0,0,0,1-1.74V236.63c0-.64-.45-.9-1-.58l-2.14,1.24a2.22,2.22,0,0,1-2,0l-2.14-1.24C119.58,235.73,119.13,236,119.13,236.63Z"/><path class="cls-6" d="M124.29,317.23l2.14-1.24a2.21,2.21,0,0,0,1-1.74V236.63c0-.64-.45-.9-1-.58l-2.14,1.24a2.23,2.23,0,0,0-1,1.74v77.62C123.29,317.29,123.74,317.55,124.29,317.23Z"/><path class="cls-5" d="M330,245.67v77.62a2.23,2.23,0,0,0,1,1.74l2.14,1.24a2.25,2.25,0,0,0,2,0l2.14-1.24a2.23,2.23,0,0,0,1-1.74V245.67c0-.64-.45-.9-1-.58l-2.14,1.24a2.25,2.25,0,0,1-2,0L331,245.09C330.43,244.77,330,245,330,245.67Z"/><path class="cls-6" d="M335.14,326.27l2.14-1.24a2.23,2.23,0,0,0,1-1.74V245.67c0-.64-.45-.9-1-.58l-2.14,1.24a2.21,2.21,0,0,0-1,1.74v77.62C334.13,326.33,334.58,326.59,335.14,326.27Z"/><g id="Desk-2" data-name="Desk"><path class="cls-7" d="M99.28,243.73V243a4.07,4.07,0,0,1,1.83-3.18l124.22-71.75a4.09,4.09,0,0,1,3.67,0l121,69.85a4.07,4.07,0,0,1,1.83,3.18v.73A4.07,4.07,0,0,1,350,245L225.81,316.75a4,4,0,0,1-3.66,0l-121-69.85A4.07,4.07,0,0,1,99.28,243.73Z"/><g class="cls-24"><path class="cls-21" d="M99.28,243.73V243a4.07,4.07,0,0,1,1.83-3.18l124.22-71.75a4.09,4.09,0,0,1,3.67,0l121,69.85a4.07,4.07,0,0,1,1.83,3.18v.73A4.07,4.07,0,0,1,350,245L225.81,316.75a4,4,0,0,1-3.66,0l-121-69.85A4.07,4.07,0,0,1,99.28,243.73Z"/></g><path class="cls-7" d="M224,312.23v5a3.84,3.84,0,0,1-1.83-.44l-121-69.85a4.05,4.05,0,0,1-1.83-3.17V243a4.07,4.07,0,0,1,1.49-2.94c-.66.57-.55,1.36.34,1.88l121,69.85A3.68,3.68,0,0,0,224,312.23Z"/><g class="cls-25"><path class="cls-21" d="M224,312.23v5a3.84,3.84,0,0,1-1.83-.44l-121-69.85a4.05,4.05,0,0,1-1.83-3.17V243a4.07,4.07,0,0,1,1.49-2.94c-.66.57-.55,1.36.34,1.88l121,69.85A3.68,3.68,0,0,0,224,312.23Z"/></g><path class="cls-7" d="M101.11,241.94l121,69.85a4.07,4.07,0,0,0,3.66,0L350,240a1.12,1.12,0,0,0,0-2.12L229,168.07a4.09,4.09,0,0,0-3.67,0L101.11,239.82A1.12,1.12,0,0,0,101.11,241.94Z"/><g class="cls-26"><path class="cls-21" d="M101.11,241.94l121,69.85a4.07,4.07,0,0,0,3.66,0L350,240a1.12,1.12,0,0,0,0-2.12L229,168.07a4.09,4.09,0,0,0-3.67,0L101.11,239.82A1.12,1.12,0,0,0,101.11,241.94Z"/></g><polyline id="Shadow-6" data-name="Shadow" class="cls-27" points="314.6 231.63 316.67 229.19 312.36 230.33"/></g></g><g id="Green_Laptop" data-name="Green Laptop"><path class="cls-7" d="M240.44,213.34v.58a2.41,2.41,0,0,0,1.2,2.08l41.88,24.18a2.43,2.43,0,0,0,1.19.31,2.48,2.48,0,0,0,1.21-.31L308.75,227a2.41,2.41,0,0,0,1.19-2.08v-.8h0a.28.28,0,0,1-.15.26l-25.07,14.48Z"/><g class="cls-28"><path d="M240.44,213.34v.58a2.41,2.41,0,0,0,1.2,2.08l41.88,24.18a2.43,2.43,0,0,0,1.19.31,2.48,2.48,0,0,0,1.21-.31L308.75,227a2.41,2.41,0,0,0,1.19-2.08v-.8h0a.28.28,0,0,1-.15.26l-25.07,14.48Z"/></g><path class="cls-7" d="M240.44,213.34,265.27,199a1.41,1.41,0,0,1,1.43,0l43.08,24.87a.32.32,0,0,1,0,.55L284.72,238.9Z"/><path class="cls-7" d="M240.44,213.34,265.27,199a1.41,1.41,0,0,1,1.43,0l43.08,24.87a.32.32,0,0,1,0,.55L284.72,238.9Z"/><g class="cls-29"><path d="M240.44,213.34,265.27,199a1.41,1.41,0,0,1,1.43,0l43.08,24.87a.32.32,0,0,1,0,.55L284.72,238.9Z"/></g><g class="cls-28"><polygon points="284.94 236.8 298.34 229.07 259.17 206.46 245.71 214.14 284.94 236.8"/></g><polygon class="cls-7" points="245.71 214.14 246.22 214.44 259.18 207.05 297.82 229.37 298.34 229.07 259.18 206.46 245.71 214.14"/><g class="cls-30"><polygon points="245.71 214.14 246.22 214.44 259.18 207.05 297.82 229.37 298.34 229.07 259.18 206.46 245.71 214.14"/></g><g class="cls-30"><polygon points="291.53 215.31 291.28 215.45 284.71 219.24 273.04 212.5 272.8 212.36 279.61 208.43 291.53 215.31"/></g><polygon class="cls-7" points="291.28 215.45 284.71 219.24 273.04 212.5 279.61 208.71 291.28 215.45"/><g class="cls-25"><polygon points="291.28 215.45 284.71 219.24 273.04 212.5 279.61 208.71 291.28 215.45"/></g><path class="cls-7" d="M284.72,238.9v1.6a2.42,2.42,0,0,1-1.2-.32L241.64,216a2.41,2.41,0,0,1-1.2-2.08v-.58Z"/><path class="cls-7" d="M284.72,238.9v1.6a2.42,2.42,0,0,1-1.2-.32L241.64,216a2.41,2.41,0,0,1-1.2-2.08v-.58Z"/><g class="cls-30"><path d="M284.72,238.9v1.6a2.42,2.42,0,0,1-1.2-.32L241.64,216a2.41,2.41,0,0,1-1.2-2.08v-.58Z"/></g><path class="cls-7" d="M284,239.26a2.87,2.87,0,0,1-2.44-.19L239.9,215a2.82,2.82,0,0,1-1.38-2L234,185.79a2.49,2.49,0,0,1,0-.47,2.82,2.82,0,0,1,.84-2l43.33,25a2.11,2.11,0,0,1,1,1.47Z"/><path class="cls-7" d="M284.72,238.9l-.29.17-.39.19-4.93-29.46a2.11,2.11,0,0,0-1-1.47l-43.33-25a2.48,2.48,0,0,1,.57-.44l43.42,25.06a2.09,2.09,0,0,1,1,1.47Z"/><g class="cls-31"><path d="M284.72,238.9l-.29.17-.39.19-4.93-29.46a2.11,2.11,0,0,0-1-1.47l-43.33-25a2.48,2.48,0,0,1,.57-.44l43.42,25.06a2.09,2.09,0,0,1,1,1.47Z"/></g><path class="cls-32" d="M278.7,208.88l.68-.38a2.08,2.08,0,0,1,.39.9l5,29.5-.29.17-.39.19-4.93-29.46A2.07,2.07,0,0,0,278.7,208.88Z"/><g class="cls-28"><path d="M260.56,214.13a9.2,9.2,0,0,0-4.21-5.41c-2-1.16-3.4-.63-3.09,1.19s2.19,4.25,4.2,5.41S260.86,216,260.56,214.13Z"/></g></g><g id="Black_Laptop" data-name="Black Laptop"><path class="cls-5" d="M141.08,222.38v.78a2.32,2.32,0,0,0,1.15,2l22.18,12.76a2.34,2.34,0,0,0,2.33,0l40.67-23.48a2.33,2.33,0,0,0,1.17-2v-.57l-43,24.83-24.35-14.06A.29.29,0,0,1,141.08,222.38Z"/><path class="cls-6" d="M208.58,211.87,184.46,198a1.38,1.38,0,0,0-1.39,0l-41.84,24.16a.31.31,0,0,0,0,.53l24.35,14.06Z"/><g class="cls-29"><path class="cls-4" d="M208.58,211.87,184.46,198a1.38,1.38,0,0,0-1.39,0l-41.84,24.16a.31.31,0,0,0,0,.53l24.35,14.06Z"/></g><polygon class="cls-4" points="165.35 234.65 152.34 227.15 190.38 205.19 203.46 212.65 165.35 234.65"/><polygon class="cls-4" points="158.96 213.78 159.2 213.92 165.57 217.6 176.91 211.05 177.15 210.92 170.53 207.1 158.96 213.78"/><polygon class="cls-5" points="159.2 213.92 165.57 217.6 176.91 211.05 170.53 207.37 159.2 213.92"/><g class="cls-25"><polygon class="cls-4" points="159.2 213.92 165.57 217.6 176.91 211.05 170.53 207.37 159.2 213.92"/></g><path class="cls-5" d="M165.58,236.7v1.54a2.32,2.32,0,0,0,1.16-.31l40.67-23.48a2.32,2.32,0,0,0,1.17-2v-.57Z"/><g class="cls-33"><path class="cls-4" d="M165.58,236.7v1.54a2.32,2.32,0,0,0,1.16-.31l40.67-23.48a2.32,2.32,0,0,0,1.17-2v-.57Z"/></g><path class="cls-6" d="M166.23,237a2.74,2.74,0,0,0,2.37-.18l40.5-23.38a2.79,2.79,0,0,0,1.34-1.93l4.43-26.44a2.28,2.28,0,0,0,0-.45,2.76,2.76,0,0,0-.81-2L172,207a2.07,2.07,0,0,0-1,1.43Z"/><g class="cls-29"><path class="cls-4" d="M166.23,237a2.74,2.74,0,0,0,2.37-.18l40.5-23.38a2.79,2.79,0,0,0,1.34-1.93l4.43-26.44a2.28,2.28,0,0,0,0-.45,2.76,2.76,0,0,0-.81-2L172,207a2.07,2.07,0,0,0-1,1.43Z"/></g><path class="cls-6" d="M165.58,236.7l.27.16a2.64,2.64,0,0,0,.38.18L171,208.43a2.07,2.07,0,0,1,1-1.43l42.09-24.3a3.55,3.55,0,0,0-.57-.43l-42.17,24.35a2.06,2.06,0,0,0-1,1.43Z"/><path class="cls-34" d="M171,208.4,166.23,237a2.64,2.64,0,0,1-.38-.18l-.27-.16,4.8-28.65a1.87,1.87,0,0,1,.31-.79l.65.38A2,2,0,0,0,171,208.4Z"/><path class="cls-7" d="M189,212.63a8.94,8.94,0,0,1,4.08-5.25c2-1.13,3.3-.61,3,1.16a9,9,0,0,1-4.08,5.25C190.09,214.92,188.74,214.4,189,212.63Z"/></g><g id="Notebooks"><path class="cls-4" d="M135.72,231.18,116.6,241.25l-.39.62v.49a.71.71,0,0,0,.39.62l25.2,14.55a1.35,1.35,0,0,0,1.31,0l18.7-10.79v-.5Z"/><path class="cls-6" d="M142.46,257.2a1.37,1.37,0,0,1-.66-.16l-25.2-14.55a.72.72,0,0,1-.39-.62.71.71,0,0,1,.39-.62l18.28-10.56,26.93,15.55L143.11,257A1.36,1.36,0,0,1,142.46,257.2Z"/><path class="cls-18" d="M134.88,229.23l-18.07,10.44-.19.26v1.94h0a.33.33,0,0,0,.19.26L142,256.68a1,1,0,0,0,.89,0L161,246.24V244.3Z"/><path class="cls-35" d="M161,244.3l-.23.13-2.94,1.7-.55.32-14.35,8.29a1,1,0,0,1-.9,0L116.8,240.19a.28.28,0,0,1,0-.52l.25-.14,17.83-10.3,25.87,14.94.06,0Z"/><path class="cls-36" d="M142.46,254.84v1.94a.91.91,0,0,1-.45-.1L116.8,242.13a.33.33,0,0,1-.18-.26v-1.94a.33.33,0,0,0,.18.26L142,254.74A.91.91,0,0,0,142.46,254.84Z"/><path class="cls-21" d="M161,244l-3.26,1.88-.51.3-14.3,8.26a1,1,0,0,1-.9,0l-22.57-13-.57-.33a5.49,5.49,0,0,1-1.82-1.59l0-.07a.24.24,0,0,1,0-.13.4.4,0,0,1,.31-.46,8,8,0,0,0,1.7-.71h0L134.88,229Z"/><path class="cls-11" d="M157.61,243.82a.25.25,0,0,0,0,.48.89.89,0,0,0,.84,0,.25.25,0,0,0,0-.48A.89.89,0,0,0,157.61,243.82Z"/><path class="cls-4" d="M160.3,242.25a1.11,1.11,0,0,0-1.13.07,3.55,3.55,0,0,0-1.41,2,.78.78,0,0,0,.31,0,3.18,3.18,0,0,1,1.26-1.81,1.09,1.09,0,0,1,.51-.15.64.64,0,0,1,.31.07,1.16,1.16,0,0,1,.42,1,2,2,0,0,1,0,.25l.29.17a3,3,0,0,0,0-.42A1.43,1.43,0,0,0,160.3,242.25Z"/><path class="cls-4" d="M160.82,244.13s0,.05,0,.08l-.06,0Z"/><path class="cls-11" d="M155.08,242.36a.25.25,0,0,0,0,.48.89.89,0,0,0,.84,0,.25.25,0,0,0,0-.48A.89.89,0,0,0,155.08,242.36Z"/><path class="cls-4" d="M157.78,240.79a1.09,1.09,0,0,0-1.13.08,3.51,3.51,0,0,0-1.42,2,.67.67,0,0,0,.31,0,3.19,3.19,0,0,1,1.27-1.81,1.06,1.06,0,0,1,.51-.15.52.52,0,0,1,.3.08,1.13,1.13,0,0,1,.43,1,2,2,0,0,1,0,.25l.3.17a3,3,0,0,0,0-.42A1.43,1.43,0,0,0,157.78,240.79Z"/><path class="cls-11" d="M152.56,240.9c-.23.13-.23.35,0,.49a1,1,0,0,0,.84,0c.23-.14.23-.36,0-.49A1,1,0,0,0,152.56,240.9Z"/><path class="cls-4" d="M155.25,239.33a1.09,1.09,0,0,0-1.13.08,3.45,3.45,0,0,0-1.41,2,.75.75,0,0,0,.3,0,3.13,3.13,0,0,1,1.27-1.8,1,1,0,0,1,.51-.16.68.68,0,0,1,.31.08,1.14,1.14,0,0,1,.42,1,1.93,1.93,0,0,1,0,.24l.29.17a2.93,2.93,0,0,0,0-.41A1.43,1.43,0,0,0,155.25,239.33Z"/><path class="cls-11" d="M150,239.44a.26.26,0,0,0,0,.49,1,1,0,0,0,.84,0,.26.26,0,0,0,0-.49A1,1,0,0,0,150,239.44Z"/><path class="cls-4" d="M152.73,237.87a1.13,1.13,0,0,0-1.13.08,3.54,3.54,0,0,0-1.42,2,1.06,1.06,0,0,0,.31,0,3.11,3.11,0,0,1,1.26-1.81,1.15,1.15,0,0,1,.52-.16.61.61,0,0,1,.3.08,1.15,1.15,0,0,1,.42,1,2.18,2.18,0,0,1,0,.25l.29.17a2,2,0,0,0,0-.42A1.46,1.46,0,0,0,152.73,237.87Z"/><path class="cls-11" d="M147.51,238c-.23.14-.23.36,0,.49a.93.93,0,0,0,.83,0c.24-.13.24-.35,0-.49A.93.93,0,0,0,147.51,238Z"/><path class="cls-4" d="M150.2,236.41a1.13,1.13,0,0,0-1.13.08,3.54,3.54,0,0,0-1.42,2,1.1,1.1,0,0,0,.31,0,3.19,3.19,0,0,1,1.27-1.81,1.08,1.08,0,0,1,.51-.16.61.61,0,0,1,.3.08,1.16,1.16,0,0,1,.43,1,1.06,1.06,0,0,1,0,.25l.3.17a3,3,0,0,0,0-.42A1.45,1.45,0,0,0,150.2,236.41Z"/><path class="cls-11" d="M145,236.53a.25.25,0,0,0,0,.48.89.89,0,0,0,.84,0,.25.25,0,0,0,0-.48A.89.89,0,0,0,145,236.53Z"/><path class="cls-4" d="M147.67,235a1.11,1.11,0,0,0-1.12.08,3.52,3.52,0,0,0-1.42,2,.78.78,0,0,0,.31,0,3.18,3.18,0,0,1,1.26-1.81,1.11,1.11,0,0,1,.52-.16.61.61,0,0,1,.3.08,1.16,1.16,0,0,1,.42,1,2.09,2.09,0,0,1,0,.25l.29.17a3,3,0,0,0,0-.42A1.45,1.45,0,0,0,147.67,235Z"/><path class="cls-11" d="M142.46,235.07a.25.25,0,0,0,0,.48.87.87,0,0,0,.83,0c.24-.13.24-.35,0-.48A.87.87,0,0,0,142.46,235.07Z"/><path class="cls-4" d="M145.15,233.5a1.11,1.11,0,0,0-1.13.07,3.57,3.57,0,0,0-1.42,2,.83.83,0,0,0,.31,0,3.19,3.19,0,0,1,1.27-1.81,1.06,1.06,0,0,1,.51-.15.52.52,0,0,1,.3.08,1.13,1.13,0,0,1,.43,1,2,2,0,0,1,0,.25l.3.17a3,3,0,0,0,0-.42A1.43,1.43,0,0,0,145.15,233.5Z"/><path class="cls-11" d="M139.93,233.61a.25.25,0,0,0,0,.48.89.89,0,0,0,.84,0,.25.25,0,0,0,0-.48A.89.89,0,0,0,139.93,233.61Z"/><path class="cls-4" d="M142.62,232a1.09,1.09,0,0,0-1.13.08,3.49,3.49,0,0,0-1.41,2,.78.78,0,0,0,.31,0,3.12,3.12,0,0,1,1.26-1.8,1,1,0,0,1,.51-.16.65.65,0,0,1,.31.08,1.14,1.14,0,0,1,.42,1,1.93,1.93,0,0,1,0,.24l.29.17a2.93,2.93,0,0,0,0-.41A1.43,1.43,0,0,0,142.62,232Z"/><path class="cls-11" d="M137.4,232.15c-.23.13-.23.35,0,.49a1,1,0,0,0,.84,0c.23-.14.23-.36,0-.49A1,1,0,0,0,137.4,232.15Z"/><path class="cls-4" d="M140.1,230.58a1.09,1.09,0,0,0-1.13.08,3.5,3.5,0,0,0-1.42,2,.8.8,0,0,0,.31,0,3.17,3.17,0,0,1,1.26-1.8,1,1,0,0,1,.52-.16.61.61,0,0,1,.3.08,1.14,1.14,0,0,1,.43,1,2.29,2.29,0,0,1,0,.25l.3.17a3.19,3.19,0,0,0,0-.42A1.43,1.43,0,0,0,140.1,230.58Z"/><path class="cls-11" d="M134.88,230.69a.26.26,0,0,0,0,.49,1,1,0,0,0,.84,0,.26.26,0,0,0,0-.49A1,1,0,0,0,134.88,230.69Z"/><path class="cls-4" d="M137.57,229.12a1.13,1.13,0,0,0-1.13.08,3.48,3.48,0,0,0-1.41,2,1,1,0,0,0,.3,0,3.13,3.13,0,0,1,1.27-1.81,1.11,1.11,0,0,1,.51-.16.68.68,0,0,1,.31.08,1.19,1.19,0,0,1,.42,1,2.18,2.18,0,0,1,0,.25l.29.17a3,3,0,0,0,0-.42A1.43,1.43,0,0,0,137.57,229.12Z"/><line class="cls-37" x1="153.83" y1="243.57" x2="139.93" y2="251.59"/><line class="cls-37" x1="152.15" y1="242.59" x2="138.25" y2="250.62"/><line class="cls-37" x1="150.47" y1="241.62" x2="136.56" y2="249.65"/><line class="cls-37" x1="148.78" y1="240.65" x2="134.88" y2="248.68"/><line class="cls-37" x1="147.1" y1="239.68" x2="133.19" y2="247.7"/><line class="cls-37" x1="145.41" y1="238.7" x2="131.51" y2="246.73"/><line class="cls-37" x1="143.73" y1="237.73" x2="129.83" y2="245.76"/><line class="cls-37" x1="142.05" y1="236.76" x2="128.14" y2="244.79"/><line class="cls-37" x1="140.36" y1="235.79" x2="126.46" y2="243.82"/><line class="cls-37" x1="138.68" y1="234.82" x2="124.77" y2="242.84"/><line class="cls-37" x1="136.99" y1="233.84" x2="123.09" y2="241.87"/><line class="cls-37" x1="135.31" y1="232.87" x2="121.41" y2="240.9"/><line class="cls-37" x1="133.63" y1="231.9" x2="119.72" y2="239.93"/><line class="cls-38" x1="156.35" y1="244.06" x2="141.64" y2="252.57"/><g class="cls-39"><path class="cls-6" d="M149,242.28a1.27,1.27,0,0,0-.57-.36l-.27-.14c-.13-.21-.3-.54-.08-.59a2,2,0,0,1,.55.16c.08,0,.06-.09,0-.11-.25-.1-.72-.41-.82,0a.68.68,0,0,0,0,.39.77.77,0,0,0-.36-.07c-.12,0-.22,0-.26.15s0,.11,0,.17.09.11.11.12h-.13c-.17,0-.65-.13-.76.09s.06.22,0,.25-.35.13-.41.17,0,.11,0,.12a4.32,4.32,0,0,1-.51,0c-.28,0-1-.08-.87.35,0,.05,0,0,.05.12s0,.09,0,.1,0,0-.06.06-.12,0-.16.06.07.23-.09.33-.72-.15-1,0,.06.57-.31.57c-.08,0,0,.13,0,.13.34,0,.31,0,.37-.32.11-.46.8-.14,1.19-.25,0,0,0-.06,0-.1s0-.25.17-.32.05-.06,0-.1-.19-.31-.1-.42.37,0,.41,0c.3,0,.6,0,.9,0a.06.06,0,0,0,.06-.09c0-.09.35-.16.43-.17a.07.07,0,0,0,0-.09c-.19-.46.5-.29.78-.24a.07.07,0,0,0,.08-.09c0-.16-.39-.31,0-.37a.59.59,0,0,1,.31.08,2.26,2.26,0,0,0,.71.73C148.92,242.69,149.2,242.6,149,242.28Zm-.13.08c.09.12-.18,0-.21,0a1,1,0,0,1-.36-.38l.21.11A.8.8,0,0,1,148.86,242.36Z"/><path class="cls-6" d="M142,245.21c0-.2-.06-.42.13-.44s0-.14,0-.14c-.25,0-.33.21-.29.47a1.28,1.28,0,0,0-.32-.1c-.16,0-.26,0-.32.13s.05.16,0,.25.13.08-.07.13a2,2,0,0,1-.23,0c-.2,0-.22,0-.34.1s.18.16-.18.1a.7.7,0,0,0-.29,0c-.13,0-.2.07-.18.21s.16.16.15.2c0,.32-.34.05-.47,0a.07.07,0,0,0-.09.05c0,.16.11.22-.12.23,0,0-.19-.09-.24-.09s-.28.2-.47.18-.07,0-.06.09.13.23-.16.35l-.33,0c-.08,0,0,.13,0,.14s.59.2.72,0-.1-.29-.05-.37.26-.08.29-.09a.79.79,0,0,1,.22-.06s.08.06.12.06.12,0,.17,0,.06-.09.08-.11-.07-.07,0-.11.13.05.2.07.27.12.37,0-.11-.25-.09-.36.38-.05.53-.15a.1.1,0,0,0,0-.07c-.1-.32.48-.07.66-.1a.07.07,0,0,0,.06-.07l-.07-.2c0-.19.3-.17.42-.13.12.38.42.77.75.66,0,0,0,0,0-.06C142.64,245.65,142.34,245.39,142,245.21Zm.12.32a.73.73,0,0,1,0-.09c.11.08.22.17.23.22C142.41,245.86,142.19,245.58,142.16,245.53Z"/><path class="cls-6" d="M147.09,247.26a1.27,1.27,0,0,0-.57-.36l-.27-.14c-.13-.21-.3-.54-.08-.58s.4.11.54.16.07-.1,0-.12c-.25-.1-.72-.41-.82,0a.61.61,0,0,0,0,.39.8.8,0,0,0-.36-.07c-.12,0-.22,0-.26.16s0,.1,0,.16.09.11.11.12h-.13c-.17,0-.65-.12-.76.09s.05.22,0,.25-.35.13-.41.17,0,.11,0,.12a2.89,2.89,0,0,1-.51,0c-.28,0-1-.08-.88.35,0,0,.05,0,.06.12s0,.09,0,.1,0,0-.07.06-.11,0-.15.07.07.22-.09.32-.72-.15-1,0,.07.56-.3.57c-.08,0,0,.12,0,.12.34,0,.3,0,.37-.31.11-.47.8-.15,1.18-.26.05,0,.05-.06,0-.1s0-.25.17-.32a.07.07,0,0,0,0-.1c0-.08-.19-.31-.1-.42a2.48,2.48,0,0,1,.41,0c.3,0,.6,0,.9,0,0,0,.08-.05.06-.08s.34-.16.43-.18a.06.06,0,0,0,0-.08c-.19-.47.5-.3.78-.25.06,0,.1,0,.08-.09s-.39-.31,0-.37a.71.71,0,0,1,.31.08,2.26,2.26,0,0,0,.71.73C147,247.67,147.3,247.58,147.09,247.26Zm-.13.09c.09.11-.18,0-.21,0a.94.94,0,0,1-.36-.38l.21.12A.72.72,0,0,1,147,247.35Z"/><path class="cls-6" d="M151.36,243.73c-.05-.2-.05-.42.13-.44s0-.14,0-.14c-.25,0-.33.21-.3.47a1.11,1.11,0,0,0-.31-.1c-.16,0-.27,0-.32.13s0,.16,0,.25.12.08-.08.13a2,2,0,0,1-.23,0,.34.34,0,0,0-.33.1c-.13.11.18.16-.18.1a.73.73,0,0,0-.29,0c-.13,0-.2.07-.18.21s.15.16.15.2c0,.32-.35,0-.48,0s-.08,0-.08,0,.11.22-.12.23c0,0-.19-.09-.24-.09s-.28.2-.48.18-.07,0-.05.08.13.24-.16.36l-.33,0c-.09,0,0,.13,0,.14s.58.2.71,0-.09-.29,0-.37.25-.08.28-.09a.86.86,0,0,1,.23-.06s.07.06.12.06.11,0,.16,0,.07-.09.09-.11-.07-.07,0-.11.14,0,.21.07.27.12.36,0-.1-.25-.08-.36.37,0,.52-.15a.07.07,0,0,0,0-.07c-.09-.32.48-.07.66-.1,0,0,.07,0,.06-.07a1.5,1.5,0,0,0-.07-.2c0-.19.31-.17.43-.13.11.38.42.77.75.66a.07.07,0,0,0,0-.06C152,244.17,151.67,243.91,151.36,243.73Zm.12.32,0-.09a.81.81,0,0,1,.23.22C151.74,244.38,151.51,244.1,151.48,244.05Z"/><path class="cls-6" d="M138.72,236.6a1.27,1.27,0,0,0-.57-.36l-.27-.14c-.13-.21-.3-.54-.08-.58s.4.11.54.16.07-.1,0-.12c-.25-.1-.72-.41-.82,0a.23.23,0,1,1-.31.32c-.12,0-.22,0-.26.15s0,.1,0,.16.09.11.11.12H137c-.17,0-.65-.12-.76.1s.06.21,0,.24-.35.14-.41.17,0,.11,0,.12a4.12,4.12,0,0,1-.51,0c-.28,0-1-.09-.88.34,0,0,.05,0,.06.12s0,.09,0,.1,0,0-.06.06-.12,0-.16.07.07.22-.09.32-.72-.15-.95,0,.06.56-.31.57c-.08,0,0,.12,0,.12.34,0,.3,0,.37-.31.11-.47.8-.15,1.18-.25.05,0,.05-.07,0-.11s0-.25.17-.32a.07.07,0,0,0,0-.1c0-.08-.19-.31-.1-.42a2.48,2.48,0,0,1,.41,0c.3,0,.6,0,.9,0,0,0,.08-.05.06-.08s.35-.16.43-.18a.06.06,0,0,0,0-.08c-.19-.47.5-.3.78-.25.06,0,.1,0,.08-.09s-.39-.31,0-.37a.71.71,0,0,1,.31.08,2.26,2.26,0,0,0,.71.73C138.65,237,138.93,236.92,138.72,236.6Zm-.13.09c.09.11-.18,0-.21,0a1,1,0,0,1-.36-.38l.21.12A.72.72,0,0,1,138.59,236.69Z"/><path class="cls-6" d="M131.77,239.53c-.06-.2-.06-.42.12-.44s0-.14,0-.14c-.25,0-.33.21-.29.48a1.35,1.35,0,0,0-.32-.11c-.16,0-.27,0-.32.13s.05.16,0,.25.13.08-.07.13c0,0-.17,0-.23,0s-.22,0-.34.11.18.15-.18.09a.92.92,0,0,0-.29,0c-.13,0-.2.07-.18.22s.15.15.15.19c0,.32-.34.05-.47,0a.07.07,0,0,0-.09.05c0,.15.11.21-.12.22,0,0-.19-.08-.24-.08s-.28.19-.47.17-.07.05-.06.09.13.23-.16.35l-.33,0c-.09,0,0,.14,0,.14s.58.2.72,0-.1-.28,0-.37c0,.06.26-.08.29-.09a1.41,1.41,0,0,1,.22-.06s.08.07.12.07.12,0,.17,0,.06-.09.08-.1-.07-.08,0-.11.14.05.21.07.27.11.36,0-.1-.26-.08-.36.38-.06.52-.16,0,0,0-.07c-.1-.31.47-.07.65-.1s.07,0,.07-.07l-.08-.19c.05-.19.31-.17.43-.14.12.38.42.77.75.67a.08.08,0,0,0,0-.06C132.37,240,132.07,239.71,131.77,239.53Zm.11.32,0-.09c.11.08.22.18.23.23S131.92,239.9,131.88,239.85Z"/><path class="cls-6" d="M136.82,241.59a1.21,1.21,0,0,0-.57-.37l-.27-.14c-.13-.2-.3-.54-.08-.58s.4.11.54.16.07-.1,0-.12c-.25-.1-.72-.4-.82,0a.58.58,0,0,0,.05.38.94.94,0,0,0-.36-.06c-.12,0-.22,0-.26.15s0,.11,0,.16a.14.14,0,0,0,.12.12h-.13c-.18,0-.65-.12-.77.1s.06.21.05.25l-.41.16s0,.12,0,.12a4.16,4.16,0,0,1-.51,0c-.28,0-1-.08-.88.35,0,0,0,0,.06.11a.54.54,0,0,0,0,.11s0,0-.07.05-.12,0-.15.07.07.22-.1.33-.71-.15-.95,0,.07.56-.3.57c-.09,0,0,.12,0,.13.35,0,.31,0,.38-.32.11-.46.8-.15,1.18-.25,0,0,0-.07,0-.1s0-.26.17-.33a.07.07,0,0,0,0-.1c0-.07-.19-.3-.1-.41a1.7,1.7,0,0,1,.41,0c.3,0,.6,0,.9,0a.06.06,0,0,0,.06-.08c0-.1.34-.16.43-.18a.07.07,0,0,0,0-.08c-.19-.46.5-.29.78-.25.06,0,.09,0,.08-.09s-.39-.31,0-.36a.57.57,0,0,1,.31.07,2.16,2.16,0,0,0,.71.73C136.75,242,137,241.9,136.82,241.59Zm-.13.08c.09.11-.18,0-.21,0a1,1,0,0,1-.36-.38l.21.11A.86.86,0,0,1,136.69,241.67Z"/><path class="cls-6" d="M141.09,238.05c-.05-.2-.06-.42.13-.44s0-.14,0-.14c-.25,0-.33.21-.3.48a1.16,1.16,0,0,0-.31-.11c-.16,0-.27,0-.32.13s0,.16,0,.25.12.08-.08.13-.17,0-.23,0-.21,0-.33.11.18.15-.19.09a.86.86,0,0,0-.28,0c-.13,0-.2.07-.18.22s.15.15.15.19c0,.32-.35,0-.48,0a.05.05,0,0,0-.08.05c0,.15.11.21-.12.22,0,0-.19-.08-.24-.08s-.28.19-.48.17a.06.06,0,0,0-.05.09c.05.14.13.23-.16.35,0,0-.34,0-.34,0s0,.14,0,.14.58.2.71,0-.09-.28,0-.37c0,.06.25-.08.28-.09a1.55,1.55,0,0,1,.23-.06s.07.07.12.07.11,0,.16,0,.07-.09.09-.1-.07-.08,0-.11.14.05.2.07.28.11.37,0-.1-.26-.08-.36.37-.06.52-.16a.06.06,0,0,0,0-.07c-.09-.31.48-.07.66-.1s.07,0,.06-.07a1.31,1.31,0,0,0-.07-.19c.05-.19.31-.17.43-.14.11.38.41.77.75.67a.08.08,0,0,0,0-.06C141.7,238.49,141.4,238.23,141.09,238.05Zm.12.32a.39.39,0,0,1,0-.09.81.81,0,0,1,.23.23C141.46,238.7,141.24,238.42,141.21,238.37Z"/><path class="cls-6" d="M137.87,245a1.18,1.18,0,0,0-.56-.36l-.28-.14c-.13-.21-.3-.54-.07-.58s.39.11.54.16.06-.1,0-.12c-.24-.1-.72-.41-.82,0a.6.6,0,0,0,.06.38,1,1,0,0,0-.37-.06c-.11,0-.21,0-.25.15s0,.1,0,.16a.13.13,0,0,0,.12.12h-.13c-.18,0-.66-.12-.77.1s.06.21,0,.25l-.4.16s0,.11,0,.12a4,4,0,0,1-.5,0c-.28,0-1-.08-.88.34,0,0,0,0,0,.12a.23.23,0,0,0,0,.1s0,0-.07.06-.12,0-.15.07.07.22-.1.32-.71-.14-1,0,.06.56-.31.57c-.08,0,0,.12,0,.12.35,0,.31,0,.38-.31.1-.46.79-.15,1.18-.25a.08.08,0,0,0,0-.11c-.1-.16,0-.25.17-.32a.07.07,0,0,0,0-.1c-.05-.08-.19-.31-.1-.41a1.7,1.7,0,0,1,.41-.05c.3,0,.6,0,.9,0a.06.06,0,0,0,0-.08c0-.1.35-.16.44-.18a.06.06,0,0,0,0-.08c-.18-.46.5-.29.79-.25.05,0,.09,0,.08-.09s-.39-.31,0-.37a.75.75,0,0,1,.32.08,2.07,2.07,0,0,0,.71.73C137.81,245.42,138.08,245.33,137.87,245Zm-.12.09c.08.11-.18,0-.22,0a1.06,1.06,0,0,1-.35-.38l.21.11A.83.83,0,0,1,137.75,245.1Z"/><path class="cls-6" d="M141.26,241.79c0-.2-.06-.42.13-.44s0-.13,0-.14c-.25,0-.33.21-.3.48a2,2,0,0,0-.31-.11c-.17,0-.27,0-.33.13s.05.17.05.26.12.07-.08.13a2.08,2.08,0,0,1-.23,0,.35.35,0,0,0-.34.11c-.12.1.19.15-.18.09a.9.9,0,0,0-.28,0c-.14,0-.21.07-.18.22s.15.15.15.2c0,.32-.35,0-.48,0a.05.05,0,0,0-.08,0c0,.16.1.21-.13.23a1.85,1.85,0,0,0-.23-.09c-.15,0-.29.19-.48.17a.06.06,0,0,0,0,.09c0,.14.13.23-.16.36l-.35-.05c-.07,0,0,.14,0,.14s.58.2.71,0-.09-.28-.05-.37c0,.06.26-.07.29-.09a1.55,1.55,0,0,1,.23-.06s.07.07.11.07.12,0,.17,0,.06-.1.08-.11-.06-.08,0-.11.13,0,.2.07.28.11.37,0-.1-.26-.08-.36.37-.06.52-.16a.06.06,0,0,0,0-.07c-.09-.31.48-.07.66-.1a.07.07,0,0,0,.06-.07,2,2,0,0,0-.07-.19c0-.19.3-.17.42-.14.12.38.42.77.75.67a.06.06,0,0,0,0-.06C141.86,242.24,141.57,242,141.26,241.79Zm.12.32a.39.39,0,0,1,0-.09.81.81,0,0,1,.23.23C141.63,242.44,141.41,242.16,141.38,242.11Z"/><path class="cls-6" d="M145.14,239.19a.22.22,0,0,0,0-.08c0-.2-.28-.05-.32.07s.05.17.05.25.12.08-.08.13-.17,0-.23,0-.22,0-.34.11.19.15-.18.09a.9.9,0,0,0-.28,0c-.14,0-.21.07-.18.22s.15.15.15.2c0,.31-.35,0-.48,0a.05.05,0,0,0-.08,0c0,.15.1.21-.13.22,0,0-.18-.08-.23-.08s-.29.19-.48.17a.06.06,0,0,0,0,.09c0,.14.13.23-.16.35,0,0-.35,0-.35,0s0,.14.05.14.58.2.71,0-.09-.28-.05-.37c0,.06.26-.08.29-.09a1.55,1.55,0,0,1,.23-.06s.07.07.11.07.12,0,.17,0,.06-.09.08-.1-.06-.08,0-.11.13,0,.2.07.28.11.37,0-.1-.26-.08-.36.37-.06.52-.16a.06.06,0,0,0,0-.07c-.09-.31.48-.07.66-.1a.07.07,0,0,0,.06-.07.9.9,0,0,1,0-.4Z"/></g></g><g id="Green_Pencil" data-name="Green Pencil"><polygon id="Shadow-7" data-name="Shadow" class="cls-27" points="153.72 259.77 156.1 261.15 174.85 250.17 176.92 247.73 172.6 248.87 153.72 259.77"/><path class="cls-12" d="M172.78,247.2l4-.78a.13.13,0,0,1,.12.21l-2.71,3.06Z"/><path class="cls-4" d="M176.89,246.63a.13.13,0,0,0-.12-.21l-.78.15h0a.7.7,0,0,1,.32.64v.07Z"/><path class="cls-7" d="M159.28,258.23l.33-.18.4-.23,14.17-8.13a1.83,1.83,0,0,0-.11-1.32,1.87,1.87,0,0,0-1.29-1.16l-14.16,8.12-.76.43C158.37,255.51,159.79,258,159.28,258.23Z"/><path class="cls-18" d="M160.53,257.53l.73-.42c.22-.12.09-.65-.16-1.19-.33-.73-1-1.44-1.27-1.28l-.54.3-.19.12c.28-.15.94.55,1.27,1.28.24.52.37,1,.18,1.17h0Z"/><path class="cls-7" d="M160.71,257.42c.5-.27-.93-2.74-1.43-2.47l-.73.42c.5-.27,1.93,2.2,1.43,2.47Z"/><path class="cls-18" d="M159.28,258.23l.73-.41c.49-.25-.87-2.65-1.39-2.49h0l-.73.42C158.37,255.51,159.79,258,159.28,258.23Z"/><path class="cls-40" d="M176.91,246.49l-.14-.07-2.9,1.59-15,8.6c0-.05,0-.05-.07,0,.42.66.75,1.5.46,1.64l.33-.18.4-.23,14.17-8.13h0l2.71-3.06A.15.15,0,0,0,176.91,246.49Z"/><path class="cls-15" d="M156.22,260l3.06-1.76c.22-.11.1-.63-.15-1.17-.33-.73-1-1.44-1.27-1.3h0l-3.07,1.76c-.61.35,0,1.68.63,2.27A.74.74,0,0,0,156.22,260Z"/><path class="cls-11" d="M156.41,259a2.22,2.22,0,0,0-1.25-1.51.48.48,0,0,0-.46.06c-.46.42.07,1.64.72,2.2a.72.72,0,0,0,.79.2C156.44,259.86,156.52,259.5,156.41,259Z"/></g><g id="Papers"><path id="Shadow-8" data-name="Shadow" class="cls-27" d="M205.59,287.9a2.45,2.45,0,0,0,1.2-.29l20-11.56a1,1,0,0,0,0-1.83l-3.57-2.06,1.71-1a1.08,1.08,0,0,0,.61-.92,1.07,1.07,0,0,0-.61-.91l-29.46-17a2.4,2.4,0,0,0-1.2-.29,2.45,2.45,0,0,0-1.2.29l-20,11.56a1.07,1.07,0,0,0-.61.91,1.09,1.09,0,0,0,.61.92l3.57,2.06-1.71,1a1,1,0,0,0,0,1.83l29.46,17A2.4,2.4,0,0,0,205.59,287.9Z"/><path class="cls-18" d="M174.71,268.13a.71.71,0,0,1,.41-.58l20-11.55a2.22,2.22,0,0,1,2,0l29.46,17a.69.69,0,0,1,.41.58v.92a.69.69,0,0,1-.41.57l-20,11.56a2.22,2.22,0,0,1-2,0l-29.46-17a.69.69,0,0,1-.41-.57Z"/><path class="cls-21" d="M226.61,273l-29.46-17a2.22,2.22,0,0,0-2,0l-20,11.55a.62.62,0,0,0,0,1.17l29.46,17a2.22,2.22,0,0,0,2,0l20-11.55A.62.62,0,0,0,226.61,273Z"/><path class="cls-36" d="M205.59,286v.91a2,2,0,0,0,1-.24l20-11.55a.71.71,0,0,0,.42-.58v-.92a.69.69,0,0,1-.42.58l-20,11.56A2,2,0,0,1,205.59,286Z"/><path class="cls-18" d="M172.85,263.25a.71.71,0,0,1,.41-.58l20-11.55a2.16,2.16,0,0,1,2,0l29.46,17a.71.71,0,0,1,.41.58v.92a.71.71,0,0,1-.41.57l-20,11.56a2.22,2.22,0,0,1-2,0l-29.46-17a.7.7,0,0,1-.41-.57Z"/><path class="cls-21" d="M224.75,268.12l-29.46-17a2.16,2.16,0,0,0-2,0l-20,11.55a.61.61,0,0,0,0,1.16l29.46,17a2.22,2.22,0,0,0,2,0l20-11.56A.61.61,0,0,0,224.75,268.12Z"/><path class="cls-36" d="M203.73,281.08V282a2,2,0,0,0,1-.24l20-11.55a.73.73,0,0,0,.42-.59v-.91a.69.69,0,0,1-.42.58l-20,11.56A2,2,0,0,1,203.73,281.08Z"/></g><g id="Folder"><g class="cls-31"><path class="cls-6" d="M251.69,262.81a2.19,2.19,0,0,1-1.1-.27l-30.8-17.79a1.19,1.19,0,0,1,0-2.14l25.45-16.17a2.24,2.24,0,0,1,1.2-.33,2.19,2.19,0,0,1,1.1.28l9.16,5.29a1.68,1.68,0,0,1,.65,2.2l-.37.73a.31.31,0,0,0,.12.39l18.46,10.75a1.2,1.2,0,0,1,.05,2.14L252.9,262.48A2.28,2.28,0,0,1,251.69,262.81Z"/></g><path class="cls-7" d="M252.14,261l23.08-13.36c.45-.26.45-.68,0-.94l-31.64-18a1.88,1.88,0,0,0-1.65,0l-22.86,13.2a.5.5,0,0,0,0,1L250.49,261A1.84,1.84,0,0,0,252.14,261Z"/><g class="cls-29"><path class="cls-6" d="M252.14,261l23.08-13.36c.45-.26.45-.68,0-.94l-31.64-18a1.88,1.88,0,0,0-1.65,0l-22.86,13.2a.5.5,0,0,0,0,1L250.49,261A1.84,1.84,0,0,0,252.14,261Z"/></g><path class="cls-7" d="M219,241.85l26-16.51a1.71,1.71,0,0,1,1.63,0l9.35,5.4a1,1,0,0,1,.39,1.32l-.38.74a1,1,0,0,0,.39,1.32l18.84,11a.53.53,0,0,1,0,1l-23.12,14.89a1.71,1.71,0,0,1-1.63,0l-31.43-18.15A.52.52,0,0,1,219,241.85Z"/></g><g id="Black_pencil" data-name="Black pencil"><polyline id="Shadow-9" data-name="Shadow" class="cls-27" points="312.36 230.33 292.55 241.74 294.93 243.11 314.6 231.63"/><g id="Pencil"><path class="cls-15" d="M314.29,230.89l2.36-2.8a.11.11,0,0,0-.11-.18l-3.6.79Z"/><path class="cls-12" d="M316.56,227.91h0l-3.6.79.71,1.16.39-.23,2.51-1.59Z"/><path class="cls-4" d="M316.54,227.91a.11.11,0,0,1,.11.18l-.46.55h0a.63.63,0,0,0-.37-.53l-.05,0Z"/><path class="cls-5" d="M296.68,238.52l.29-.18.35-.21,15.62-9.43a1.59,1.59,0,0,1,1,.67,1.68,1.68,0,0,1,.36,1.52l-15.62,9.42-.67.41C298.42,240.43,297.1,238.24,296.68,238.52Z"/><path class="cls-6" d="M296.68,238.52l.29-.18.35-.21,15.62-9.43a1.77,1.77,0,0,1,1.15.9l-16.3,9.94s0,.06,0,.06C297.43,239,296.92,238.36,296.68,238.52Z"/><path class="cls-18" d="M297.78,237.85l.65-.39c.18-.12.54.21.86.64.43.58.7,1.4.46,1.56l-.48.29-.17.1c.24-.16,0-1-.45-1.56-.31-.42-.66-.74-.85-.65h0Z"/><path class="cls-5" d="M297.94,237.75c.43-.28,1.75,1.93,1.32,2.21l-.65.39c.43-.28-.89-2.48-1.31-2.21Z"/><path class="cls-18" d="M296.68,238.52l.64-.39c.42-.28,1.7,1.84,1.35,2.18l0,0-.65.39C298.42,240.43,297.1,238.24,296.68,238.52Z"/><path class="cls-12" d="M316.65,228a.13.13,0,0,0-.09,0A.13.13,0,0,1,316.65,228Z"/><path class="cls-15" d="M294,240.16l2.71-1.64c.18-.12.54.2.86.63s.7,1.4.46,1.57h0l-2.72,1.65c-.55.32-1.34-.7-1.51-1.49A.65.65,0,0,1,294,240.16Z"/><path class="cls-11" d="M294.79,240.43a2,2,0,0,1,.65,1.64.49.49,0,0,1-.25.34c-.54.17-1.26-.78-1.42-1.53a.66.66,0,0,1,.18-.71C294.16,240.05,294.48,240.13,294.79,240.43Z"/></g></g></g></g></g></svg>