<svg xmlns="http://www.w3.org/2000/svg" viewBox="0 0 311.71 350.97"><defs><style>.cls-1{fill:#b2d3ea;}.cls-2{fill:#396caa;}.cls-3,.cls-8{fill:#d4ecff;}.cls-4{fill:#5793ce;}.cls-5{fill:#fafdff;}.cls-6{fill:#173d7a;}.cls-7{fill:#fff;}.cls-8{opacity:0.4;}.cls-9{fill:#274f89;}</style></defs><g id="Layer_2" data-name="Layer 2"><g id="_ÎÓÈ_1" data-name="—ÎÓÈ_1"><path class="cls-1" d="M83.41,191.56l-53-30.22c-1.93-1.12-1.69-3.07.55-4.36l30.49-17.61c2.23-1.29,5.62-1.43,7.56-.31l53,30.22c1.93,1.12,1.69,3.07-.55,4.36L91,191.24A8.37,8.37,0,0,1,83.41,191.56Z"/><path class="cls-2" d="M126.73,159.11h0V35.4L77.55,22.53,68.49,17.3c-2.08-1.2-5.71-1.05-8.11.33l-8.45,4.88H25.7l7.77,119.42a2.34,2.34,0,0,0,1.39,2.17l49.08,37c2.08,1.2,5.71,1,8.11-.33l32.71-18.89C126.14,161.1,126.81,160.07,126.73,159.11Z"/><path class="cls-3" d="M64.73,16.49a9.42,9.42,0,0,0-4.35,1.14l-8.45,4.88H25.7v124a2.35,2.35,0,0,0,1.39,2.17l56.85,32.41a7.33,7.33,0,0,0,3.76.81l.59-124.82Z"/><path class="cls-4" d="M84.46,181.38a9.22,9.22,0,0,0,6.48-.07V55.64H84.46Z"/><path class="cls-3" d="M83.94,57.13,27.09,24.71c-2.08-1.2-1.82-3.29.58-4.68L60.38,1.15c2.4-1.39,6-1.54,8.11-.34l56.85,32.41c2.08,1.2,1.82,3.3-.58,4.69L92.05,56.79C89.65,58.18,86,58.33,83.94,57.13Z"/><path class="cls-5" d="M124.76,35.61,92.05,54.49c-2.4,1.39-6,1.54-8.11.34L27.09,22.41a3.15,3.15,0,0,1-1-.92c-.71,1.15-.39,2.4,1,3.22L83.94,57.13c2.08,1.2,5.71,1,8.11-.34l32.71-18.88c1.86-1.08,2.43-2.58,1.62-3.77A4.6,4.6,0,0,1,124.76,35.61Z"/><path class="cls-6" d="M85.54,44,47.7,22.05c-1-.56-.85-1.54.27-2.19L63.28,11a4.21,4.21,0,0,1,3.79-.15L104.92,32.8c1,.57.85,1.55-.27,2.2L89.34,43.83A4.23,4.23,0,0,1,85.54,44Z"/><path class="cls-3" d="M65.11,23l-2.19-1.27c-.13-.08-.12-.21,0-.3l2.12-1.22a.6.6,0,0,1,.52,0l2.19,1.27c.14.08.12.21,0,.3L65.64,23A.66.66,0,0,1,65.11,23Z"/><path class="cls-3" d="M72.44,27.25,70.25,26c-.14-.07-.12-.21,0-.3l2.12-1.22a.59.59,0,0,1,.53,0l2.19,1.26c.13.08.12.22,0,.31L73,27.23A.56.56,0,0,1,72.44,27.25Z"/><path class="cls-3" d="M79.77,31.46l-2.2-1.26c-.13-.08-.11-.22,0-.31l2.12-1.22a.56.56,0,0,1,.52,0l2.2,1.27c.13.07.11.21,0,.3l-2.12,1.22A.56.56,0,0,1,79.77,31.46Z"/><path class="cls-3" d="M87.09,35.68,84.9,34.41c-.13-.08-.12-.21,0-.3l2.12-1.23a.56.56,0,0,1,.52,0l2.19,1.27c.14.08.12.21,0,.3l-2.12,1.22A.62.62,0,0,1,87.09,35.68Z"/><path class="cls-4" d="M47.7,22.05l0,0,.23-.16,15.31-8.84a4.24,4.24,0,0,1,3.79-.15l37.8,21.91c.9-.64.95-1.52,0-2L67.07,10.87a4.21,4.21,0,0,0-3.79.15L48,19.86C46.85,20.51,46.73,21.49,47.7,22.05Z"/><path class="cls-6" d="M98.43,81.64,120,69.32a5.26,5.26,0,0,0,2.19-4.19v-7.7c0-1.61-1-2.35-2.19-1.66L98.43,68.09a5.26,5.26,0,0,0-2.19,4.19V80C96.24,81.59,97.22,82.34,98.43,81.64Z"/><path class="cls-7" d="M121,55.54a2.15,2.15,0,0,1,.55,1.6v7.7A5.26,5.26,0,0,1,119.38,69L97.86,81.35a1.64,1.64,0,0,1-1.07.23,1.3,1.3,0,0,0,1.64.06L120,69.32a5.27,5.27,0,0,0,2.2-4.19v-7.7C122.15,56.34,121.69,55.66,121,55.54Z"/><path class="cls-2" d="M104.91,73.28l2-1.14a1.15,1.15,0,0,0,.48-.92v-2.1c0-.36-.22-.52-.48-.37l-2,1.14a1.16,1.16,0,0,0-.48.92v2.11C104.43,73.27,104.64,73.43,104.91,73.28Z"/><path class="cls-7" d="M111.51,69.47l2-1.14a1.17,1.17,0,0,0,.48-.92v-2.1c0-.36-.22-.52-.48-.37l-2,1.14A1.14,1.14,0,0,0,111,67v2.11C111,69.46,111.24,69.62,111.51,69.47Z"/><path class="cls-6" d="M98.43,137.24,120,124.92a5.25,5.25,0,0,0,2.19-4.19V113c0-1.62-1-2.36-2.19-1.66L98.43,123.7a5.26,5.26,0,0,0-2.19,4.19v7.7C96.24,137.2,97.22,137.94,98.43,137.24Z"/><path class="cls-7" d="M121,111.15a2.14,2.14,0,0,1,.55,1.6v7.7a5.23,5.23,0,0,1-2.19,4.18L97.86,137a1.59,1.59,0,0,1-1.07.24,1.3,1.3,0,0,0,1.64.05L120,124.92a5.25,5.25,0,0,0,2.2-4.19V113C122.15,111.94,121.69,111.26,121,111.15Z"/><path class="cls-2" d="M104.91,128.88l2-1.14a1.15,1.15,0,0,0,.48-.91v-2.11c0-.35-.22-.51-.48-.36l-2,1.14a1.12,1.12,0,0,0-.48.91v2.11C104.43,128.87,104.64,129,104.91,128.88Z"/><path class="cls-7" d="M111.51,125.07l2-1.14A1.15,1.15,0,0,0,114,123v-2.11c0-.35-.22-.51-.48-.36l-2,1.14a1.12,1.12,0,0,0-.48.91v2.11C111,125.06,111.24,125.23,111.51,125.07Z"/><path class="cls-6" d="M98.43,165.05,120,152.73a5.26,5.26,0,0,0,2.19-4.19v-7.7c0-1.61-1-2.35-2.19-1.66L98.43,151.5a5.26,5.26,0,0,0-2.19,4.19v7.7C96.24,165,97.22,165.75,98.43,165.05Z"/><path class="cls-7" d="M121,139a2.15,2.15,0,0,1,.55,1.6v7.7a5.26,5.26,0,0,1-2.19,4.19L97.86,164.76a1.64,1.64,0,0,1-1.07.23,1.3,1.3,0,0,0,1.64.06L120,152.73a5.27,5.27,0,0,0,2.2-4.19v-7.7C122.15,139.75,121.69,139.07,121,139Z"/><path class="cls-2" d="M104.91,156.69l2-1.14a1.15,1.15,0,0,0,.48-.92v-2.1c0-.36-.22-.52-.48-.37l-2,1.14a1.16,1.16,0,0,0-.48.92v2.11C104.43,156.68,104.64,156.84,104.91,156.69Z"/><path class="cls-7" d="M111.51,152.88l2-1.14a1.17,1.17,0,0,0,.48-.92v-2.1c0-.36-.22-.52-.48-.37l-2,1.14a1.14,1.14,0,0,0-.48.92v2.11C111,152.87,111.24,153,111.51,152.88Z"/><path class="cls-6" d="M98.43,109.44,120,97.12a5.26,5.26,0,0,0,2.19-4.19V85.24c0-1.62-1-2.36-2.19-1.66L98.43,95.9a5.25,5.25,0,0,0-2.19,4.19v7.69C96.24,109.4,97.22,110.14,98.43,109.44Z"/><path class="cls-7" d="M121,83.35a2.12,2.12,0,0,1,.55,1.6v7.69a5.25,5.25,0,0,1-2.19,4.19L97.86,109.15a1.52,1.52,0,0,1-1.07.23,1.3,1.3,0,0,0,1.64.06L120,97.12a5.27,5.27,0,0,0,2.2-4.19V85.24C122.15,84.14,121.69,83.46,121,83.35Z"/><path class="cls-2" d="M104.91,101.08l2-1.14a1.15,1.15,0,0,0,.48-.91V96.92c0-.35-.22-.51-.48-.36l-2,1.14a1.12,1.12,0,0,0-.48.91v2.11C104.43,101.07,104.64,101.23,104.91,101.08Z"/><path class="cls-7" d="M111.51,97.27l2-1.14a1.15,1.15,0,0,0,.48-.91V93.11c0-.35-.22-.52-.48-.36l-2,1.14a1.12,1.12,0,0,0-.48.91v2.11C111,97.26,111.24,97.42,111.51,97.27Z"/><path class="cls-4" d="M79.8,73.76,30.15,45.1a4.83,4.83,0,0,1-2-3.85V31.79c0-1.49.9-2.17,2-1.52L79.8,58.93a4.81,4.81,0,0,1,2,3.84v9.47C81.81,73.72,80.91,74.4,79.8,73.76Z"/><path class="cls-8" d="M78.37,70.44l-46.79-27a2.42,2.42,0,0,1-1-2V34.36c0-.76.45-1.1,1-.78l46.79,27a2.46,2.46,0,0,1,1,1.95v7.12C79.39,70.42,78.93,70.77,78.37,70.44Z"/><path class="cls-3" d="M41.33,45.46l-7-4a2.38,2.38,0,0,1-1-1.89h0c0-.73.45-1.07,1-.75l7,4a2.38,2.38,0,0,1,1,1.9h0C42.32,45.44,41.88,45.77,41.33,45.46Z"/><ellipse class="cls-6" cx="46.13" cy="46.91" rx="0.93" ry="1.62" transform="translate(-17.27 29.36) rotate(-30)"/><path class="cls-6" d="M51.32,49.9c0,.73-.51,1-1.15.66a2.52,2.52,0,0,1-1.14-2c0-.73.51-1,1.14-.66A2.5,2.5,0,0,1,51.32,49.9Z"/><path class="cls-3" d="M55.36,52.23c0,.73-.52,1-1.15.66a2.52,2.52,0,0,1-1.14-2c0-.73.51-1,1.14-.66A2.53,2.53,0,0,1,55.36,52.23Z"/><path class="cls-6" d="M59.39,54.56c0,.73-.51,1-1.14.66a2.53,2.53,0,0,1-1.15-2c0-.73.52-1,1.15-.66A2.53,2.53,0,0,1,59.39,54.56Z"/><path class="cls-6" d="M76.4,66.48l-2.35-1.36a1.53,1.53,0,0,1-.64-1.22V61.41c0-.46.29-.68.64-.48l2.35,1.36A1.53,1.53,0,0,1,77,63.51V66C77,66.46,76.75,66.68,76.4,66.48Z"/><path class="cls-4" d="M79.8,90.45,30.15,61.79a4.81,4.81,0,0,1-2-3.84V48.48c0-1.48.9-2.16,2-1.52L79.8,75.62a4.82,4.82,0,0,1,2,3.85v9.46C81.81,90.41,80.91,91.09,79.8,90.45Z"/><path class="cls-8" d="M78.37,87.13l-46.79-27a2.44,2.44,0,0,1-1-1.95V51.05c0-.75.45-1.1,1-.77l46.79,27a2.46,2.46,0,0,1,1,1.95v7.12C79.39,87.11,78.93,87.46,78.37,87.13Z"/><path class="cls-3" d="M41.33,62.15l-7-4a2.41,2.41,0,0,1-1-1.9h0c0-.73.45-1.06,1-.75l7,4a2.35,2.35,0,0,1,1,1.89h0C42.32,62.13,41.88,62.46,41.33,62.15Z"/><path class="cls-7" d="M47.28,64.26c0,.73-.51,1-1.15.66a2.52,2.52,0,0,1-1.14-2c0-.73.51-1,1.14-.66A2.52,2.52,0,0,1,47.28,64.26Z"/><path class="cls-6" d="M51.32,66.59c0,.73-.51,1-1.15.67a2.55,2.55,0,0,1-1.14-2c0-.73.51-1,1.14-.66A2.52,2.52,0,0,1,51.32,66.59Z"/><path class="cls-3" d="M55.36,68.93c0,.73-.52,1-1.15.66a2.55,2.55,0,0,1-1.14-2c0-.73.51-1,1.14-.66A2.56,2.56,0,0,1,55.36,68.93Z"/><ellipse class="cls-6" cx="58.25" cy="70.6" rx="0.93" ry="1.62" transform="translate(-27.5 38.59) rotate(-30)"/><path class="cls-6" d="M76.4,83.17l-2.35-1.36a1.53,1.53,0,0,1-.64-1.21V78.11c0-.47.29-.69.64-.48L76.4,79A1.55,1.55,0,0,1,77,80.2v2.49C77,83.16,76.75,83.37,76.4,83.17Z"/><path class="cls-4" d="M79.8,107.15,30.15,78.48a4.81,4.81,0,0,1-2-3.84V65.17c0-1.48.9-2.16,2-1.52L79.8,92.31a4.85,4.85,0,0,1,2,3.85v9.46C81.81,107.11,80.91,107.79,79.8,107.15Z"/><path class="cls-8" d="M78.37,103.83l-46.79-27a2.44,2.44,0,0,1-1-2V67.74c0-.75.45-1.09,1-.77L78.37,94a2.45,2.45,0,0,1,1,2v7.11C79.39,103.81,78.93,104.15,78.37,103.83Z"/><path class="cls-3" d="M41.33,78.84l-7-4a2.39,2.39,0,0,1-1-1.89h0c0-.73.45-1.07,1-.75l7,4a2.35,2.35,0,0,1,1,1.89h0C42.32,78.82,41.88,79.16,41.33,78.84Z"/><path class="cls-7" d="M47.28,81c0,.73-.51,1-1.15.66a2.55,2.55,0,0,1-1.14-2c0-.73.51-1,1.14-.66A2.54,2.54,0,0,1,47.28,81Z"/><path class="cls-6" d="M51.32,83.29c0,.73-.51,1-1.15.66A2.53,2.53,0,0,1,49,82c0-.73.51-1,1.14-.66A2.5,2.5,0,0,1,51.32,83.29Z"/><path class="cls-3" d="M55.36,85.62c0,.73-.52,1-1.15.66a2.53,2.53,0,0,1-1.14-2c0-.73.51-1,1.14-.66A2.53,2.53,0,0,1,55.36,85.62Z"/><path class="cls-6" d="M59.39,88c0,.73-.51,1-1.14.66a2.53,2.53,0,0,1-1.15-2c0-.73.52-1,1.15-.66A2.52,2.52,0,0,1,59.39,88Z"/><path class="cls-6" d="M76.4,99.86l-2.35-1.35a1.55,1.55,0,0,1-.64-1.22V94.8c0-.47.29-.68.64-.48l2.35,1.36A1.53,1.53,0,0,1,77,96.89v2.49C77,99.85,76.75,100.07,76.4,99.86Z"/><path class="cls-4" d="M79.8,123.84,30.15,95.18a4.85,4.85,0,0,1-2-3.85V81.87c0-1.49.9-2.17,2-1.53L79.8,109a4.81,4.81,0,0,1,2,3.84v9.47C81.81,123.8,80.91,124.48,79.8,123.84Z"/><path class="cls-8" d="M78.37,120.52l-46.79-27a2.42,2.42,0,0,1-1-2V84.44c0-.76.45-1.1,1-.78l46.79,27a2.46,2.46,0,0,1,1,1.95v7.12C79.39,120.5,78.93,120.85,78.37,120.52Z"/><path class="cls-3" d="M41.33,95.54l-7-4a2.38,2.38,0,0,1-1-1.89h0c0-.73.45-1.07,1-.75l7,4a2.38,2.38,0,0,1,1,1.9h0C42.32,95.52,41.88,95.85,41.33,95.54Z"/><path class="cls-6" d="M47.28,97.65c0,.73-.51,1-1.15.66a2.52,2.52,0,0,1-1.14-2c0-.73.51-1,1.14-.66A2.5,2.5,0,0,1,47.28,97.65Z"/><ellipse class="cls-6" cx="50.17" cy="99.32" rx="0.93" ry="1.62" transform="translate(-42.94 38.4) rotate(-30)"/><path class="cls-3" d="M55.36,102.31c0,.73-.52,1-1.15.66a2.52,2.52,0,0,1-1.14-2c0-.73.51-1,1.14-.66A2.53,2.53,0,0,1,55.36,102.31Z"/><path class="cls-6" d="M59.39,104.64c0,.73-.51,1-1.14.66a2.53,2.53,0,0,1-1.15-2c0-.73.52-1,1.15-.66A2.53,2.53,0,0,1,59.39,104.64Z"/><path class="cls-3" d="M76.4,116.56l-2.35-1.36a1.53,1.53,0,0,1-.64-1.22v-2.49c0-.46.29-.68.64-.48l2.35,1.36a1.53,1.53,0,0,1,.64,1.22v2.49C77,116.54,76.75,116.76,76.4,116.56Z"/><path class="cls-4" d="M79.8,140.53,30.15,111.87a4.81,4.81,0,0,1-2-3.84V98.56c0-1.48.9-2.16,2-1.52L79.8,125.7a4.81,4.81,0,0,1,2,3.84V139C81.81,140.49,80.91,141.17,79.8,140.53Z"/><path class="cls-8" d="M78.37,137.21l-46.79-27a2.44,2.44,0,0,1-1-2v-7.12c0-.75.45-1.1,1-.77l46.79,27a2.46,2.46,0,0,1,1,1.95v7.12C79.39,137.19,78.93,137.54,78.37,137.21Z"/><path class="cls-3" d="M41.33,112.23l-7-4a2.41,2.41,0,0,1-1-1.9h0c0-.73.45-1.06,1-.75l7,4a2.35,2.35,0,0,1,1,1.89h0C42.32,112.21,41.88,112.54,41.33,112.23Z"/><path class="cls-6" d="M47.28,114.34c0,.73-.51,1-1.15.66A2.52,2.52,0,0,1,45,113c0-.73.51-1,1.14-.66A2.52,2.52,0,0,1,47.28,114.34Z"/><path class="cls-7" d="M51.32,116.67c0,.73-.51,1-1.15.66a2.52,2.52,0,0,1-1.14-2c0-.73.51-1,1.14-.66A2.52,2.52,0,0,1,51.32,116.67Z"/><path class="cls-3" d="M55.36,119c0,.73-.52,1-1.15.66a2.55,2.55,0,0,1-1.14-2c0-.73.51-1,1.14-.66A2.56,2.56,0,0,1,55.36,119Z"/><path class="cls-7" d="M59.39,121.34c0,.73-.51,1-1.14.66a2.56,2.56,0,0,1-1.15-2c0-.73.52-1,1.15-.66A2.55,2.55,0,0,1,59.39,121.34Z"/><path class="cls-3" d="M76.4,133.25l-2.35-1.36a1.53,1.53,0,0,1-.64-1.21v-2.49c0-.47.29-.69.64-.48l2.35,1.35a1.55,1.55,0,0,1,.64,1.22v2.49C77,133.24,76.75,133.45,76.4,133.25Z"/><path class="cls-4" d="M79.8,157.23,30.15,128.56a4.81,4.81,0,0,1-2-3.84v-9.47c0-1.48.9-2.16,2-1.52L79.8,142.39a4.85,4.85,0,0,1,2,3.85v9.46C81.81,157.19,80.91,157.87,79.8,157.23Z"/><path class="cls-8" d="M78.37,153.91l-46.79-27a2.44,2.44,0,0,1-1-2v-7.12c0-.75.45-1.1,1-.77l46.79,27a2.45,2.45,0,0,1,1,2v7.11C79.39,153.89,78.93,154.23,78.37,153.91Z"/><path class="cls-3" d="M41.33,128.92l-7-4a2.39,2.39,0,0,1-1-1.89h0c0-.73.45-1.07,1-.75l7,4a2.35,2.35,0,0,1,1,1.89h0C42.32,128.9,41.88,129.24,41.33,128.92Z"/><ellipse class="cls-6" cx="46.13" cy="130.37" rx="0.93" ry="1.62" transform="translate(-59.01 40.54) rotate(-30)"/><path class="cls-6" d="M51.32,133.37c0,.73-.51,1-1.15.66a2.53,2.53,0,0,1-1.14-2c0-.73.51-1,1.14-.67A2.54,2.54,0,0,1,51.32,133.37Z"/><path class="cls-3" d="M55.36,135.7c0,.73-.52,1-1.15.66a2.53,2.53,0,0,1-1.14-2c0-.73.51-1,1.14-.66A2.53,2.53,0,0,1,55.36,135.7Z"/><path class="cls-6" d="M59.39,138c0,.73-.51,1-1.14.66a2.53,2.53,0,0,1-1.15-2c0-.73.52-1,1.15-.66A2.52,2.52,0,0,1,59.39,138Z"/><path class="cls-6" d="M76.4,149.94l-2.35-1.36a1.51,1.51,0,0,1-.64-1.21v-2.49c0-.47.29-.68.64-.48l2.35,1.36A1.51,1.51,0,0,1,77,147v2.49C77,149.93,76.75,150.15,76.4,149.94Z"/><path class="cls-4" d="M79.8,173.92,30.15,145.26a4.85,4.85,0,0,1-2-3.85V132c0-1.49.9-2.17,2-1.53L79.8,159.09a4.81,4.81,0,0,1,2,3.84v9.47C81.81,173.88,80.91,174.56,79.8,173.92Z"/><path class="cls-8" d="M78.37,170.6l-46.79-27a2.42,2.42,0,0,1-1-2v-7.11c0-.76.45-1.1,1-.78l46.79,27a2.46,2.46,0,0,1,1,2v7.12C79.39,170.58,78.93,170.92,78.37,170.6Z"/><path class="cls-3" d="M41.33,145.61l-7-4a2.38,2.38,0,0,1-1-1.89h0c0-.73.45-1.07,1-.75l7,4a2.38,2.38,0,0,1,1,1.9h0C42.32,145.6,41.88,145.93,41.33,145.61Z"/><path class="cls-7" d="M48.56,148.63c0,1.38-1,1.94-2.17,1.25a4.79,4.79,0,0,1-2.16-3.74c0-1.38,1-1.94,2.16-1.25A4.76,4.76,0,0,1,48.56,148.63Z"/><path class="cls-6" d="M56.92,153.53c0,.73-.51,1-1.15.66a2.55,2.55,0,0,1-1.14-2c0-.73.51-1,1.14-.66A2.54,2.54,0,0,1,56.92,153.53Z"/><path class="cls-3" d="M61,155.86c0,.73-.52,1-1.15.66a2.53,2.53,0,0,1-1.14-2c0-.73.51-1,1.14-.66A2.53,2.53,0,0,1,61,155.86Z"/><path class="cls-6" d="M65,158.19c0,.73-.52,1-1.15.66a2.53,2.53,0,0,1-1.14-2c0-.73.51-1,1.14-.66A2.53,2.53,0,0,1,65,158.19Z"/><path class="cls-3" d="M76.4,166.64l-2.35-1.36a1.53,1.53,0,0,1-.64-1.22v-2.49c0-.46.29-.68.64-.48l2.35,1.36a1.53,1.53,0,0,1,.64,1.22v2.49C77,166.62,76.75,166.84,76.4,166.64Z"/><path class="cls-4" d="M76.5,215.83a1,1,0,0,1-.49-.13L19.57,183.63a2.16,2.16,0,0,1-1.11-1.88,2.21,2.21,0,0,1,1.08-1.91l24.21-14.28a2.86,2.86,0,0,0,1.39-2.43V147.38a1,1,0,0,1,2,0v15.75a4.84,4.84,0,0,1-2.37,4.15L20.56,181.57a.18.18,0,0,0,0,.32L77,214a1,1,0,0,1-.5,1.86Z"/><rect class="cls-4" x="59.39" y="200.95" width="5.36" height="11.57" transform="translate(272.28 255.72) rotate(119.83)"/><path class="cls-4" d="M55.16,205A4.18,4.18,0,0,1,57,201.66c1.05-.6,1.9-.12,1.9,1.09A4.19,4.19,0,0,1,57.05,206C56,206.65,55.16,206.16,55.16,205Z"/><rect class="cls-4" x="68.86" y="204.04" width="8.69" height="18.15" transform="translate(294.49 255.63) rotate(119.83)"/><path class="cls-2" d="M66.77,206.34l-3.4-2A6.94,6.94,0,0,0,60.7,209l3.4,2A6.94,6.94,0,0,0,66.77,206.34Z"/><path class="cls-4" d="M62.26,210.39a6.81,6.81,0,0,1,3.06-5.33c1.69-1,3.07-.2,3.08,1.76a6.78,6.78,0,0,1-3.06,5.33C63.65,213.13,62.27,212.34,62.26,210.39Z"/><path class="cls-3" d="M58.32,203.71c-.49-.28-.49-.74,0-1a2,2,0,0,1,1.78,0c.49.28.49.74,0,1A2,2,0,0,1,58.32,203.71Z"/><rect class="cls-4" x="47.18" y="208.32" width="5.36" height="11.57" transform="translate(260.4 277.36) rotate(119.83)"/><path class="cls-4" d="M43,212.33A4.19,4.19,0,0,1,44.84,209c1-.61,1.89-.12,1.9,1.09a4.19,4.19,0,0,1-1.89,3.29C43.8,214,43,213.54,43,212.33Z"/><rect class="cls-4" x="56.65" y="211.42" width="8.69" height="18.15" transform="translate(282.62 277.26) rotate(119.83)"/><path class="cls-2" d="M54.56,213.71l-3.39-2a6.94,6.94,0,0,0-2.67,4.66l3.4,1.94A6.94,6.94,0,0,0,54.56,213.71Z"/><path class="cls-4" d="M50.06,217.76a6.77,6.77,0,0,1,3.06-5.33c1.69-1,3.07-.19,3.07,1.77a6.79,6.79,0,0,1-3,5.33C51.44,220.51,50.07,219.72,50.06,217.76Z"/><path class="cls-3" d="M46.12,211.09a.54.54,0,0,1,0-1,2,2,0,0,1,1.78,0c.49.28.5.74,0,1A2,2,0,0,1,46.12,211.09Z"/><path class="cls-4" d="M248.58,126a.91.91,0,0,1-.23,0,1,1,0,0,1-.75-1.19l9.76-42.35a1,1,0,0,1,1.2-.75,1,1,0,0,1,.75,1.2l-9.76,42.34A1,1,0,0,1,248.58,126Z"/><path class="cls-4" d="M235.62,123a.9.9,0,0,1-.23,0,1,1,0,0,1-.75-1.2l9.75-42.34a1,1,0,1,1,2,.45l-9.75,42.34A1,1,0,0,1,235.62,123Z"/><path class="cls-4" d="M222.65,120a.83.83,0,0,1-.22,0,1,1,0,0,1-.75-1.2l9.75-42.34a1,1,0,1,1,1.95.45l-9.75,42.34A1,1,0,0,1,222.65,120Z"/><rect class="cls-4" x="226.09" y="87.06" width="5.36" height="11.57" transform="translate(27.22 -49.76) rotate(13.19)"/><path class="cls-4" d="M229.05,100a4.18,4.18,0,0,1-3.69-.87,1.15,1.15,0,0,1,.5-2.13,4.18,4.18,0,0,1,3.69.87A1.15,1.15,0,0,1,229.05,100Z"/><rect class="cls-4" x="227.36" y="71.28" width="8.69" height="18.15" transform="translate(24.45 -50.76) rotate(13.19)"/><path class="cls-2" d="M227.05,88.46l-.89,3.81a6.92,6.92,0,0,0,5.22,1.22l.89-3.81A6.94,6.94,0,0,0,227.05,88.46Z"/><path class="cls-4" d="M232.22,91.61a6.77,6.77,0,0,1-6-1.4c-1.43-1.34-1.07-2.89.81-3.45a6.78,6.78,0,0,1,6,1.4C234.46,89.5,234.09,91,232.22,91.61Z"/><path class="cls-3" d="M227,97.3a.54.54,0,0,1-1,.3,2,2,0,0,1-.52-1.71c.13-.55.57-.68,1-.29A2,2,0,0,1,227,97.3Z"/><rect class="cls-4" x="238.11" y="94.22" width="5.36" height="11.57" transform="translate(29.17 -52.31) rotate(13.19)"/><path class="cls-4" d="M241.07,107.13a4.17,4.17,0,0,1-3.69-.86,1.15,1.15,0,0,1,.5-2.13,4.21,4.21,0,0,1,3.69.86C242.45,105.83,242.23,106.79,241.07,107.13Z"/><rect class="cls-4" x="239.38" y="78.43" width="8.69" height="18.15" transform="translate(26.4 -53.31) rotate(13.19)"/><path class="cls-2" d="M239.07,95.61l-.89,3.82a7,7,0,0,0,5.22,1.22l.89-3.81A7,7,0,0,0,239.07,95.61Z"/><path class="cls-4" d="M244.24,98.77a6.8,6.8,0,0,1-6-1.4c-1.43-1.34-1.07-2.89.81-3.46a6.81,6.81,0,0,1,6,1.4C246.48,96.66,246.11,98.2,244.24,98.77Z"/><path class="cls-3" d="M239,104.46c-.13.55-.57.68-1,.29a2,2,0,0,1-.51-1.7c.12-.55.56-.68,1-.3A2,2,0,0,1,239,104.46Z"/><rect class="cls-4" x="250.27" y="101.32" width="5.36" height="11.57" transform="translate(31.12 -54.9) rotate(13.19)"/><path class="cls-4" d="M253.22,114.24a4.18,4.18,0,0,1-3.69-.87,1.15,1.15,0,0,1,.5-2.13,4.18,4.18,0,0,1,3.69.87A1.15,1.15,0,0,1,253.22,114.24Z"/><rect class="cls-4" x="251.53" y="85.54" width="8.69" height="18.15" transform="translate(28.34 -55.9) rotate(13.19)"/><path class="cls-2" d="M251.22,102.72l-.89,3.81a6.93,6.93,0,0,0,5.22,1.22l.89-3.81A6.92,6.92,0,0,0,251.22,102.72Z"/><path class="cls-4" d="M256.39,105.87a6.78,6.78,0,0,1-6-1.4c-1.43-1.34-1.06-2.89.81-3.46a6.81,6.81,0,0,1,6,1.41C258.63,103.76,258.27,105.3,256.39,105.87Z"/><path class="cls-3" d="M251.13,111.56c-.13.55-.57.68-1,.3a2,2,0,0,1-.51-1.71c.13-.55.57-.68,1-.29A2,2,0,0,1,251.13,111.56Z"/><path class="cls-1" d="M169,312.64l-116.14-67c-3.29-1.9-2.88-5.21.92-7.4l79.08-45.65c3.8-2.19,9.53-2.43,12.82-.53l116.14,67.06c3.29,1.89,2.88,5.21-.92,7.4l-79.08,45.64C178,314.3,172.3,314.54,169,312.64Z"/><path class="cls-6" d="M289,140.28l-116.14-67a4.7,4.7,0,0,0-3.93-.49h0l-.21.08-.05,0-4.2,1.61,3.77,1.84a1.29,1.29,0,0,0-.05.21L149.3,162.6c-1,4.31.95,9.34,4.23,11.24l113.35,65.44-.4,4.8,4.59-1.78a6.44,6.44,0,0,0,3.28-4.67l18.92-86.11C294.22,147.21,292.32,142.18,289,140.28Z"/><path class="cls-2" d="M289,140.28l-116.14-67a4.7,4.7,0,0,0-3.93-.49h0l-.21.08-.05,0-4.2,1.61,3.77,1.84a1.29,1.29,0,0,0-.05.21l-12.47,56.75,56.83,44.27,80.12-32.6A9,9,0,0,0,289,140.28Z"/><path class="cls-9" d="M284.66,153.52l8.84-3.77a11.07,11.07,0,0,0-3.59-8.85l-14,5.89Z"/><path class="cls-3" d="M262.44,243.62,146.3,176.57c-3.28-1.9-5.18-6.93-4.23-11.24L161,79.22c.94-4.31,4.37-6.27,7.66-4.37l116.14,67.06c3.29,1.89,5.18,6.92,4.24,11.23l-18.92,86.12C269.16,243.57,265.73,245.52,262.44,243.62Z"/><path class="cls-7" d="M259.93,237.22l-109.23-63c-3-1.74-4.74-6.34-3.88-10.29l17.31-78.8c.87-3.94,4-5.73,7-4l109.23,63c3,1.73,4.74,6.34,3.87,10.28l-17.31,78.8C266.07,237.17,262.93,239,259.93,237.22Z"/><path class="cls-7" d="M259.93,237.22l-109.23-63c-3-1.74-4.74-6.34-3.88-10.29l17.31-78.8c.87-3.94,4-5.73,7-4l109.23,63c3,1.73,4.74,6.34,3.87,10.28l-17.31,78.8C266.07,237.17,262.93,239,259.93,237.22Z"/><path class="cls-6" d="M264.05,246.54l-15.88-2.09L145.69,185.28c-3.29-1.9-9-1.66-12.82.53L60.25,227.72l-9.6-1.27v5.45h0a3.76,3.76,0,0,0,2.21,3.37l116.14,67c3.29,1.9,9,1.66,12.82-.53l79.08-45.64c2.14-1.24,3.2-2.82,3.14-4.31h0Z"/><path class="cls-2" d="M187.05,209.16,179.77,205H99.72L60.25,227.72l-9.6-1.27v5.45h0a3.76,3.76,0,0,0,2.21,3.37l116.14,67a12.08,12.08,0,0,0,6.62,1.24Z"/><path class="cls-4" d="M54.91,227l-4.26-.57v5.45h0a3.76,3.76,0,0,0,2.21,3.37l2,1.18Z"/><path class="cls-9" d="M170.18,302.87a14.88,14.88,0,0,0,10.89-.68V290H170.18Z"/><path class="cls-3" d="M169,296.88l-116.14-67c-3.29-1.9-2.88-5.21.92-7.4l79.08-45.65c3.8-2.19,9.53-2.43,12.82-.53l116.14,67.06c3.29,1.89,2.88,5.21-.92,7.4l-79.08,45.64C178,298.54,172.3,298.78,169,296.88Z"/><path class="cls-7" d="M260.91,248.72l-79.08,45.64c-3.8,2.19-9.53,2.43-12.82.53l-116.14-67a4.28,4.28,0,0,1-2-2.24c-.52,1.56.14,3.13,2,4.23l116.14,67c3.29,1.9,9,1.66,12.82-.53l79.08-45.64c2.55-1.48,3.57-3.45,3-5.17A6.25,6.25,0,0,1,260.91,248.72Z"/><path class="cls-6" d="M102.26,207.63l-5.25-3c-.42-.24-.37-.66.12-1l6.2-3.58A1.85,1.85,0,0,1,105,200l5.25,3c.42.24.37.67-.12.95l-6.2,3.58A1.85,1.85,0,0,1,102.26,207.63Z"/><path class="cls-6" d="M110.38,212.31l-5.26-3c-.42-.24-.36-.67.12-.95l6.21-3.58a1.83,1.83,0,0,1,1.64-.07l5.26,3c.42.25.37.67-.12.95l-6.2,3.59A1.82,1.82,0,0,1,110.38,212.31Z"/><path class="cls-6" d="M118.5,217l-5.26-3c-.42-.24-.37-.66.12-1l6.2-3.58a1.82,1.82,0,0,1,1.65-.06l5.25,3c.42.24.37.67-.12.95l-6.2,3.58A1.83,1.83,0,0,1,118.5,217Z"/><path class="cls-6" d="M129.72,213.13l-5.26-3c-.42-.25-.37-.67.12-.95l5.21-3a1.85,1.85,0,0,1,1.65-.07l5.25,3c.42.25.37.67-.12,1l-5.2,3A1.85,1.85,0,0,1,129.72,213.13Z"/><path class="cls-6" d="M137.83,217.81l-5.25-3c-.42-.24-.37-.67.12-.95l5.2-3a1.82,1.82,0,0,1,1.65-.06l5.26,3c.42.24.36.67-.12,1l-5.21,3A1.82,1.82,0,0,1,137.83,217.81Z"/><path class="cls-6" d="M146,222.5l-5.26-3c-.42-.25-.36-.67.12-.95l5.21-3a1.85,1.85,0,0,1,1.65-.07l5.25,3c.42.24.37.66-.12,1l-5.2,3A1.85,1.85,0,0,1,146,222.5Z"/><path class="cls-6" d="M154.06,227.19l-5.25-3c-.42-.24-.37-.67.12-1l5.2-3a1.82,1.82,0,0,1,1.65-.06l5.26,3c.42.24.36.67-.12,1l-5.21,3A1.85,1.85,0,0,1,154.06,227.19Z"/><path class="cls-6" d="M162.18,231.87l-5.26-3c-.42-.25-.36-.67.12-1l5.21-3a1.85,1.85,0,0,1,1.65-.07l5.25,3c.42.24.37.67-.12,1l-5.2,3A1.85,1.85,0,0,1,162.18,231.87Z"/><path class="cls-6" d="M170.3,236.56l-5.26-3c-.42-.24-.37-.67.12-1l5.21-3a1.77,1.77,0,0,1,1.64-.07l5.26,3c.42.24.37.67-.12.95l-5.21,3A1.83,1.83,0,0,1,170.3,236.56Z"/><path class="cls-6" d="M178.41,241.24l-5.25-3c-.43-.25-.37-.67.11-1l5.21-3a1.85,1.85,0,0,1,1.65-.07l5.25,3c.42.24.37.67-.12.95l-5.2,3A1.82,1.82,0,0,1,178.41,241.24Z"/><path class="cls-6" d="M186.53,245.93l-5.26-3c-.42-.24-.37-.67.12-.95l5.21-3a1.8,1.8,0,0,1,1.64-.07l5.26,3c.42.25.37.67-.12.95l-5.21,3A1.83,1.83,0,0,1,186.53,245.93Z"/><path class="cls-6" d="M194.64,250.61l-5.25-3c-.43-.25-.37-.67.11-1l5.21-3a1.85,1.85,0,0,1,1.65-.07l5.25,3c.42.24.37.67-.12.95l-5.2,3A1.79,1.79,0,0,1,194.64,250.61Z"/><path class="cls-6" d="M202.76,255.3l-5.26-3c-.42-.24-.37-.67.12-.95l5.21-3a1.83,1.83,0,0,1,1.64-.07l5.26,3c.42.25.37.67-.12.95l-5.21,3A1.83,1.83,0,0,1,202.76,255.3Z"/><path class="cls-2" d="M141.68,210.91l-5.26-3c-.42-.25-.37-.67.12-.95l5.21-3a1.83,1.83,0,0,1,1.64-.07l5.26,3c.42.24.37.67-.12,1l-5.21,3A1.83,1.83,0,0,1,141.68,210.91Z"/><path class="cls-2" d="M133.44,206.16l-5.26-3c-.42-.24-.36-.67.12-1l5.21-3a1.79,1.79,0,0,1,1.65-.07l5.25,3c.42.24.37.67-.12,1l-5.2,3A1.85,1.85,0,0,1,133.44,206.16Z"/><path class="cls-6" d="M125.19,201.39l-11.32-6.53c-.42-.25-.37-.67.12-1l5.21-3a1.83,1.83,0,0,1,1.64-.07l11.32,6.54c.42.24.37.67-.12.95l-5.2,3A1.79,1.79,0,0,1,125.19,201.39Z"/><path class="cls-6" d="M131,195.6l-9.19-5.3c-.42-.25-.37-.67.12-1l5.21-3a1.83,1.83,0,0,1,1.64-.07l9.19,5.31c.42.24.37.66-.12.95l-5.21,3A1.83,1.83,0,0,1,131,195.6Z"/><path class="cls-2" d="M149.79,215.6l-5.25-3c-.43-.24-.37-.67.11-.95l5.21-3a1.79,1.79,0,0,1,1.65-.07l5.25,3c.42.25.37.67-.12,1l-5.2,3A1.85,1.85,0,0,1,149.79,215.6Z"/><path class="cls-6" d="M157.91,220.28l-5.26-3c-.42-.25-.37-.67.12-.95l5.21-3a1.83,1.83,0,0,1,1.64-.07l5.26,3c.42.24.37.67-.12,1l-5.21,3A1.8,1.8,0,0,1,157.91,220.28Z"/><path class="cls-6" d="M166,225l-5.25-3c-.42-.24-.37-.67.12-1l5.2-3a1.82,1.82,0,0,1,1.65-.07l5.25,3c.43.25.37.67-.12.95l-5.2,3A1.85,1.85,0,0,1,166,225Z"/><path class="cls-6" d="M174.14,229.65l-5.26-3c-.42-.24-.37-.67.12-1l5.21-3a1.83,1.83,0,0,1,1.64-.07l5.26,3c.42.24.37.67-.12,1l-5.21,3A1.77,1.77,0,0,1,174.14,229.65Z"/><path class="cls-6" d="M182.25,234.34l-5.25-3c-.42-.24-.37-.67.12-1l5.2-3a1.85,1.85,0,0,1,1.65-.07l5.25,3c.43.25.37.67-.11.95l-5.21,3A1.85,1.85,0,0,1,182.25,234.34Z"/><path class="cls-6" d="M190.37,239l-5.26-3c-.42-.24-.37-.67.12-1l5.21-3a1.83,1.83,0,0,1,1.64-.07l5.26,3c.42.24.37.67-.12.95L192,239A1.8,1.8,0,0,1,190.37,239Z"/><path class="cls-6" d="M198.48,243.71l-5.25-3c-.42-.24-.37-.66.12-.95l5.2-3a1.85,1.85,0,0,1,1.65-.07l5.25,3c.43.25.37.67-.11.95l-5.21,3A1.85,1.85,0,0,1,198.48,243.71Z"/><path class="cls-6" d="M206.6,248.39l-5.26-3c-.42-.24-.37-.67.12-1l5.21-3a1.8,1.8,0,0,1,1.64-.06l5.26,3c.42.24.37.67-.12.95l-5.21,3A1.8,1.8,0,0,1,206.6,248.39Z"/><path class="cls-6" d="M214.71,253.08l-5.25-3c-.42-.25-.37-.67.12-1l5.2-3a1.85,1.85,0,0,1,1.65-.07l5.25,3c.43.25.37.67-.11.95l-5.21,3A1.85,1.85,0,0,1,214.71,253.08Z"/><path class="cls-6" d="M229.14,261.41l-11.47-6.62c-.42-.24-.36-.67.12-.95l5.21-3a1.85,1.85,0,0,1,1.65-.07l11.46,6.62c.42.25.37.67-.12.95l-5.2,3A1.85,1.85,0,0,1,229.14,261.41Z"/><path class="cls-6" d="M244.94,252.29l-9.68-5.59c-.42-.24-.37-.67.12-.95l5.21-3a1.83,1.83,0,0,1,1.64-.07l9.68,5.59c.42.25.37.67-.12,1l-5.2,3A1.85,1.85,0,0,1,244.94,252.29Z"/><path class="cls-6" d="M164,214.68l-5.25-3c-.42-.25-.37-.67.12-1l5.2-3a1.85,1.85,0,0,1,1.65-.07l5.25,3c.43.24.37.66-.11,1l-5.21,3A1.85,1.85,0,0,1,164,214.68Z"/><path class="cls-6" d="M155.69,209.88l-5.26-3c-.42-.24-.37-.67.12-1l5.21-3a1.83,1.83,0,0,1,1.64-.07l5.26,3c.42.25.37.67-.12,1l-5.21,3A1.83,1.83,0,0,1,155.69,209.88Z"/><path class="cls-2" d="M147.37,205.08l-5.26-3c-.42-.24-.37-.67.12-.95l5.21-3a1.77,1.77,0,0,1,1.64-.07l5.26,3c.42.24.37.67-.12.95L149,205A1.83,1.83,0,0,1,147.37,205.08Z"/><path class="cls-6" d="M139.05,200.27l-5.25-3c-.43-.24-.37-.67.11-1l5.21-3a1.82,1.82,0,0,1,1.65-.06l5.25,3c.42.24.37.67-.12.95l-5.2,3A1.82,1.82,0,0,1,139.05,200.27Z"/><path class="cls-6" d="M172.12,219.37l-5.26-3c-.42-.24-.37-.67.12-1l5.21-3a1.8,1.8,0,0,1,1.64-.06l5.26,3c.42.24.37.67-.12.95l-5.21,3A1.83,1.83,0,0,1,172.12,219.37Z"/><path class="cls-6" d="M180.23,224.05,175,221c-.42-.25-.37-.67.12-1l5.2-3A1.85,1.85,0,0,1,182,217l5.25,3c.43.24.37.66-.11.95l-5.21,3A1.85,1.85,0,0,1,180.23,224.05Z"/><path class="cls-6" d="M188.35,228.74l-5.26-3c-.42-.24-.37-.67.12-.95l5.21-3a1.77,1.77,0,0,1,1.64-.07l5.26,3c.42.24.37.67-.12.95l-5.21,3A1.83,1.83,0,0,1,188.35,228.74Z"/><path class="cls-6" d="M196.46,233.42l-5.25-3c-.42-.25-.37-.67.12-.95l5.2-3a1.85,1.85,0,0,1,1.65-.07l5.26,3c.42.24.36.67-.12.95l-5.21,3A1.85,1.85,0,0,1,196.46,233.42Z"/><path class="cls-6" d="M204.58,238.11l-5.26-3c-.42-.24-.36-.67.12-.95l5.21-3a1.79,1.79,0,0,1,1.65-.07l5.25,3c.42.25.37.67-.12.95l-5.2,3A1.85,1.85,0,0,1,204.58,238.11Z"/><path class="cls-6" d="M212.69,242.79l-5.25-3c-.42-.25-.37-.67.12-.95l5.2-3a1.85,1.85,0,0,1,1.65-.07l5.26,3c.42.24.36.67-.12.95l-5.21,3A1.82,1.82,0,0,1,212.69,242.79Z"/><path class="cls-6" d="M220.81,247.48l-5.26-3c-.42-.24-.36-.67.12-.95l5.21-3a1.82,1.82,0,0,1,1.65-.07l5.25,3c.42.25.37.67-.12,1l-5.2,3A1.85,1.85,0,0,1,220.81,247.48Z"/><path class="cls-6" d="M228.92,252.16l-5.25-3c-.42-.25-.37-.67.12-.95l5.21-3a1.83,1.83,0,0,1,1.64-.07l5.26,3c.42.24.37.67-.12,1l-5.21,3A1.79,1.79,0,0,1,228.92,252.16Z"/><path class="cls-6" d="M237,256.85l-5.25-3c-.43-.24-.37-.67.11-.95l5.21-3a1.85,1.85,0,0,1,1.65-.07l5.25,3c.42.25.37.67-.12,1l-5.2,3A1.85,1.85,0,0,1,237,256.85Z"/><path class="cls-6" d="M159.73,203.09l-5.26-3c-.42-.25-.36-.67.12-.95l5.21-3a1.85,1.85,0,0,1,1.65-.07l5.25,3c.42.24.37.67-.12,1l-5.2,3A1.85,1.85,0,0,1,159.73,203.09Z"/><path class="cls-6" d="M151.65,198.43l-5.25-3c-.42-.24-.37-.66.12-.95l5.21-3a1.83,1.83,0,0,1,1.64-.07l5.26,3c.42.25.37.67-.12.95l-5.21,3A1.85,1.85,0,0,1,151.65,198.43Z"/><path class="cls-6" d="M143.58,193.77l-5.25-3c-.43-.24-.37-.67.11-.95l5.21-3a1.82,1.82,0,0,1,1.65-.07l5.25,3c.42.25.37.67-.12.95l-5.2,3A1.85,1.85,0,0,1,143.58,193.77Z"/><path class="cls-6" d="M135.51,189.1l-5.26-3c-.42-.24-.37-.67.12-.95l5.21-3a1.8,1.8,0,0,1,1.64-.06l5.26,3c.42.24.37.67-.12.95l-5.21,3A1.8,1.8,0,0,1,135.51,189.1Z"/><path class="cls-6" d="M143.81,184.31l-5.26-3c-.42-.25-.37-.67.12-.95l1.72-1a1.85,1.85,0,0,1,1.65-.07l5.25,3c.43.24.37.67-.11.95l-1.73,1A1.83,1.83,0,0,1,143.81,184.31Z"/><path class="cls-6" d="M154.35,190.39l-5.26-3c-.42-.24-.37-.67.12-1l1.72-1a1.82,1.82,0,0,1,1.65-.07l5.25,3c.42.25.37.67-.12,1l-1.72,1A1.8,1.8,0,0,1,154.35,190.39Z"/><path class="cls-6" d="M162.39,195l-5.26-3c-.42-.24-.37-.67.12-.95l1.72-1a1.85,1.85,0,0,1,1.65-.07l5.25,3c.43.24.37.66-.12.95L164,195A1.83,1.83,0,0,1,162.39,195Z"/><path class="cls-6" d="M170.43,199.68l-5.26-3c-.42-.25-.37-.67.12-1l1.72-1a1.85,1.85,0,0,1,1.65-.07l5.25,3c.43.24.37.67-.11,1l-1.73,1A1.83,1.83,0,0,1,170.43,199.68Z"/><path class="cls-6" d="M178.47,204.32l-5.25-3c-.43-.24-.37-.67.11-.95l1.72-1a1.82,1.82,0,0,1,1.65-.06l5.26,3c.42.24.36.67-.12.95l-1.72,1A1.79,1.79,0,0,1,178.47,204.32Z"/><path class="cls-6" d="M223.36,230.24l-5.25-3c-.42-.25-.37-.67.12-1l1.72-1a1.8,1.8,0,0,1,1.64-.06l5.26,3c.42.24.37.67-.12,1l-1.72,1A1.82,1.82,0,0,1,223.36,230.24Z"/><path class="cls-6" d="M231.4,234.88l-5.25-3c-.42-.24-.37-.67.12-.95l1.72-1a1.77,1.77,0,0,1,1.64-.07l5.26,3c.42.25.37.67-.12.95l-1.72,1A1.82,1.82,0,0,1,231.4,234.88Z"/><path class="cls-6" d="M239.45,239.53l-5.26-3c-.42-.24-.37-.67.12-1l1.72-1a1.85,1.85,0,0,1,1.65-.07l5.25,3c.42.25.37.67-.12,1l-1.72,1A1.83,1.83,0,0,1,239.45,239.53Z"/><path class="cls-6" d="M247.49,244.17l-5.26-3c-.42-.25-.37-.67.12-.95l1.72-1a1.85,1.85,0,0,1,1.65-.07l5.25,3c.42.24.37.67-.12,1l-1.72,1A1.83,1.83,0,0,1,247.49,244.17Z"/><path class="cls-6" d="M167.85,207.78l-5.26-3c-.42-.24-.37-.67.12-1l5.21-3a1.77,1.77,0,0,1,1.64-.07l5.26,3c.42.25.37.67-.12.95l-5.21,3A1.83,1.83,0,0,1,167.85,207.78Z"/><path class="cls-6" d="M176,212.46l-5.25-3c-.43-.25-.37-.67.11-1l5.21-3a1.85,1.85,0,0,1,1.65-.07l5.25,3c.42.24.37.67-.12.95l-5.2,3A1.82,1.82,0,0,1,176,212.46Z"/><path class="cls-6" d="M184.08,217.15l-5.26-3c-.42-.24-.37-.67.12-1l5.21-3a1.8,1.8,0,0,1,1.64-.07l5.26,3c.42.25.37.67-.12.95l-5.21,3A1.83,1.83,0,0,1,184.08,217.15Z"/><path class="cls-6" d="M192.19,221.83l-5.25-3c-.43-.25-.37-.67.11-1l5.21-3a1.85,1.85,0,0,1,1.65-.07l5.25,3c.42.24.37.67-.12.95l-5.2,3A1.79,1.79,0,0,1,192.19,221.83Z"/><path class="cls-6" d="M200.31,226.52l-5.26-3c-.42-.24-.37-.67.12-.95l5.21-3a1.83,1.83,0,0,1,1.64-.07l5.26,3c.42.25.37.67-.12.95l-5.21,3A1.83,1.83,0,0,1,200.31,226.52Z"/><path class="cls-6" d="M208.42,231.2l-5.25-3c-.43-.24-.37-.67.11-.95l5.21-3a1.85,1.85,0,0,1,1.65-.07l5.25,3c.42.24.37.67-.12.95l-5.2,3A1.79,1.79,0,0,1,208.42,231.2Z"/><path class="cls-6" d="M216.54,235.89l-5.26-3c-.42-.24-.37-.66.12-.95l5.21-3a1.83,1.83,0,0,1,1.64-.07l5.26,3c.42.25.37.67-.12.95l-5.21,3A1.83,1.83,0,0,1,216.54,235.89Z"/><path class="cls-6" d="M224.65,240.57l-5.25-3c-.43-.24-.37-.67.12-.95l5.2-3a1.85,1.85,0,0,1,1.65-.07l5.25,3c.42.24.37.67-.12.95l-5.2,3A1.82,1.82,0,0,1,224.65,240.57Z"/><path class="cls-6" d="M232.77,245.26l-5.26-3c-.42-.25-.37-.67.12-1l5.21-3a1.83,1.83,0,0,1,1.64-.07l5.26,3c.42.25.37.67-.12,1l-5.21,3A1.83,1.83,0,0,1,232.77,245.26Z"/><path class="cls-6" d="M121.45,208.35,106,199.42c-.42-.24-.37-.67.12-.95l5.21-3a1.83,1.83,0,0,1,1.64-.07l15.48,8.94c.42.24.37.67-.12.95l-5.2,3A1.82,1.82,0,0,1,121.45,208.35Z"/><path class="cls-6" d="M221.15,265.92,205.67,257c-.42-.24-.37-.67.12-1l5.21-3a1.8,1.8,0,0,1,1.64-.06l15.48,8.93c.42.24.37.67-.12.95l-5.21,3A1.83,1.83,0,0,1,221.15,265.92Z"/><path class="cls-6" d="M188.69,257.53l-5.25-3c-.42-.24-.37-.67.12-1l6.2-3.58a1.83,1.83,0,0,1,1.64-.07l5.26,3c.42.24.37.67-.12.95l-6.2,3.58A1.85,1.85,0,0,1,188.69,257.53Z"/><path class="cls-6" d="M129.76,223.5l-8.4-4.85c-.43-.24-.37-.67.11-1l6.21-3.58a1.83,1.83,0,0,1,1.64-.07l8.41,4.85c.42.25.37.67-.12.95l-6.2,3.58A1.79,1.79,0,0,1,129.76,223.5Z"/><path class="cls-6" d="M180.87,253l-8.4-4.85c-.42-.24-.37-.67.12-.95l6.2-3.58a1.85,1.85,0,0,1,1.65-.07l8.4,4.85c.42.25.37.67-.12,1l-6.2,3.58A1.79,1.79,0,0,1,180.87,253Z"/><path class="cls-6" d="M141.47,230.26l-8.41-4.85c-.42-.24-.37-.67.12-.95l6.2-3.58a1.85,1.85,0,0,1,1.65-.07l8.41,4.85c.42.25.36.67-.12,1l-6.21,3.58A1.77,1.77,0,0,1,141.47,230.26Z"/><path class="cls-6" d="M141.09,220.84l36.54,21.1a.5.5,0,0,1,0,.95l-6.33,3.65a1.82,1.82,0,0,1-1.64,0l-36.54-21.1Z"/><path class="cls-6" d="M211.37,266l5.86,3.38c.34.2.3.55-.1.78l-2.54,1.47a1.5,1.5,0,0,1-1.35.05l-5.85-3.38c-.35-.2-.3-.55.1-.78l2.53-1.46A1.5,1.5,0,0,1,211.37,266Z"/><path class="cls-6" d="M203.19,261.3l5.85,3.38c.35.2.31.55-.09.78l-2.54,1.46a1.5,1.5,0,0,1-1.35.06l-5.85-3.38c-.35-.2-.31-.55.09-.78l2.54-1.47A1.5,1.5,0,0,1,203.19,261.3Z"/><path class="cls-6" d="M195.08,256.61l5.85,3.38c.35.2.3.55-.1.78l-2.54,1.47a1.48,1.48,0,0,1-1.34.05l-5.86-3.38c-.34-.2-.3-.55.1-.78l2.54-1.46A1.5,1.5,0,0,1,195.08,256.61Z"/><path class="cls-6" d="M207.67,258.71l5.86,3.38c.34.2.3.55-.1.78l-2.54,1.46a1.5,1.5,0,0,1-1.35.06L203.69,261c-.35-.2-.3-.55.1-.78l2.53-1.46A1.5,1.5,0,0,1,207.67,258.71Z"/><path class="cls-3" d="M196.92,115.09l-7.77-4.48a2.22,2.22,0,0,1-.94-2.3h0a1.08,1.08,0,0,1,1.66-.8l7.76,4.49a2.21,2.21,0,0,1,1,2.3h0A1.08,1.08,0,0,1,196.92,115.09Z"/><path class="cls-3" d="M215.42,125.77,204,119.16a2.22,2.22,0,0,1-.95-2.3h0a1.08,1.08,0,0,1,1.66-.79l11.45,6.61a2.21,2.21,0,0,1,1,2.3h0A1.08,1.08,0,0,1,215.42,125.77Z"/><path class="cls-3" d="M183.38,151.34l-7.76-4.48a2.22,2.22,0,0,1-1-2.3h0a1.08,1.08,0,0,1,1.66-.8l7.77,4.49a2.2,2.2,0,0,1,.94,2.3h0A1.08,1.08,0,0,1,183.38,151.34Z"/><path class="cls-3" d="M199.87,160.86l-11.45-6.61a2.24,2.24,0,0,1-.95-2.3h0a1.09,1.09,0,0,1,1.67-.79l11.45,6.61a2.2,2.2,0,0,1,.94,2.3h0A1.08,1.08,0,0,1,199.87,160.86Z"/><path class="cls-3" d="M174,109.21l-4.85-2.8a2.24,2.24,0,0,1-.95-2.3h0a1.08,1.08,0,0,1,1.66-.8l4.86,2.81a2.2,2.2,0,0,1,.94,2.3h0A1.08,1.08,0,0,1,174,109.21Z"/><path class="cls-3" d="M189,125.19l-14.82-8.56a2.24,2.24,0,0,1-.95-2.3h0a1.08,1.08,0,0,1,1.66-.8l14.83,8.56a2.22,2.22,0,0,1,.94,2.3h0A1.08,1.08,0,0,1,189,125.19Z"/><path class="cls-3" d="M176,132.39l-4.85-2.8a2.22,2.22,0,0,1-1-2.3h0a1.07,1.07,0,0,1,1.66-.79l4.85,2.8a2.21,2.21,0,0,1,.95,2.3h0A1.08,1.08,0,0,1,176,132.39Z"/><path class="cls-3" d="M202.37,177l-13-7.48a2.24,2.24,0,0,1-.95-2.3h0a1.08,1.08,0,0,1,1.67-.79l13,7.48a2.21,2.21,0,0,1,.95,2.3h0A1.08,1.08,0,0,1,202.37,177Z"/><path class="cls-3" d="M171.27,144.35l-3.11-1.8a2.22,2.22,0,0,1-.95-2.3h0a1.08,1.08,0,0,1,1.66-.79l3.12,1.79a2.22,2.22,0,0,1,.94,2.3h0A1.08,1.08,0,0,1,171.27,144.35Z"/><path class="cls-3" d="M169,157.74l-3.86-2.23a2.22,2.22,0,0,1-.95-2.3h0a1.08,1.08,0,0,1,1.66-.79l3.87,2.23a2.22,2.22,0,0,1,.94,2.3h0A1.08,1.08,0,0,1,169,157.74Z"/><path class="cls-3" d="M184.08,166.43l-10.2-5.89a2.23,2.23,0,0,1-.95-2.3h0a1.09,1.09,0,0,1,1.67-.79l10.19,5.89a2.21,2.21,0,0,1,1,2.3h0A1.08,1.08,0,0,1,184.08,166.43Z"/><path class="cls-3" d="M171,166.22,163.67,162a2.22,2.22,0,0,1-.95-2.3h0a1.08,1.08,0,0,1,1.66-.79l7.33,4.23a2.22,2.22,0,0,1,.95,2.3h0A1.08,1.08,0,0,1,171,166.22Z"/><path class="cls-3" d="M213.49,183.44l-4.71-2.72a2.21,2.21,0,0,1-.95-2.3h0a1.08,1.08,0,0,1,1.66-.79l4.71,2.72a2.21,2.21,0,0,1,1,2.3h0A1.08,1.08,0,0,1,213.49,183.44Z"/><path class="cls-3" d="M194.05,142.81l-13-7.48a2.22,2.22,0,0,1-1-2.3h0a1.08,1.08,0,0,1,1.66-.8l13,7.48a2.24,2.24,0,0,1,1,2.3h0A1.08,1.08,0,0,1,194.05,142.81Z"/><path class="cls-3" d="M195.23,136.15l-22.58-13a2.21,2.21,0,0,1-1-2.3h0a1.08,1.08,0,0,1,1.66-.8l22.58,13a2.22,2.22,0,0,1,.95,2.3h0A1.08,1.08,0,0,1,195.23,136.15Z"/><path class="cls-3" d="M182.61,143.55l-13-7.48a2.22,2.22,0,0,1-.94-2.3h0a1.07,1.07,0,0,1,1.66-.79l12.95,7.48a2.21,2.21,0,0,1,1,2.3h0A1.08,1.08,0,0,1,182.61,143.55Z"/><path class="cls-3" d="M203.87,148.48l-4.7-2.72a2.21,2.21,0,0,1-.95-2.3h0a1.08,1.08,0,0,1,1.66-.79l4.71,2.72a2.23,2.23,0,0,1,.95,2.3h0A1.09,1.09,0,0,1,203.87,148.48Z"/><path class="cls-3" d="M250.34,145.94l-27.87-16.1a2.22,2.22,0,0,1-.95-2.3h0a1.08,1.08,0,0,1,1.66-.79l27.88,16.09a2.24,2.24,0,0,1,.95,2.3h0A1.09,1.09,0,0,1,250.34,145.94Z"/><path class="cls-3" d="M182.24,158l-15.58-9a2.24,2.24,0,0,1-.95-2.3h0a1.09,1.09,0,0,1,1.67-.79l15.57,9a2.22,2.22,0,0,1,1,2.3h0A1.08,1.08,0,0,1,182.24,158Z"/><path class="cls-3" d="M182.11,106.54l-11.45-6.61a2.22,2.22,0,0,1-.95-2.3h0a1.08,1.08,0,0,1,1.66-.8l11.45,6.62a2.21,2.21,0,0,1,1,2.3h0A1.08,1.08,0,0,1,182.11,106.54Z"/><path class="cls-3" d="M169,172.39l-13.26-7.66a2.21,2.21,0,0,1-.95-2.3h0a1.08,1.08,0,0,1,1.66-.79l13.26,7.66a2.21,2.21,0,0,1,1,2.3h0A1.08,1.08,0,0,1,169,172.39Z"/><path class="cls-3" d="M258.71,200.34,251,195.86a2.21,2.21,0,0,1-.95-2.3h0a1.08,1.08,0,0,1,1.66-.8l7.76,4.49a2.19,2.19,0,0,1,.95,2.3h0A1.08,1.08,0,0,1,258.71,200.34Z"/><path class="cls-3" d="M264.29,174.19l-14.82-8.56a2.22,2.22,0,0,1-.95-2.3h0a1.07,1.07,0,0,1,1.66-.79L265,171.09a2.21,2.21,0,0,1,.95,2.3h0A1.08,1.08,0,0,1,264.29,174.19Z"/><path class="cls-3" d="M251.33,181.39l-4.85-2.8a2.22,2.22,0,0,1-.95-2.3h0a1.08,1.08,0,0,1,1.66-.79l4.85,2.8a2.21,2.21,0,0,1,1,2.3h0A1.08,1.08,0,0,1,251.33,181.39Z"/><path class="cls-3" d="M246.6,193.35l-3.12-1.8a2.22,2.22,0,0,1-.94-2.3h0a1.08,1.08,0,0,1,1.66-.79l3.11,1.79a2.22,2.22,0,0,1,.95,2.3h0A1.08,1.08,0,0,1,246.6,193.35Z"/><path class="cls-3" d="M269.37,191.81l-12.95-7.48a2.22,2.22,0,0,1-1-2.3h0a1.08,1.08,0,0,1,1.66-.8l13,7.49A2.2,2.2,0,0,1,271,191h0A1.08,1.08,0,0,1,269.37,191.81Z"/><path class="cls-3" d="M270.56,185.15l-22.59-13a2.24,2.24,0,0,1-.95-2.3h0a1.08,1.08,0,0,1,1.67-.79l22.58,13a2.24,2.24,0,0,1,1,2.3h0A1.08,1.08,0,0,1,270.56,185.15Z"/><path class="cls-3" d="M257.94,192.55l-13-7.48a2.24,2.24,0,0,1-.95-2.3h0a1.08,1.08,0,0,1,1.66-.79l13,7.48a2.21,2.21,0,0,1,1,2.3h0A1.08,1.08,0,0,1,257.94,192.55Z"/><path class="cls-3" d="M257.56,207,242,198a2.22,2.22,0,0,1-1-2.3h0a1.08,1.08,0,0,1,1.66-.79l15.58,9a2.24,2.24,0,0,1,1,2.3h0A1.09,1.09,0,0,1,257.56,207Z"/><polygon class="cls-4" points="292.43 113.72 304.66 108.85 301.91 90.85 295.97 96.11 292.43 113.72"/><path class="cls-4" d="M210.52,29.78,240.09,18l-5.46,11.82s-15.79,3.65-15.79,3.65Z"/><path class="cls-4" d="M303.24,78.77a13.09,13.09,0,0,0-4.79-1.65c1.63-10.88-3.07-22.37-12.09-27.58a19.68,19.68,0,0,0-8.46-2.65c3.54-13.19-1.92-28.18-13-34.61a20.49,20.49,0,0,0-17.64-1.7h0l-.27.11-.43.17-9.26,3.64L241,17.67c-5,1.58-9.34,5.63-11.63,11.62-4.22,11,.11,24.47,9.67,30l56.81,47.89c7.17,4.14,11.53,2.41,14.7-5.88S310.42,82.91,303.24,78.77Z"/><path class="cls-4" d="M231.91,24.42l31.87-12.73a20.39,20.39,0,0,0-16.57-1.11h0l-.27.11-.43.17-9.26,3.64L241,17.67A17.68,17.68,0,0,0,231.91,24.42Z"/><path class="cls-4" d="M276.27,72.2l21-8.4a25.33,25.33,0,0,0-11.07-14.33,22.32,22.32,0,0,0-2.13-1.07L255.12,60Z"/><path class="cls-3" d="M243.72,15.82l9,5.22,15.67-6.24a24.17,24.17,0,0,0-3.57-2.52,21.84,21.84,0,0,0-6.13-2.43Z"/><path class="cls-3" d="M295.92,60.3l-15.14,6,4.47,6.28,13-5.17A28.84,28.84,0,0,0,295.92,60.3Z"/><path class="cls-3" d="M293.11,82.75a13.09,13.09,0,0,0-4.79-1.65c1.63-10.88-3.19-22.44-12.21-27.65a19.07,19.07,0,0,0-8.34-2.58c3.54-13.19-1.92-28.18-13-34.61-12-6.92-25.95-1.31-31.24,12.52-.18.47-.34.94-.49,1.42-9.14-4.07-19.23.51-23.2,10.88-4.21,11.05.11,24.47,9.67,30l72.18,41.7c7.18,4.14,15.56.78,18.73-7.51S300.29,86.9,293.11,82.75Z"/><path class="cls-7" d="M294.6,81.92a12.91,12.91,0,0,0-4.79-1.65c1.63-10.88-3.19-22.44-12.21-27.65A19.09,19.09,0,0,0,269.26,50c3.54-13.19-1.92-28.18-13.05-34.61a20.37,20.37,0,0,0-21.32.1,20.42,20.42,0,0,1,19.83.74c11.13,6.43,16.59,21.42,13,34.61a19.07,19.07,0,0,1,8.34,2.58c9,5.21,13.84,16.77,12.21,27.65a13.09,13.09,0,0,1,4.79,1.65c7.18,4.15,10.43,14.23,7.26,22.52a14.85,14.85,0,0,1-5.64,7.24,14.42,14.42,0,0,0,7.13-8.07C305,96.15,301.78,86.06,294.6,81.92Z"/><path class="cls-7" d="M223,30.2c.13-.42.28-.83.43-1.24a16,16,0,0,0-14.33,1.46A16.1,16.1,0,0,1,223,30.2Z"/><path class="cls-2" d="M214.83,32.36a9.4,9.4,0,0,0-3.81.77c-2.86,1.25-5.34,4.15-6.8,7.95-3.7,9.71.26,22,8.66,26.85l72.17,41.7a7.53,7.53,0,0,0,6.44.92c1.83-.74,3.45-2.66,4.45-5.28,2.68-7-.18-15.88-6.24-19.38a9.44,9.44,0,0,0-3.44-1.2l-2.93-.4.38-2.51c1.5-10-3.13-20.63-11-25.18a15.06,15.06,0,0,0-6.64-2.11l-3.63-.24.82-3c3.24-12.09-2-26.06-11.93-31.8-4.62-2.67-9.49-3.21-13.7-1.52s-7.66,5.56-9.7,10.9c-.16.41-.3.83-.44,1.25l-1.94,6-5.67-2.52A12.29,12.29,0,0,0,214.83,32.36Z"/><polygon class="cls-4" points="250.2 78.74 252.68 77.74 250.75 76.25 250.2 78.74"/><polygon class="cls-4" points="248.96 51.8 251.37 50.82 251.2 51.83 248.96 51.8"/><polygon class="cls-4" points="258.01 72.44 260.53 71.43 256.85 67.73 258.01 72.44"/><path class="cls-4" d="M252,77.68l-9.63-5.57a1.56,1.56,0,0,1-.66-1.58l2.31-10.94,11.4,6.59-2.31,10.93A.73.73,0,0,1,252,77.68Z"/><path class="cls-4" d="M251.34,50.83l-13,6.56c-.55.28-.37,1.32.3,1.71l10.62,6.13,10.63,6.14c.67.38,1.2-.24.88-1L253,51.81C252.71,51,251.91,50.55,251.34,50.83Z"/><path class="cls-3" d="M249.51,78.7l-9.64-5.57a1.54,1.54,0,0,1-.65-1.58l2.3-10.94,11.41,6.59-2.31,10.93A.73.73,0,0,1,249.51,78.7Z"/><path class="cls-3" d="M248.82,51.85l-13,6.56c-.55.28-.37,1.32.3,1.71l10.63,6.13,10.62,6.14c.67.38,1.21-.24.88-1l-7.72-18.53C250.18,52,249.38,51.57,248.82,51.85Z"/><path class="cls-1" d="M5.17,296.63,43.68,274.5c3-1.74,8.33-1.51,11.83.52l79,45.82c3.49,2,3.87,5.09.83,6.83L96.81,349.8c-3,1.74-8.33,1.51-11.83-.52L6,303.46C2.5,301.43,2.13,298.37,5.17,296.63Z"/><path class="cls-2" d="M98.35,342.48l39.43-22.65a4.57,4.57,0,0,0,2.64-3.71h0l0-6.79-1.26,2.19a9.58,9.58,0,0,0-2.48-2L57.3,263.45c-4.5-2.61-11.31-2.91-15.22-.66L2.65,285.45a7.46,7.46,0,0,0-1.11.77L0,284.29l0,6.38H0c0,1.75,1.2,3.62,3.71,5.08l79.42,46.07C87.63,344.43,94.44,344.73,98.35,342.48Z"/><path class="cls-3" d="M2.67,280.4l39.44-22.66c3.91-2.24,10.72-1.94,15.22.67l79.41,46.07c4.5,2.61,5,6.54,1.07,8.79L98.38,335.93c-3.91,2.24-10.72,1.94-15.22-.67L3.75,289.19C-.75,286.58-1.23,282.65,2.67,280.4Z"/><path class="cls-7" d="M137.81,313.27,98.38,335.93c-3.91,2.24-10.72,1.94-15.22-.67L3.75,289.19c-2.18-1.26-3.41-2.84-3.66-4.38-.31,1.89.93,4,3.66,5.54l79.41,46.07c4.5,2.61,11.31,2.91,15.22.67l39.43-22.66c2-1.16,2.86-2.76,2.59-4.41A4.76,4.76,0,0,1,137.81,313.27Z"/><path class="cls-7" d="M5.17,281.31l38.51-22.12c3-1.75,8.33-1.52,11.83.51l79,45.82c3.49,2,3.87,5.09.83,6.84L96.81,334.48c-3,1.75-8.33,1.52-11.83-.51L6,288.15C2.5,286.12,2.13,283.06,5.17,281.31Z"/><path class="cls-1" d="M67.21,289.36,53,281.13c-.52-.3-.46-.84.15-1.19h0a2.28,2.28,0,0,1,2.06-.08l14.26,8.23c.53.3.46.84-.15,1.19h0A2.28,2.28,0,0,1,67.21,289.36Z"/><path class="cls-1" d="M53.7,286.58l-5.09-2.94c-.53-.31-.46-.84.15-1.19h0a2.31,2.31,0,0,1,2.06-.09l5.09,2.94c.53.3.46.84-.15,1.19h0A2.31,2.31,0,0,1,53.7,286.58Z"/><path class="cls-2" d="M62.23,291.5l-5.08-2.93c-.53-.31-.47-.84.14-1.19h0a2.3,2.3,0,0,1,2.07-.09l5.08,2.94c.53.3.46.83-.15,1.19h0A2.28,2.28,0,0,1,62.23,291.5Z"/><path class="cls-1" d="M79.49,301.47l-13.81-8c-.53-.3-.46-.83.15-1.19h0a2.28,2.28,0,0,1,2.06-.08l13.81,8c.53.3.46.84-.15,1.19h0A2.31,2.31,0,0,1,79.49,301.47Z"/><path class="cls-1" d="M62.08,296.43,44.27,286.15c-.53-.31-.46-.84.15-1.19h0a2.25,2.25,0,0,1,2.06-.09l17.81,10.28c.53.31.46.84-.15,1.19h0A2.28,2.28,0,0,1,62.08,296.43Z"/><path class="cls-2" d="M83.5,313.81,39.93,288.65c-.53-.3-.46-.84.15-1.19h0a2.28,2.28,0,0,1,2.06-.08l43.57,25.16c.53.3.47.84-.14,1.19h0A2.3,2.3,0,0,1,83.5,313.81Z"/><path class="cls-1" d="M96.22,306.11,71.15,291.64c-.53-.31-.47-.84.14-1.2h0a2.3,2.3,0,0,1,2.07-.08l25.07,14.48c.53.3.46.83-.15,1.19h0A2.28,2.28,0,0,1,96.22,306.11Z"/><path class="cls-3" d="M65.5,329.75l-3.66-2.12a1.56,1.56,0,0,1-.66-1.26h0c0-.49.29-.71.66-.5L65.5,328a1.57,1.57,0,0,1,.67,1.26h0C66.17,329.74,65.87,330,65.5,329.75Z"/><path class="cls-3" d="M71.27,333.09,67.61,331a1.56,1.56,0,0,1-.66-1.26h0c0-.48.29-.71.66-.5l3.66,2.12a1.56,1.56,0,0,1,.66,1.26h0C71.93,333.08,71.64,333.3,71.27,333.09Z"/></g></g></svg>