<svg id="Logos" xmlns="http://www.w3.org/2000/svg" width="632.018" height="170.838" viewBox="0 0 632.018 170.838">
  <g id="Horizontal-Lock-up">
    <g id="Logo">
      <g id="AlpacaLogoText" transform="translate(214.764 27.566)">
        <path id="Path_19" data-name="Path 19" d="M14.3,115.736c2.569,0,3.282-1.284,4.281-4.424l8.134-23.974H63.245l8.277,23.974c1,3.139,2,4.424,4.566,4.424h1.418c3.383-.009,8.494-.075,9.855-.569a2.935,2.935,0,0,0,1.712-2.711,13.124,13.124,0,0,0-1-4.424L59.392,24.265c-2.426-7.135-3.853-10.274-11.559-10.274H44.265c-8.419,0-10.417,3.425-12.843,10.56L2.169,108.315a12.379,12.379,0,0,0-1,4.281,2.385,2.385,0,0,0,1.712,2.569C4.452,115.593,11.873,115.736,14.3,115.736ZM59.392,73.211H30.852C39.7,46.384,42.7,37.536,45.264,28.546,47.976,37.536,50.544,46.1,59.392,73.211Zm64.072,42.81c2.569,0,3.71-.714,4.138-2.711a38.185,38.185,0,0,0,.571-6.421,2.942,2.942,0,0,0-2.711-3.282c-4.138-.714-6.992-2-8.134-4-1-1.855-1.427-4.281-1.427-8.562V12.278c0-2.426-.571-3.71-3.139-3.71h-9.275c-2.569,0-3.425,1.427-3.425,3.71V93.046c0,7.135.856,11.844,2.711,14.841C105.912,112.882,111.334,116.021,123.464,116.021ZM152.575,148.7c2.569,0,4-.856,4-3.71V114.88c3.139,1.57,9.276,2.283,13.7,2.283,23.4,0,34.676-7.42,34.676-38.957,0-27.969-9.133-36.1-29.967-36.1-10.417,0-23.117,2.283-28.825,4.852-2.141,1-4,2.283-4.709,4.138a17.359,17.359,0,0,0-.713,5.708v88.189c0,3,1,3.71,3.282,3.71Zm16.411-45.236c-3.71,0-8.134-.571-10.274-1.57-1.57-.571-2.141-1.57-2.141-4.566V63.793a9.107,9.107,0,0,1,.428-3.71,4.221,4.221,0,0,1,2.283-2.14c3.568-1.57,9.275-2.426,13.985-2.426,12.7,0,15.7,6.707,15.7,22.832C188.963,97.9,185.11,103.464,168.985,103.464Zm75.2,13.7c9.846,0,22.118-1.855,27.684-4.138a9.711,9.711,0,0,0,4.566-3.282c1.284-1.57,1.57-3.853,1.57-6.421V66.362c0-9.7-1.142-15.269-4.852-18.836-4-4-10.417-5.565-22.689-5.565a91.6,91.6,0,0,0-23.974,3.282,3.587,3.587,0,0,0-2.854,3.71,39.028,39.028,0,0,0,1.142,6.992,2.737,2.737,0,0,0,2.711,2.283c1,0,3.853-.571,5.708-.856a79.857,79.857,0,0,1,14.984-1.57c9.418,0,12.129,1.855,13.271,4.852.714,1.855.856,4.994.856,7.706v4.709c-3.71-.428-9.418-.571-13.842-.571-9.418,0-17.98,1.427-22.547,4.281-5.565,3.568-7.991,8.847-7.991,17.409C217.931,106.46,222.355,117.163,244.188,117.163Zm2-12.415c-10.7,0-13.128-4.424-13.128-10.988,0-4,1-6.136,3.139-7.42,2.569-1.712,6.992-2.426,14.127-2.426,4,0,8.99.285,11.987.571V95.615a16.165,16.165,0,0,1-.571,4.852,4.05,4.05,0,0,1-2.426,2.426C256.746,103.892,252.322,104.748,246.186,104.748Zm80.34,12.415c6.85,0,14.413-.714,20.692-3a3.145,3.145,0,0,0,2.426-3.425,40.528,40.528,0,0,0-1.427-6.992,2.542,2.542,0,0,0-2.426-2,20.952,20.952,0,0,0-4.138.714,62.006,62.006,0,0,1-13.414,1.284c-13.842,0-17.267-8.134-17.267-24.259,0-14.555,2.569-23.831,18.408-23.831a55.039,55.039,0,0,1,10.845,1c1.284.143,3.139.571,4.281.571a2.569,2.569,0,0,0,2.569-2.141,51.6,51.6,0,0,0,1.427-8.134,3.135,3.135,0,0,0-2.426-3.139c-4.424-1.284-10.56-1.855-16.839-1.855-25.258,0-34.248,12.272-34.248,38.814C294.989,108.6,306.405,117.163,326.526,117.163Zm58.079,0c9.846,0,22.118-1.855,27.684-4.138a9.71,9.71,0,0,0,4.566-3.282c1.284-1.57,1.57-3.853,1.57-6.421V66.362c0-9.7-1.142-15.269-4.852-18.836-4-4-10.417-5.565-22.689-5.565a91.6,91.6,0,0,0-23.974,3.282,3.587,3.587,0,0,0-2.854,3.71,39.028,39.028,0,0,0,1.142,6.992,2.737,2.737,0,0,0,2.711,2.283c1,0,3.853-.571,5.708-.856A79.856,79.856,0,0,1,388.6,55.8c9.418,0,12.13,1.855,13.271,4.852.714,1.855.856,4.994.856,7.706v4.709c-3.71-.428-9.418-.571-13.842-.571-9.418,0-17.98,1.427-22.547,4.281-5.565,3.568-7.991,8.847-7.991,17.409C358.348,106.46,362.772,117.163,384.605,117.163Zm2-12.415c-10.7,0-13.128-4.424-13.128-10.988,0-4,1-6.136,3.139-7.42,2.569-1.712,6.992-2.426,14.127-2.426,4,0,8.99.285,11.987.571V95.615a16.165,16.165,0,0,1-.571,4.852,4.05,4.05,0,0,1-2.426,2.426C397.163,103.892,392.739,104.748,386.6,104.748Z" transform="translate(-1.17 -8.568)"/>
      </g>
      <g id="Group-2" transform="translate(0 0)">
        <g id="Combined-Shape-Copy-6">
          <g id="Combined-Shape">
            <circle id="Mask" cx="84" cy="84" r="84" fill="#fcd700"/>
            <path id="Path_20" data-name="Path 20" d="M50.819,6.056q5.672,1.887,7.286,4.3a15.768,15.768,0,0,1,1.055,1.851A30.887,30.887,0,0,1,61.742,22.95c5.884,3.844,12.382,10.04,13.948,22.815,0,8.264,2.685,105.71,2.685,105.71H31.364l-.023-89.7c-20.995,1.76-20.352-17.988-20.352-17.988A57.5,57.5,0,0,0,24.005,29.537C28.992,21.8,42.48,19.224,42.48,19.224L39.267,9.346c6.859-1.538,11.551,9.877,11.551,9.877Z" transform="translate(35.123 19.362)" fill="#fff"/>
          </g>
          <ellipse id="Oval" cx="4.197" cy="6.798" rx="4.197" ry="6.798" transform="translate(81.813 25.419)" fill="#d8d8d8"/>
          <path id="Oval-2" data-name="Oval" d="M11.237,16.407c.326,0,.938.181.938-.7s.052-.822-.264-.834c-.7.515-.918.447-.918.834S10.91,16.407,11.237,16.407Z" transform="translate(35.116 47.546)" fill="#d8d8d8" fill-rule="evenodd"/>
          <path id="Oval-3" data-name="Oval" d="M0,1.478c0,.816,2.382,1.478,5.32,1.478s5.32-.662,5.32-1.478S8.258,0,5.32,0,0,.662,0,1.478Z" transform="translate(75.722 28.167) rotate(71)" fill="#d8d8d8" fill-rule="evenodd"/>
          <path id="Path" d="M15.915,16.537h5.09c2.453,0,3.157-3.157,3.157-3.157H18.723C16.264,13.38,15.915,16.537,15.915,16.537Z" transform="translate(50.883 42.778)" fill="#d8d8d8"/>
        </g>
      </g>
    </g>
  </g>
</svg>
