<?xml version="1.0" encoding="UTF-8"?>
<svg width="168px" height="171px" viewBox="0 0 168 171" version="1.1" xmlns="http://www.w3.org/2000/svg" xmlns:xlink="http://www.w3.org/1999/xlink">
    <!-- Generator: Sketch 64 (93537) - https://sketch.com -->
    <title>Group-2</title>
    <desc>Created with Sketch.</desc>
    <g id="Page-1" stroke="none" stroke-width="1" fill="none" fill-rule="evenodd">
        <g id="Artboard" transform="translate(-153.000000, -934.000000)">
            <g id="alpaca" transform="translate(153.000000, 934.000000)">
                <g id="Group-2">
                    <g id="Combined-Shape-Copy-6">
                        <g id="Combined-Shape" fill-rule="nonzero">
                            <circle id="Mask" fill="#FCD700" cx="84" cy="84" r="84"></circle>
                            <path d="M85.942,25.418 C89.7233333,26.676 92.152,28.1093333 93.228,29.718 C93.6209962,30.3105089 93.9734672,30.9289202 94.283,31.569 C95.7823764,34.965702 96.6570346,38.604917 96.865,42.312 C102.749,46.156 109.247,52.352 110.813,65.127 C110.813,73.391 113.498,170.837 113.498,170.837 L66.487,170.837 L66.464,81.137 C45.469,82.897 46.112,63.149 46.112,63.149 C51.2225347,59.1662559 55.6231759,54.3484058 59.128,48.899 C64.115,41.162 77.603,38.586 77.603,38.586 L74.39,28.708 C81.249,27.17 85.941,38.585 85.941,38.585 L85.942,25.418 Z" id="Path_20" fill="#FFFFFF"></path>
                        </g>
                        <ellipse id="Oval" fill="#D8D8D8" fill-rule="nonzero" cx="86.01" cy="32.217" rx="4.197" ry="6.798"></ellipse>
                        <path d="M46.353,63.953 C46.679,63.953 47.291,64.134 47.291,63.253 C47.291,62.372 47.343,62.431 47.027,62.419 C46.327,62.934 46.109,62.866 46.109,63.253 C46.109,63.64 46.026,63.953 46.353,63.953 Z" id="Oval-2" fill="#D8D8D8"></path>
                        <path d="M70.7365461,33.6783486 C70.7365461,34.4943486 73.1185461,35.1563486 76.0565461,35.1563486 C78.9945461,35.1563486 81.3765461,34.4943486 81.3765461,33.6783486 C81.3765461,32.8623486 78.9945461,32.2003486 76.0565461,32.2003486 C73.1185461,32.2003486 70.7365461,32.8623486 70.7365461,33.6783486 Z" id="Oval-3" fill="#D8D8D8" transform="translate(76.056546, 33.678349) rotate(71.000000) translate(-76.056546, -33.678349) "></path>
                        <path d="M66.798,59.315 L71.888,59.315 C74.341,59.315 75.045,56.158 75.045,56.158 L69.606,56.158 C67.147,56.158 66.798,59.315 66.798,59.315 Z" id="Path" fill="#D8D8D8" fill-rule="nonzero"></path>
                    </g>
                </g>
            </g>
        </g>
    </g>
</svg>