<?xml version="1.0" encoding="UTF-8"?>
<svg width="46px" height="47px" viewBox="0 0 46 47" version="1.1" xmlns="http://www.w3.org/2000/svg" xmlns:xlink="http://www.w3.org/1999/xlink">
    <!-- Generator: Sketch 64 (93537) - https://sketch.com -->
    <title>Path</title>
    <desc>Created with Sketch.</desc>
    <g id="Page-1" stroke="none" stroke-width="1" fill="none" fill-rule="evenodd">
        <g id="Artboard" transform="translate(-12.000000, -662.000000)" fill="#0052FF" fill-rule="nonzero">
            <g id="coinbase" transform="translate(12.000000, 645.000000)">
                <path d="M23.0971,27.403 C28.5283,27.403 32.8374,30.7528 34.4733,35.7351 L45.4202,35.7351 C43.4364,25.0842 34.6457,17.8676 23.1849,17.8676 C10.1696,17.8676 0,27.7478 0,40.9777 C0,54.2076 9.9127,64 23.1849,64 C34.3887,64 43.3518,56.7834 45.3356,46.0446 L34.4733,46.0446 C32.922,51.027 28.6128,54.4646 23.1817,54.4646 C15.6821,54.4646 10.4265,48.7082 10.4265,40.9777 C10.4298,33.1594 15.6008,27.403 23.0971,27.403 Z" id="Path"></path>
            </g>
        </g>
    </g>
</svg>