<svg width="338" height="311" viewBox="0 0 338 311" fill="none" xmlns="http://www.w3.org/2000/svg">
<path d="M169.026 310.983L231.225 119.661H106.918L169.026 310.983Z" fill="#E24329"/>
<path d="M19.798 119.662L0.857003 177.788C-0.856997 183.066 0.994006 188.892 5.51801 192.182L169.027 310.983L19.798 119.662Z" fill="#FCA326"/>
<path d="M19.798 119.662H106.918L69.424 4.43785C67.505 -1.45715 59.142 -1.45715 57.154 4.43785L19.798 119.662Z" fill="#E24329"/>
<path d="M318.346 119.662L337.219 177.788C338.933 183.066 337.082 188.892 332.558 192.182L169.026 310.983L318.346 119.662Z" fill="#FCA326"/>
<path d="M318.346 119.662H231.226L268.651 4.43785C270.57 -1.45715 278.933 -1.45715 280.921 4.43785L318.346 119.662Z" fill="#E24329"/>
<path d="M169.026 310.983L231.225 119.662H318.346L169.026 310.983Z" fill="#FC6D26"/>
<path d="M169.026 310.983L19.798 119.662H106.918L169.026 310.983Z" fill="#FC6D26"/>
</svg>
