<?xml version="1.0" encoding="utf-8"?>
<!-- Generator: Adobe Illustrator 22.0.0, SVG Export Plug-In . SVG Version: 6.00 Build 0)  -->
<svg version="1.1" id="图层_1" xmlns="http://www.w3.org/2000/svg" xmlns:xlink="http://www.w3.org/1999/xlink" x="0px" y="0px"
	 viewBox="0 0 800 500" style="enable-background:new 0 0 800 500;" xml:space="preserve">
<style type="text/css">
	.st0{fill:#28CD96;}
</style>
<path class="st0" d="M354.4,249.9l79.8,79.8l50.3-50.3c8.8-9,23.4-9,32.1,0c9,8.8,9,23.4,0,32.1l-66.3,66.3c-9,8.8-23.4,8.8-32.3,0
	l-95.7-95.7v56.8c0,12.5-10.1,22.8-22.8,22.8c-12.5,0-22.8-10.1-22.8-22.8V160.8c0-12.5,10.1-22.8,22.8-22.8
	c12.5,0,22.8,10.1,22.8,22.8v57l95.7-95.7c9-8.8,23.4-8.8,32.3,0l66.3,66.3c8.8,9,8.8,23.4,0,32.1c-9,8.8-23.4,8.8-32.1,0l0,0
	l-50.3-50.3L354.4,249.9z M434.2,227.1L434.2,227.1c-12.7,0-23,10.1-23,22.8s10.1,23,22.8,23c12.7,0,23-10.1,23-22.8v-0.2
	C456.8,237.4,446.7,227.3,434.2,227.1z"/>
</svg>
