<?xml version="1.0" encoding="UTF-8"?>
<svg width="731px" height="866px" viewBox="0 0 731 866" version="1.1" xmlns="http://www.w3.org/2000/svg" xmlns:xlink="http://www.w3.org/1999/xlink">
    <!-- Generator: Sketch 64 (93537) - https://sketch.com -->
    <title>Illustration</title>
    <desc>Created with Sketch.</desc>
    <defs>
        <linearGradient x1="55.1798973%" y1="3.39845739%" x2="45.5062817%" y2="75.3127722%" id="linearGradient-1">
            <stop stop-color="#FFFFFF" offset="0%"></stop>
            <stop stop-color="#FFFFFF" stop-opacity="0" offset="100%"></stop>
        </linearGradient>
        <linearGradient x1="57.7480773%" y1="0.482584291%" x2="48.0772965%" y2="72.3800604%" id="linearGradient-2">
            <stop stop-color="#FFFFFF" offset="0%"></stop>
            <stop stop-color="#FFFFFF" stop-opacity="0" offset="100%"></stop>
        </linearGradient>
        <linearGradient x1="57.7480734%" y1="0.482584291%" x2="48.0772965%" y2="72.3800604%" id="linearGradient-3">
            <stop stop-color="#FFFFFF" offset="0%"></stop>
            <stop stop-color="#FFFFFF" stop-opacity="0" offset="100%"></stop>
        </linearGradient>
        <linearGradient x1="55.8728041%" y1="19.7735039%" x2="45.0542167%" y2="75.4552559%" id="linearGradient-4">
            <stop stop-color="#FFFFFF" offset="0%"></stop>
            <stop stop-color="#FFFFFF" stop-opacity="0" offset="100%"></stop>
        </linearGradient>
        <linearGradient x1="34.3218841%" y1="10.0463853%" x2="64.7566413%" y2="87.60545%" id="linearGradient-5">
            <stop stop-color="#FFFFFF" offset="0%"></stop>
            <stop stop-color="#FFFFFF" stop-opacity="0" offset="100%"></stop>
        </linearGradient>
        <linearGradient x1="55.8728041%" y1="19.7734843%" x2="45.05423%" y2="75.4552165%" id="linearGradient-6">
            <stop stop-color="#FFFFFF" offset="0%"></stop>
            <stop stop-color="#FFFFFF" stop-opacity="0" offset="100%"></stop>
        </linearGradient>
        <linearGradient x1="34.3259801%" y1="10.0569034%" x2="64.7607373%" y2="87.6157577%" id="linearGradient-7">
            <stop stop-color="#FFFFFF" offset="0%"></stop>
            <stop stop-color="#FFFFFF" stop-opacity="0" offset="100%"></stop>
        </linearGradient>
        <linearGradient x1="70.2992685%" y1="31.2820593%" x2="33.0866353%" y2="65.5958072%" id="linearGradient-8">
            <stop stop-color="#FFFFFF" offset="0%"></stop>
            <stop stop-color="#FFFFFF" stop-opacity="0" offset="100%"></stop>
        </linearGradient>
        <linearGradient x1="63.4249424%" y1="35.5256717%" x2="29.8248945%" y2="71.7099451%" id="linearGradient-9">
            <stop stop-color="#FFFFFF" offset="0%"></stop>
            <stop stop-color="#FFFFFF" stop-opacity="0" offset="100%"></stop>
        </linearGradient>
    </defs>
    <g id="Illustrations" stroke="none" stroke-width="1" fill="none" fill-rule="evenodd">
        <g id="#2" transform="translate(-210.000000, -126.000000)">
            <g id="Illustration" transform="translate(210.000000, 125.000000)">
                <path d="M730.5,453.5 C717.8,446.1 708.6,445.9 702.9,452.9 C697.2,459.8 694.4,471.5 694.4,488 L694.4,576.9 C694.4,593.8 692.8,607.8 689.7,618.9 C686.6,630.4 681.3,638.6 674,643.4 C666.9,648.3 657.3,649.6 645.1,647.3 C633.2,645.1 618.3,638.9 600.5,628.6 L592,623.7 L592,553.7 L602.6,559.8 C615.3,567.2 623.8,568.1 628.1,562.7 C632.6,557.5 634.9,546.6 634.9,530.1 L634.9,451.8 C634.9,431.4 636.9,415.3 640.9,403.4 C644.9,391.5 652.8,384 664.7,380.6 C652.8,363.5 644.9,346.8 640.9,330.4 C636.9,314 635,295.6 635,275.2 L635,196.9 C635,180.4 632.7,167 628.2,156.5 C624,146.2 615.5,137.4 602.7,130 L592.1,123.9 L592.1,53.9 L600.6,58.8 C618.4,69.1 633.3,80 645.2,91.6 C657.4,103.3 667,115.8 674.1,128.9 C681.5,142.2 686.7,156.4 689.8,171.5 C692.9,186.2 694.5,202.1 694.5,218.9 L694.5,307.8 C694.5,324.3 697.3,339.3 703,352.7 C708.7,366.2 717.9,376.6 730.6,383.9 L730.5,453.5 Z" id="Path" fill="url(#linearGradient-1)" fill-rule="nonzero" opacity="0.07"></path>
                <path d="M408,196 C420.7,203.4 429.9,203.6 435.6,196.6 C441.3,189.7 444.1,178 444.1,161.5 L444.1,72.6 C444.1,55.7 445.7,41.7 448.8,30.6 C451.9,19.1 457,10.8 464.1,5.9 C471.5,1.1 481.1,-0.2 493,2 C505.2,4.3 520.2,10.6 538,20.9 L546.5,25.8 L546.5,95.8 L535.9,89.7 C523.2,82.3 514.5,81.3 510,86.5 C505.8,91.9 503.6,102.8 503.6,119.3 L503.6,197.6 C503.6,218 501.6,234.1 497.6,246 C493.6,257.8 485.7,265.4 473.8,268.8 C485.7,285.9 493.6,302.6 497.6,319 C501.6,335.4 503.5,353.8 503.5,374.2 L503.5,452.5 C503.5,469 505.6,482.4 509.9,492.7 C514.4,503.2 523.1,512.1 535.8,519.4 L546.4,525.5 L546.4,595.5 L537.9,590.6 C520.1,580.3 505.1,569.3 492.9,557.6 C481,546 471.4,533.6 464,520.3 C456.9,507.2 451.8,493.1 448.7,477.9 C445.6,463.2 444,447.3 444,430.5 L444,341.6 C444,325.1 441.2,310.1 435.5,296.7 C429.8,283.2 420.6,272.8 407.9,265.5 L408,196 Z" id="Path" fill="url(#linearGradient-2)" fill-rule="nonzero" opacity="0.07"></path>
                <path d="M690.5,483.5 C677.8,476.1 668.6,475.9 662.9,482.9 C657.2,489.8 654.4,501.5 654.4,518 L654.4,606.9 C654.4,623.8 652.8,637.8 649.7,648.9 C646.6,660.4 641.3,668.6 634,673.4 C626.9,678.3 617.3,679.6 605.1,677.3 C593.2,675.1 578.3,668.9 560.5,658.6 L552,653.7 L552,583.7 L562.6,589.8 C575.3,597.2 583.8,598.1 588.1,592.7 C592.6,587.5 594.9,576.6 594.9,560.1 L594.9,481.8 C594.9,461.4 596.9,445.3 600.9,433.4 C604.9,421.5 612.8,414 624.7,410.6 C612.8,393.5 604.9,376.8 600.9,360.4 C596.9,344 595,325.6 595,305.2 L595,226.9 C595,210.4 592.7,197 588.2,186.5 C584,176.2 575.5,167.4 562.7,160 L552.1,153.9 L552.1,83.9 L560.6,88.8 C578.4,99.1 593.3,110 605.2,121.6 C617.4,133.3 627,145.8 634.1,158.9 C641.5,172.2 646.7,186.4 649.8,201.5 C652.9,216.2 654.5,232.1 654.5,248.9 L654.5,337.8 C654.5,354.3 657.3,369.3 663,382.7 C668.7,396.2 677.9,406.6 690.6,413.9 L690.5,483.5 Z" id="Path" fill="url(#linearGradient-1)" fill-rule="nonzero" opacity="0.4"></path>
                <path d="M368,226 C380.7,233.4 389.9,233.6 395.6,226.6 C401.3,219.7 404.1,208 404.1,191.5 L404.1,102.6 C404.1,85.7 405.7,71.7 408.8,60.6 C411.9,49.1 417,40.8 424.1,35.9 C431.5,31.1 441.1,29.8 453,32 C465.2,34.3 480.2,40.6 498,50.9 L506.5,55.8 L506.5,125.8 L495.9,119.7 C483.2,112.3 474.5,111.3 470,116.5 C465.8,121.9 463.6,132.8 463.6,149.3 L463.6,227.6 C463.6,248 461.6,264.1 457.6,276 C453.6,287.8 445.7,295.4 433.8,298.8 C445.7,315.9 453.6,332.6 457.6,349 C461.6,365.4 463.5,383.8 463.5,404.2 L463.5,482.5 C463.5,499 465.6,512.4 469.9,522.7 C474.4,533.2 483.1,542.1 495.8,549.4 L506.4,555.5 L506.4,625.5 L497.9,620.6 C480.1,610.3 465.1,599.3 452.9,587.6 C441,576 431.4,563.6 424,550.3 C416.9,537.2 411.8,523.1 408.7,507.9 C405.6,493.2 404,477.3 404,460.5 L404,371.6 C404,355.1 401.2,340.1 395.5,326.7 C389.8,313.2 380.6,302.8 367.9,295.5 L368,226 Z" id="Path" fill="url(#linearGradient-3)" fill-rule="nonzero" opacity="0.4"></path>
                <polygon id="Path" fill="url(#linearGradient-4)" fill-rule="nonzero" opacity="0.15" points="146 13.2 316.9 111.9 316.8 521.2 145.9 422.5"></polygon>
                <polygon id="Path" fill="#6EE7B7" points="113.9 76.1 249.8 154.6 249.8 192.3 113.9 113.8"></polygon>
                <polygon id="Path" fill="#FFFFFF" fill-rule="nonzero" opacity="0.15" points="167.1 239.7 297.7 315.1 297.7 373.7 167.1 298.3"></polygon>
                <polygon id="Path" fill="#FFFFFF" fill-rule="nonzero" opacity="0.15" points="167 168.8 297.8 244.3 297.8 257.9 167 182.5"></polygon>
                <polygon id="Path" fill="#FFFFFF" fill-rule="nonzero" opacity="0.15" points="167 195.4 280.1 260.7 280.1 274.3 167 209"></polygon>
                <polygon id="Path" fill="url(#linearGradient-5)" fill-rule="nonzero" opacity="0.2" points="146 13.2 316.9 111.9 316.9 166.8 146 68.1"></polygon>
                <path d="M188.7,65.6 C188.7,73.9 183.8,77.8 177.8,74.4 C171.8,70.9 167,61.4 167,53.1 C167,44.8 171.9,40.9 177.9,44.3 C183.8,47.8 188.7,57.3 188.7,65.6 Z" id="Path" fill="#FFFFFF" fill-rule="nonzero" opacity="0.2"></path>
                <polygon id="Path" fill="url(#linearGradient-6)" fill-rule="nonzero" opacity="0.15" points="356 392.7 526.9 491.4 526.8 900.7 355.9 802"></polygon>
                <polygon id="Path" fill="#6EE7B7" points="421.1 511.8 557 590.2 557 627.8 421 549.4"></polygon>
                <polygon id="Path" fill="#FFFFFF" fill-rule="nonzero" opacity="0.15" points="377.1 550.7 507.8 626.2 507.8 684.7 377.1 609.2"></polygon>
                <polygon id="Path" fill="#FFFFFF" fill-rule="nonzero" opacity="0.15" points="376.9 634.3 507.7 709.8 507.7 723.4 376.9 648"></polygon>
                <polygon id="Path" fill="#FFFFFF" fill-rule="nonzero" opacity="0.15" points="376.9 658.9 490 724.2 490 737.8 376.9 672.5"></polygon>
                <polygon id="Path" fill="url(#linearGradient-7)" fill-rule="nonzero" opacity="0.2" points="356 392.7 526.9 491.4 526.9 546.3 356 447.6"></polygon>
                <path d="M398.7,445.2 C398.7,453.5 393.8,457.4 387.8,454 C381.8,450.5 377,441 377,432.7 C377,424.4 381.9,420.5 387.9,423.9 C393.8,427.3 398.7,436.9 398.7,445.2 Z" id="Path" fill="#FFFFFF" fill-rule="nonzero" opacity="0.2"></path>
                <polygon id="Path" fill="url(#linearGradient-8)" fill-rule="nonzero" opacity="0.3" points="326.4 449.4 28.9 277.7 29 432.8 300.3 589.4 326.6 628.3"></polygon>
                <polygon id="Path" fill="#FFFFFF" fill-rule="nonzero" opacity="0.15" points="249.9 443 184.7 405.4 184.7 419 249.9 456.6 249.9 443"></polygon>
                <polygon id="Path" fill="#FFFFFF" fill-rule="nonzero" opacity="0.15" points="249.9 470.3 88.5 377.1 88.5 390.7 250 483.9"></polygon>
                <polygon id="Path" fill="#FFFFFF" fill-rule="nonzero" opacity="0.15" points="250 497.6 55.1 385.1 55.1 398.7 250 511.2"></polygon>
                <path d="M266,466.5 C266,479.3 273.6,494 282.9,499.4 C292.2,504.8 299.8,498.8 299.8,486 C299.8,473.2 292.2,458.5 282.9,453.1 C273.5,447.7 266,453.7 266,466.5 Z" id="Path" fill="#6EE7B7"></path>
                <path d="M58.3,168.8 L18.9,146 L18.9,132.7 L58.3,155.5 C61.5,157.4 66.2,161.1 70.2,166.9 C74.5,173.1 77.6,180.9 77.6,189.4 C77.6,198.8 75.2,204.1 70.7,205.7 C66.4,207.1 61.4,204.7 58.3,202.9 L42.1,193.5 L42,193.4 C40.6,192.6 38.4,191.8 36.7,192.3 C35.3,192.7 33.6,194.2 33.6,199.4 C33.6,204.6 35.2,207.8 36.6,209.7 C38.3,212.1 40.5,213.8 41.9,214.5 L42.1,214.6 L91.7,243.2 L91.7,256.5 L42.4,228 C39,226.2 34.1,222.5 29.9,216.6 C25.3,210.1 22.1,201.9 22.1,192.7 C22.1,183.6 25.3,178.9 29.8,177.6 C34,176.4 38.9,178.2 42.3,180.2 L58.4,189.5 C60.7,190.8 62.5,191.4 63.6,191 C64.5,190.7 66.1,189.4 66.1,182.7 C66.1,178.3 64.7,175.5 63.3,173.5 C61.7,171.3 59.6,169.5 58.3,168.8 Z" id="Path" fill="#FFFFFF" fill-rule="nonzero" opacity="0.15"></path>
                <path d="M30.6,147.4 C30.6,158.8 23.9,164.1 15.7,159.4 C7.5,154.7 0.8,141.6 0.8,130.2 C0.8,118.8 7.5,113.5 15.7,118.2 C23.9,123 30.6,136.1 30.6,147.4 Z" id="Path" fill="#6EE7B7"></path>
                <path d="M109.6,257.4 C109.6,268.8 102.9,274.1 94.7,269.4 C86.5,264.7 79.8,251.6 79.8,240.2 C79.8,228.8 86.5,223.5 94.7,228.2 C102.9,233 109.6,246.1 109.6,257.4 Z" id="Path" fill="#6EE7B7"></path>
                <path d="M215.9,605.1 C221.9,608.6 226.7,616.9 226.7,623.9 L226.7,654.4 L246.9,666 C252.9,669.5 257.7,677.8 257.7,684.8 C257.7,691.7 252.8,694.5 246.9,691.1 L226.7,679.5 L226.7,710 C226.7,716.9 221.8,719.7 215.9,716.3 C209.9,712.8 205.1,704.5 205.1,697.5 L205.1,667 L184.9,655.4 C178.9,651.9 174.1,643.6 174.1,636.6 C174.1,629.7 179,626.9 184.9,630.3 L205.1,641.9 L205.1,611.4 C205.1,604.4 209.9,601.6 215.9,605.1 Z" id="Path" fill="url(#linearGradient-9)" fill-rule="nonzero" opacity="0.2"></path>
            </g>
        </g>
    </g>
</svg>