<svg width="722" height="235" viewBox="0 0 722 235" fill="none" xmlns="http://www.w3.org/2000/svg">
<line x1="0.5" y1="2.18557e-08" x2="0.49999" y2="235" stroke="black"/>
<path d="M293.532 156V79.6364H322.168C328.035 79.6364 332.957 80.7301 336.934 82.9176C340.936 85.1051 343.956 88.1129 345.995 91.941C348.058 95.7443 349.089 100.07 349.089 104.917C349.089 109.814 348.058 114.164 345.995 117.967C343.931 121.771 340.886 124.766 336.859 126.953C332.832 129.116 327.873 130.197 321.982 130.197H303.003V118.825H320.118C323.548 118.825 326.357 118.228 328.544 117.035C330.732 115.842 332.348 114.201 333.392 112.113C334.461 110.025 334.995 107.626 334.995 104.917C334.995 102.207 334.461 99.821 333.392 97.7578C332.348 95.6946 330.719 94.0913 328.507 92.9478C326.32 91.7795 323.498 91.1953 320.043 91.1953H307.365V156H293.532ZM375.964 157.156C372.335 157.156 369.066 156.51 366.158 155.217C363.274 153.9 360.987 151.961 359.297 149.4C357.631 146.84 356.799 143.683 356.799 139.929C356.799 136.698 357.395 134.026 358.588 131.913C359.782 129.8 361.41 128.109 363.473 126.842C365.536 125.574 367.86 124.617 370.446 123.971C373.056 123.299 375.753 122.815 378.537 122.516C381.893 122.168 384.615 121.858 386.703 121.584C388.791 121.286 390.307 120.838 391.252 120.242C392.221 119.62 392.706 118.663 392.706 117.371V117.147C392.706 114.338 391.873 112.163 390.208 110.622C388.542 109.081 386.143 108.31 383.011 108.31C379.705 108.31 377.083 109.031 375.144 110.473C373.23 111.914 371.937 113.617 371.266 115.581L358.663 113.791C359.657 110.311 361.298 107.403 363.585 105.066C365.872 102.705 368.668 100.94 371.974 99.7713C375.28 98.5781 378.935 97.9815 382.937 97.9815C385.696 97.9815 388.443 98.3047 391.177 98.951C393.911 99.5973 396.41 100.666 398.672 102.158C400.934 103.624 402.748 105.625 404.116 108.161C405.508 110.696 406.204 113.866 406.204 117.669V156H393.228V148.132H392.78C391.96 149.723 390.804 151.215 389.313 152.607C387.846 153.974 385.994 155.08 383.757 155.925C381.545 156.746 378.947 157.156 375.964 157.156ZM379.469 147.238C382.179 147.238 384.528 146.703 386.516 145.634C388.505 144.54 390.034 143.099 391.103 141.309C392.196 139.519 392.743 137.568 392.743 135.455V128.706C392.321 129.054 391.6 129.377 390.581 129.675C389.586 129.974 388.468 130.235 387.225 130.458C385.982 130.682 384.751 130.881 383.533 131.055C382.315 131.229 381.259 131.378 380.364 131.502C378.35 131.776 376.548 132.223 374.957 132.845C373.366 133.466 372.111 134.336 371.191 135.455C370.272 136.549 369.812 137.966 369.812 139.706C369.812 142.191 370.719 144.068 372.534 145.336C374.348 146.604 376.66 147.238 379.469 147.238ZM444.758 157.119C439.041 157.119 434.132 155.863 430.03 153.353C425.953 150.842 422.809 147.374 420.597 142.95C418.409 138.5 417.315 133.379 417.315 127.587C417.315 121.771 418.434 116.637 420.671 112.188C422.908 107.713 426.065 104.233 430.142 101.748C434.244 99.2369 439.091 97.9815 444.684 97.9815C449.332 97.9815 453.446 98.8391 457.026 100.554C460.63 102.245 463.501 104.643 465.639 107.751C467.777 110.833 468.995 114.437 469.293 118.564H456.392C455.87 115.805 454.627 113.505 452.663 111.666C450.724 109.801 448.127 108.869 444.87 108.869C442.111 108.869 439.687 109.615 437.599 111.107C435.511 112.573 433.883 114.686 432.715 117.445C431.571 120.205 431 123.511 431 127.364C431 131.266 431.571 134.622 432.715 137.431C433.858 140.215 435.462 142.365 437.525 143.882C439.613 145.373 442.061 146.119 444.87 146.119C446.859 146.119 448.636 145.746 450.202 145C451.793 144.23 453.123 143.124 454.192 141.682C455.261 140.24 455.994 138.488 456.392 136.424H469.293C468.97 140.476 467.777 144.068 465.714 147.2C463.65 150.308 460.842 152.744 457.287 154.509C453.732 156.249 449.556 157.119 444.758 157.119ZM492.681 138.028L492.644 121.733H494.807L515.389 98.7273H531.162L505.844 126.916H503.047L492.681 138.028ZM480.377 156V79.6364H493.875V156H480.377ZM516.321 156L497.678 129.936L506.776 120.428L532.467 156H516.321ZM556.638 157.156C553.009 157.156 549.74 156.51 546.831 155.217C543.948 153.9 541.661 151.961 539.971 149.4C538.305 146.84 537.472 143.683 537.472 139.929C537.472 136.698 538.069 134.026 539.262 131.913C540.455 129.8 542.084 128.109 544.147 126.842C546.21 125.574 548.534 124.617 551.119 123.971C553.729 123.299 556.427 122.815 559.211 122.516C562.566 122.168 565.288 121.858 567.377 121.584C569.465 121.286 570.981 120.838 571.926 120.242C572.895 119.62 573.38 118.663 573.38 117.371V117.147C573.38 114.338 572.547 112.163 570.881 110.622C569.216 109.081 566.817 108.31 563.685 108.31C560.379 108.31 557.756 109.031 555.818 110.473C553.903 111.914 552.611 113.617 551.94 115.581L539.337 113.791C540.331 110.311 541.972 107.403 544.259 105.066C546.546 102.705 549.342 100.94 552.648 99.7713C555.954 98.5781 559.608 97.9815 563.611 97.9815C566.37 97.9815 569.117 98.3047 571.851 98.951C574.585 99.5973 577.084 100.666 579.346 102.158C581.608 103.624 583.422 105.625 584.79 108.161C586.182 110.696 586.878 113.866 586.878 117.669V156H573.902V148.132H573.454C572.634 149.723 571.478 151.215 569.987 152.607C568.52 153.974 566.668 155.08 564.431 155.925C562.218 156.746 559.621 157.156 556.638 157.156ZM560.143 147.238C562.852 147.238 565.201 146.703 567.19 145.634C569.179 144.54 570.707 143.099 571.776 141.309C572.87 139.519 573.417 137.568 573.417 135.455V128.706C572.994 129.054 572.274 129.377 571.254 129.675C570.26 129.974 569.141 130.235 567.899 130.458C566.656 130.682 565.425 130.881 564.207 131.055C562.989 131.229 561.933 131.378 561.038 131.502C559.024 131.776 557.222 132.223 555.631 132.845C554.04 133.466 552.785 134.336 551.865 135.455C550.945 136.549 550.486 137.966 550.486 139.706C550.486 142.191 551.393 144.068 553.207 145.336C555.022 146.604 557.334 147.238 560.143 147.238ZM625.358 178.67C620.51 178.67 616.347 178.012 612.867 176.694C609.386 175.402 606.59 173.662 604.477 171.474C602.364 169.287 600.897 166.863 600.077 164.203L612.233 161.257C612.78 162.376 613.575 163.482 614.619 164.576C615.663 165.695 617.068 166.614 618.832 167.335C620.622 168.081 622.872 168.454 625.581 168.454C629.41 168.454 632.579 167.522 635.09 165.657C637.6 163.818 638.856 160.785 638.856 156.559V145.709H638.184C637.488 147.101 636.469 148.53 635.127 149.997C633.809 151.463 632.057 152.694 629.869 153.688C627.707 154.683 624.985 155.18 621.704 155.18C617.304 155.18 613.314 154.148 609.734 152.085C606.18 149.997 603.346 146.89 601.233 142.763C599.145 138.612 598.101 133.417 598.101 127.177C598.101 120.888 599.145 115.581 601.233 111.256C603.346 106.906 606.192 103.612 609.772 101.375C613.351 99.1126 617.341 97.9815 621.741 97.9815C625.097 97.9815 627.856 98.5533 630.019 99.6967C632.206 100.815 633.946 102.17 635.239 103.761C636.531 105.327 637.513 106.806 638.184 108.198H638.93V98.7273H652.242V156.932C652.242 161.829 651.073 165.881 648.737 169.088C646.4 172.294 643.206 174.693 639.154 176.284C635.102 177.875 630.503 178.67 625.358 178.67ZM625.47 144.59C628.328 144.59 630.764 143.894 632.778 142.502C634.791 141.11 636.32 139.109 637.364 136.499C638.408 133.889 638.93 130.757 638.93 127.103C638.93 123.498 638.408 120.341 637.364 117.632C636.345 114.922 634.829 112.822 632.815 111.33C630.826 109.814 628.378 109.056 625.47 109.056C622.462 109.056 619.951 109.839 617.938 111.405C615.924 112.971 614.408 115.121 613.389 117.855C612.369 120.565 611.86 123.647 611.86 127.103C611.86 130.608 612.369 133.678 613.389 136.312C614.433 138.923 615.961 140.961 617.975 142.428C620.013 143.869 622.511 144.59 625.47 144.59ZM691.43 157.119C685.688 157.119 680.729 155.925 676.553 153.539C672.401 151.128 669.207 147.722 666.97 143.322C664.733 138.898 663.614 133.69 663.614 127.699C663.614 121.808 664.733 116.637 666.97 112.188C669.232 107.713 672.389 104.233 676.441 101.748C680.493 99.2369 685.253 97.9815 690.722 97.9815C694.252 97.9815 697.582 98.5533 700.715 99.6967C703.872 100.815 706.656 102.555 709.067 104.917C711.503 107.278 713.417 110.286 714.809 113.94C716.201 117.57 716.897 121.895 716.897 126.916V131.055H669.953V121.957H703.959C703.934 119.372 703.374 117.072 702.281 115.059C701.187 113.021 699.658 111.417 697.694 110.249C695.755 109.081 693.493 108.496 690.908 108.496C688.149 108.496 685.725 109.168 683.637 110.51C681.549 111.827 679.921 113.567 678.753 115.73C677.609 117.868 677.025 120.217 677 122.777V130.719C677 134.05 677.609 136.909 678.827 139.295C680.045 141.657 681.748 143.472 683.935 144.739C686.123 145.982 688.683 146.604 691.617 146.604C693.58 146.604 695.358 146.33 696.949 145.783C698.54 145.212 699.919 144.379 701.087 143.285C702.256 142.191 703.138 140.837 703.735 139.221L716.338 140.638C715.542 143.969 714.026 146.877 711.789 149.363C709.576 151.824 706.743 153.738 703.287 155.105C699.832 156.447 695.88 157.119 691.43 157.119Z" fill="black"/>
<circle cx="162.5" cy="117.5" r="84.5" fill="black"/>
<rect x="113" y="102" width="56" height="56" fill="white"/>
<rect x="133" y="80" width="78" height="78" fill="url(#paint0_linear_1320_423)"/>
<defs>
<linearGradient id="paint0_linear_1320_423" x1="172" y1="80" x2="172" y2="158" gradientUnits="userSpaceOnUse">
<stop stop-color="white"/>
<stop offset="1" stop-color="white" stop-opacity="0.67"/>
</linearGradient>
</defs>
</svg>
